<svg xmlns="http://www.w3.org/2000/svg" viewBox="0 0 1024 1024" version="1.1"><path d="M743.97696 871.2192a178.11456 178.11456 0 0 1-125.39904-51.63008 176.72192 176.72192 0 0 1-38.13376-56.38144 172.4416 172.4416 0 0 1-13.88544-68.38272c0-24.14592 4.62848-46.8992 13.88544-68.4032a172.032 172.032 0 0 1 38.07232-55.95136 182.272 182.272 0 0 1 56.60672-37.39648 174.44864 174.44864 0 0 1 68.8128-13.76256c24.24832 0 47.16544 4.56704 68.79232 13.76256a176.47616 176.47616 0 0 1 56.2176 37.39648 175.7184 175.7184 0 0 1 51.5072 124.3136 171.008 171.008 0 0 1-13.88544 68.42368 181.32992 181.32992 0 0 1-37.62176 56.38144 175.04256 175.04256 0 0 1-56.2176 37.86752 174.42816 174.42816 0 0 1-68.79232 13.76256h0.04096z m87.3472-204.77952h-64.02048v-59.37152a29.7984 29.7984 0 0 0-7.7824-20.66432 25.8048 25.8048 0 0 0-19.92704-8.6016 23.20384 23.20384 0 0 0-19.0464 8.6016 31.744 31.744 0 0 0-6.8608 20.66432v59.37152H657.408a28.44672 28.44672 0 0 0-20.76672 8.6016 28.01664 28.01664 0 0 0-8.66304 20.64384c0 8.06912 2.88768 14.04928 8.66304 18.10432 6.144 4.096 13.37344 6.20544 20.76672 5.98016h56.27904v61.09184c0 8.06912 2.2528 14.92992 6.8608 20.64384 4.62848 5.75488 11.6736 8.94976 19.0464 8.6016 7.5776 0.22528 14.88896-2.92864 19.92704-8.6016 5.14048-5.61152 7.94624-13.0048 7.7824-20.64384v-61.0304h64.02048v1.67936a32.1536 32.1536 0 0 0 20.76672-6.88128c5.75488-4.54656 8.97024-11.55072 8.66304-18.90304a27.97568 27.97568 0 0 0-8.66304-20.6848 28.4672 28.4672 0 0 0-20.76672-8.6016zM617.61536 452.23936c-2.08896 8.3968-4.38272 16.71168-6.92224 24.96512a150.6304 150.6304 0 0 1-8.66304 19.33312 50.176 50.176 0 0 1-11.22304 15.03232c-4.62848 3.33824-8.35584 7.7824-10.81344 12.92288-2.048 4.64896-3.7888 9.37984-5.2224 14.21312a374.784 374.784 0 0 1-4.75136 14.99136 53.1456 53.1456 0 0 1-8.6016 15.52384c-13.33248 17.2032-23.26528 33.85344-29.85984 49.95072a220.3648 220.3648 0 0 0-13.88544 46.40768 175.59552 175.59552 0 0 0-2.1504 44.31872c1.1264 14.60224 3.4816 28.85632 6.94272 42.57792 2.27328 10.30144 5.77536 21.07392 10.38336 32.27648 5.26336 12.32896 12.0832 23.87968 20.29568 34.4064 8.99072 11.776 20.35712 23.22432 34.18112 34.42688 13.88544 11.20256 31.19104 21.9136 51.95776 32.23552-13.88544 2.88768-29.98272 5.50912-48.45568 7.7824a1264.25088 1264.25088 0 0 1-135.84384 6.88128c-14.97088 0-32.44032-0.55296-52.38784-1.72032-20.48-1.20832-40.98048-2.64192-61.44-4.34176a1968.35328 1968.35328 0 0 1-62.2592-5.98016 1571.08224 1571.08224 0 0 1-56.27904-7.31136 518.10304 518.10304 0 0 1-43.29472-8.15104c-11.776-2.90816-19.1488-5.46816-22.03648-7.7824-5.16096-4.54656-9.216-17.32608-12.10368-38.27712-2.88768-20.91008-2.00704-48.27136 2.60096-82.14528 2.88768-18.92352 10.5472-33.40288 22.91712-43.45856 12.36992-10.0352 26.97216-17.92 43.68384-23.69536a827.904 827.904 0 0 1 52.36736-15.85152 178.23744 178.23744 0 0 0 48.00512-20.25472c10.93632-6.88128 19.31264-13.29152 25.06752-19.37408 5.28384-5.24288 9.40032-11.53024 12.10368-18.47296 2.31424-6.32832 3.50208-13.0048 3.50208-19.72224a328.86784 328.86784 0 0 0-0.88064-22.44608 43.45856 43.45856 0 0 0-12.55424-28.3648 548.31104 548.31104 0 0 0-22.91712-20.64384 42.9056 42.9056 0 0 1-12.10368-15.52384 189.56288 189.56288 0 0 1-8.64256-19.74272 141.312 141.312 0 0 1-6.94272-24.9856 40.05888 40.05888 0 0 1-11.264-5.14048 55.95136 55.95136 0 0 1-9.48224-10.32192 68.87424 68.87424 0 0 1-9.54368-20.64384 55.02976 55.02976 0 0 1-2.99008-24.08448c0.6144-6.49216 2.19136-12.86144 4.7104-18.86208 2.12992-6.00064 5.36576-11.55072 9.54368-16.384 0-19.51744 1.08544-39.0144 3.42016-58.53184a488.0384 488.0384 0 0 1 10.81344-53.32992 146.92352 146.92352 0 0 1 23.81824-50.76992c10.36288-14.336 21.46304-26.09152 33.28-35.24608a153.74336 153.74336 0 0 1 36.78208-21.52448 171.37664 171.37664 0 0 1 38.07232-10.77248 232.98048 232.98048 0 0 1 36.33152-2.99008c14.99136 0 29.42976 1.72032 43.29472 5.16096 13.80352 3.44064 26.624 8.04864 38.44096 13.76256 11.79648 5.7344 22.36416 12.22656 31.62112 19.37408 9.216 7.20896 16.65024 14.4384 22.48704 21.93408a163.28704 163.28704 0 0 1 28.9792 55.0912c6.10304 20.04992 10.5472 38.95296 13.4144 56.77056 2.88768 20.64384 3.9936 41.28768 3.44064 61.91104 3.4816 2.88768 6.41024 6.41024 8.66304 10.32192 2.60096 4.1984 4.34176 8.88832 5.16096 13.76256 1.16736 7.12704 1.16736 14.39744 0 21.52448-1.10592 10.87488-3.44064 19.47648-6.88128 25.8048a50.81088 50.81088 0 0 1-11.28448 14.58176c-4.28032 3.82976-9.25696 6.7584-14.70464 8.6016z m0 0" fill="#5B5B5B" p-id="13156"></path></svg>