<svg xmlns="http://www.w3.org/2000/svg" viewBox="0 0 1024 1024" version="1.1"><path d="M647.90528 828.27264H393.40032a76.3904 76.3904 0 0 1-76.26752-76.32896V532.5824h128.75776a238.3872 238.3872 0 0 1-62.2592-13.08672c-32.13312-11.34592-63.26272-29.73696-92.5696-54.6816-21.27872-18.1248-38.58432-41.14432-51.42528-68.42368a274.10432 274.10432 0 0 1-21.56544-69.87776 328.02816 328.02816 0 0 1-4.28032-77.55776l2.47808-26.46016 25.31328-6.53312s100.5568-27.9552 208.83456 44.19584c26.07104 17.38752 47.43168 40.89856 63.488 69.89824l1.7408 3.19488c24.71936-49.23392 54.1696-81.98144 87.6544-97.44384 46.36672-21.38112 94.9248-25.86624 127.50848-25.86624 28.32384 0 47.39072 3.29728 48.20992 3.44064l27.15648 4.66944 3.42016 27.40224c1.29024 10.9568 10.6496 107.70432-50.2784 176.59904-44.93312 50.83136-113.21344 72.00768-205.66016 61.76768v48.7424h170.496v219.38176a76.36992 76.36992 0 0 1-76.24704 76.32896zM358.0928 573.5424v178.42176c0 19.49696 15.83104 35.36896 35.30752 35.36896h254.50496c19.47648 0 35.328-15.85152 35.328-35.36896v-178.42176H358.0928z m-103.64928-318.48448c-0.512 8.94976-1.29024 33.97632 4.01408 64.43008 3.7888 21.79072 9.91232 41.79968 18.26816 59.45344 10.3424 21.99552 24.10496 40.38656 40.91904 54.70208 25.45664 21.66784 52.24448 37.56032 79.62624 47.22688 32.41984 11.40736 65.92512 14.29504 98.69312 8.192l16.75264-3.09248v-37.74464l-17.14176-56.50432a214.40512 214.40512 0 0 0-17.46944-41.82016c-12.86144-23.22432-29.7984-41.94304-50.3808-55.66464-81.32608-54.21056-158.43328-42.16832-173.28128-39.17824z m263.39328 182.0672l18.6368 3.01056c88.7808 14.39744 153.23136-1.16736 192.18432-45.21984 45.40416-51.34336 41.92256-125.7472 40.57088-141.59872a287.25248 287.25248 0 0 0-38.4-2.41664c-28.48768 0-70.73792 3.85024-110.34624 22.1184-28.2624 13.02528-53.88288 45.17888-76.1856 95.51872-3.74784 8.47872-7.08608 16.71168-9.95328 24.43264l-16.50688 44.15488z" fill="" p-id="3554"></path></svg>