<svg viewBox="0 0 1024 1024" xmlns="http://www.w3.org/2000/svg"><path d="m254.961371 292.1472h417.528686v52.662857h-417.528686zm0 134.100114h417.528686v52.662857h-417.528686zm345.380572 180.823772 306.249143 283.7504-35.781486 38.619428-306.249143-283.7504z"/><path d="m725.1968 938.481371h-522.971429a84.948114 84.948114 0 0 1 -84.845714-84.860342v-676.571429c0-46.782171 38.063543-84.845714 84.845714-84.845714h522.971429c46.782171 0 84.845714 38.063543 84.845714 84.845714v455.928686h-52.662857v-455.914057c0-17.744457-14.4384-32.182857-32.182857-32.182858h-522.971429c-17.744457 0-32.182857 14.4384-32.182857 32.182858v676.571428c0 17.744457 14.4384 32.197486 32.182857 32.197486h522.971429z"/></svg>