<svg xmlns="http://www.w3.org/2000/svg" viewBox="0 0 1024 1024" version="1.1"><path d="M254.961371 292.1472h417.528686v52.662857H254.961371zM254.961371 426.247314h417.528686v52.662857H254.961371zM600.341943 607.071086l306.249143 283.7504-35.781486 38.619428-306.249143-283.7504z" p-id="14227"></path><path d="M725.1968 938.481371h-522.971429a84.948114 84.948114 0 0 1-84.845714-84.860342v-676.571429c0-46.782171 38.063543-84.845714 84.845714-84.845714h522.971429c46.782171 0 84.845714 38.063543 84.845714 84.845714V632.978286h-52.662857V177.064229c0-17.744457-14.4384-32.182857-32.182857-32.182858h-522.971429c-17.744457 0-32.182857 14.4384-32.182857 32.182858v676.571428c0 17.744457 14.4384 32.197486 32.182857 32.197486h522.971429v52.648228z" p-id="14228"></path></svg>