<svg viewBox="0 0 1024 1024" xmlns="http://www.w3.org/2000/svg"><path d="m844.15488 512.70656-272.56832-257.75104c-11.84768-11.84768-29.62432-11.84768-41.48224 0-11.84768 11.84768-11.84768 29.62432 0 41.472l219.2384 207.38048h-548.07552c-17.77664 0-29.62432 11.84768-29.62432 29.63456 0 17.7664 11.84768 29.62432 29.62432 29.62432h548.08576l-219.2384 207.38048c-11.84768 11.84768-11.84768 29.63456 0 41.48224 5.92896 5.92896 14.81728 8.88832 20.736 8.88832 5.92896 0 14.81728-2.95936 20.736-8.88832l272.55808-257.7408c5.92896-5.92896 8.88832-14.81728 8.88832-20.736.01024-5.92896-2.94912-14.81728-8.87808-20.74624zm0 0" fill="#2c2c2c"/></svg>