<?xml version="1.0" standalone="no"?><!DOCTYPE svg PUBLIC "-//W3C//DTD SVG 1.1//EN" "http://www.w3.org/Graphics/SVG/1.1/DTD/svg11.dtd">
<svg t="1621057903720" class="icon" viewBox="0 0 1024 1024" version="1.1" xmlns="http://www.w3.org/2000/svg" p-id="9992"
  xmlns:xlink="http://www.w3.org/1999/xlink" width="256" height="256">
  <defs>
    <style type="text/css"></style>
  </defs>
  <path
    d="M512 0c10.778947 0 21.557895 3.592982 30.540351 12.575439l39.522807 39.522807h53.894737c23.354386 0 43.115789 19.761404 43.115789 43.115789v53.894737l37.726316 37.726316c7.185965 7.185965 12.575439 19.761404 12.575439 30.540351s-5.389474 21.557895-12.575439 30.54035l-37.726316 37.726316V341.333333c0 23.354386-19.761404 43.115789-43.115789 43.11579h-55.691228l-37.726316 37.726316c-8.982456 5.389474-19.761404 8.982456-30.540351 8.982456-10.778947 0-21.557895-3.592982-30.540351-12.575439l-37.726316-37.726316h-53.894737c-23.354386 0-43.115789-19.761404-43.115789-43.115789v-53.894737l-39.522807-39.522807c-5.389474-7.185965-10.778947-17.964912-10.778947-28.74386s5.389474-21.557895 12.575438-30.540351l39.522807-39.522807V95.214035C348.519298 71.859649 368.280702 52.098246 391.635088 52.098246h52.098245L483.25614 12.575439c7.185965-8.982456 17.964912-12.575439 28.74386-12.575439z"
    fill="#5B8FF9" p-id="9993"></path>
  <path
    d="M422.175439 179.649123c30.540351 23.354386 59.284211 35.929825 89.824561 35.929824s59.284211-12.575439 89.824561-35.929824v35.929824c-30.540351 23.354386-59.284211 35.929825-89.824561 35.929825s-59.284211-12.575439-89.824561-35.929825v-35.929824z"
    fill="#FFFFFF" p-id="9994"></path>
</svg>