<svg xmlns="http://www.w3.org/2000/svg" viewBox="0 0 1024 1024" version="1.1"><path d="M723.72224 447.85664v-127.36512c83.88608 0 84.76672-4.44416 84.76672 42.45504a84.86912 84.86912 0 0 1-84.76672 84.91008z m-423.60832 0a84.84864 84.84864 0 0 1-84.76672-84.91008c0-46.91968 0.88064-42.45504 84.76672-42.45504v127.36512z m423.60832-169.79968a84.7872 84.7872 0 0 0-84.70528-84.91008H384.8192a84.82816 84.82816 0 0 0-84.70528 84.91008c-145.14176 0-127.13984-0.04096-127.13984 84.91008 0 70.30784 56.91392 127.36512 127.13984 127.36512 5.05856 0 9.85088-0.8192 14.7456-1.47456 28.44672 83.29216 95.47776 158.3104 175.88224 169.7792v128.88064h-63.54944a21.23776 21.23776 0 1 0 0 42.43456h169.472a21.21728 21.21728 0 1 0 0-42.43456H533.0944V658.6368c80.42496-11.4688 147.41504-86.48704 175.90272-169.7792 4.83328 0.67584 9.68704 1.47456 14.7456 1.47456a127.24224 127.24224 0 0 0 127.09888-127.36512c-0.02048-84.97152 17.98144-84.91008-127.11936-84.91008z m0 0" p-id="12152"></path></svg>