<svg xmlns="http://www.w3.org/2000/svg" viewBox="0 0 1024 1024" version="1.1"><path d="M742.4 921.6h-512c-14.131 0-25.6-11.469-25.6-25.6s11.469-25.6 25.6-25.6h512c14.131 0 25.6 11.469 25.6 25.6s-11.469 25.6-25.6 25.6z" fill="" p-id="7490"></path><path d="M844.8 153.6c-14.131 0-25.6 11.469-25.6 25.6v768c0 14.131-11.469 25.6-25.6 25.6H230.4c-42.342 0-76.8-34.458-76.8-76.8s34.458-76.8 76.8-76.8h460.8c42.342 0 76.8-34.458 76.8-76.8V128c0-42.342-34.458-76.8-76.8-76.8h-512c-42.342 0-76.8 34.458-76.8 76.8v768c0 70.554 57.446 128 128 128h563.2c42.342 0 76.8-34.458 76.8-76.8v-768c0-14.131-11.469-25.6-25.6-25.6z m-665.6-51.2h512c14.131 0 25.6 11.469 25.6 25.6v614.4c0 14.131-11.469 25.6-25.6 25.6H230.4c-28.774 0-55.398 9.574-76.8 25.651V128c0-14.131 11.469-25.6 25.6-25.6z" fill="" p-id="7491"></path></svg>