<svg xmlns="http://www.w3.org/2000/svg" viewBox="0 0 1024 1024" version="1.1"><path d="M648.84736 775.49568c-40.73472 0-107.74528 11.63264-116.46976 37.84704h-37.84704c-11.65312-26.19392-75.71456-37.84704-116.49024-37.84704H162.6112v-564.8384h232.91904c49.50016 0 93.16352 26.19392 116.46976 64.04096 23.30624-37.84704 66.99008-64.04096 116.46976-64.04096H861.3888v564.85888H648.84736z m-154.3168-448.38912c0-46.57152-49.50016-78.60224-96.07168-78.60224H203.38688v486.23616h174.67392c37.86752 0 99.00032 0 116.49024 29.12256V327.10656z m329.0112-78.60224h-195.072c-49.47968 0-96.07168 32.01024-96.07168 78.60224v433.82784c17.48992-29.12256 78.60224-29.12256 116.46976-29.12256h174.6944V248.50432z m0 0" fill="" p-id="3304"></path></svg>