<svg xmlns="http://www.w3.org/2000/svg" viewBox="0 0 1024 1024" version="1.1"><path d="M512 0C228.803 0 0 228.803 0 512s228.803 512 512 512 512-228.803 512-512S795.197 0 512 0z m0.061 983.762C251.126 983.762 38.574 772.94 38.574 512c0-260.936 212.552-471.762 473.487-471.762 260.941 0 471.762 210.826 471.762 471.762 0 260.94-210.816 471.762-471.762 471.762zM221.548 373.878c0-14.203 15.81-25.718 35.317-25.718 0.656 0 1.296 0.046 1.94 0.072v-0.072h506.906v0.01c19.37 0.118 35.021 11.577 35.021 25.708 0 14.208-15.816 25.723-35.312 25.723-1.414 0-2.801-0.082-4.168-0.2H261.028a48.548 48.548 0 0 1-4.168 0.2c-19.502 0-35.312-11.515-35.312-25.723z m579.184 142.704c0 14.362-15.652 26.01-35.02 26.133v0.005H258.8v-0.082c-0.645 0.03-1.285 0.082-1.94 0.082-19.508 0-35.319-11.7-35.319-26.138 0-14.428 15.811-26.132 35.318-26.132 1.418 0 2.811 0.082 4.188 0.2h500.173c1.377-0.118 2.765-0.2 4.188-0.2 19.507 0 35.323 11.7 35.323 26.132z m0 158.306c0 14.592-15.652 26.414-35.02 26.542v0.01H258.8v-0.077c-0.645 0.03-1.285 0.077-1.94 0.077-19.508 0-35.319-11.884-35.319-26.552 0-14.654 15.811-26.542 35.318-26.542 1.418 0 2.811 0.082 4.188 0.204h500.173a46.914 46.914 0 0 1 4.188-0.204c19.507 0.005 35.323 11.888 35.323 26.542z" fill="" p-id="8488"></path></svg>