<svg viewBox="0 0 1024 1024" xmlns="http://www.w3.org/2000/svg"><path d="m511.97952 904.31488c-216.30976 0-392.2944-176.00512-392.2944-392.31488s175.98464-392.31488 392.2944-392.31488c216.33024 0 392.33536 176.00512 392.33536 392.31488s-175.98464 392.31488-392.33536 392.31488zm0-739.47136c-191.42656 0-347.136 155.72992-347.136 347.15648 0 191.46752 155.70944 347.17696 347.136 347.17696 191.488 0 347.19744-155.72992 347.19744-347.17696 0-191.42656-155.70944-347.15648-347.19744-347.15648zm0 0"/><path d="m700.84608 717.35296h-377.7536c-18.88256 0-31.47776-12.5952-31.47776-31.51872v-314.7776c0-18.88256 12.5952-31.49824 31.47776-31.49824h62.95552v-47.2064c0-9.44128 6.30784-15.74912 15.74912-15.74912s15.74912 6.28736 15.74912 15.74912v47.2064h188.88704v-47.2064c0-9.44128 6.28736-15.74912 15.74912-15.74912 9.4208 0 15.70816 6.28736 15.70816 15.74912v47.2064h62.95552c18.90304 0 31.51872 12.5952 31.51872 31.49824v314.79808c0 18.90304-15.7696 31.49824-31.51872 31.49824zm0-330.56768c0-9.44128-6.28736-15.74912-15.72864-15.74912h-47.24736v47.22688c0 9.46176-6.28736 15.74912-15.70816 15.74912-9.46176 0-15.74912-6.28736-15.74912-15.74912v-47.22688h-188.88704v47.22688c0 9.46176-6.30784 15.74912-15.74912 15.74912s-15.74912-6.28736-15.74912-15.74912v-47.22688h-47.22688c-9.44128 0-15.74912 6.30784-15.74912 15.74912v78.70464h377.73312v-78.70464zm0 110.20288h-377.7536v173.13792c0 9.4208 6.30784 15.72864 15.74912 15.72864h346.27584c9.44128 0 15.72864-6.30784 15.72864-15.72864zm0 0"/><path d="m700.84608 723.80416h-377.7536c-22.3232 0-37.90848-15.62624-37.90848-37.96992v-314.7776c0-22.3232 15.58528-37.92896 37.90848-37.92896h56.5248v-40.77568c0-13.06624 9.1136-22.17984 22.17984-22.17984s22.17984 9.1136 22.17984 22.17984v40.77568h176.0256v-40.77568c0-13.06624 9.1136-22.17984 22.17984-22.17984 13.04576 0 22.13888 9.1136 22.13888 22.17984v40.77568h56.5248c22.34368 0 37.96992 15.60576 37.96992 37.92896v314.79808c-.02048 23.42912-19.72224 37.94944-37.96992 37.94944zm-377.7536-377.79456c-15.44192 0-25.04704 9.60512-25.04704 25.04704v314.79808c0 15.48288 9.58464 25.088 25.04704 25.088h377.73312c12.06272 0 25.088-9.60512 25.088-25.088v-314.79808c0-15.21664-9.8304-25.04704-25.088-25.04704h-69.38624v-53.6576c0-5.91872-3.3792-9.29792-9.27744-9.29792-5.91872 0-9.29792 3.39968-9.29792 9.29792v53.6576h-201.76896v-53.6576c0-5.91872-3.39968-9.29792-9.3184-9.29792s-9.29792 3.39968-9.29792 9.29792v53.6576zm362.02496 346.25536h-346.27584c-13.06624 0-22.17984-9.09312-22.17984-22.13888v-179.58912h390.61504v179.58912c0 13.02528-9.09312 22.13888-22.15936 22.13888zm-355.59424-188.84608v166.7072c0 5.89824 3.39968 9.27744 9.3184 9.27744h346.27584c5.91872 0 9.27744-3.3792 9.27744-9.27744v-166.7072zm377.7536-31.49824h-390.61504v-85.13536c0-13.06624 9.1136-22.17984 22.17984-22.17984h53.6576v53.6576c0 5.91872 3.39968 9.3184 9.29792 9.3184 5.91872 0 9.3184-3.39968 9.3184-9.3184v-53.6576h201.76896v53.6576c0 5.91872 3.3792 9.3184 9.29792 9.3184 5.89824 0 9.27744-3.39968 9.27744-9.3184v-53.6576h53.6576c13.06624 0 22.15936 9.1136 22.15936 22.17984zm-377.7536-12.86144h364.87168v-72.27392c0-5.91872-3.35872-9.29792-9.27744-9.29792h-40.79616v40.77568c0 13.06624-9.09312 22.17984-22.13888 22.17984-13.06624 0-22.17984-9.1136-22.17984-22.17984v-40.77568h-176.0256v40.77568c0 13.06624-9.1136 22.17984-22.17984 22.17984s-22.17984-9.1136-22.17984-22.17984v-40.77568h-40.79616c-5.91872 0-9.3184 3.39968-9.3184 9.29792v72.27392z"/></svg>