<svg xmlns="http://www.w3.org/2000/svg" viewBox="0 0 1024 1024" version="1.1"><path d="M385.752 657.056c16.736 2.744 54.792 5.672 72.424 5.672 154.592 0 258.4-115.04 258.4-250.312s-129.696-244.944-258.4-244.944c-154.808 0-279.92 109.672-279.92 244.944 0 78.36 29.872 144.888 86.128 192.8v122.112zM575.784 383.32a32 32 0 1 1-32 32 32 32 0 0 1 32-32z m-129.408 0a32 32 0 1 1-32 32 32 32 0 0 1 32.024-32z m-128.28 0a32 32 0 1 1-32 32 32 32 0 0 1 32-32z" fill="" p-id="7804"></path><path d="M758.528 364.248l1.104 18.552c0.168 17.6 0 16 0 32.312 0 171.696-135.304 290.68-322.992 290.68h-64.6c51.256 50.112 110.88 80.744 193.792 80.744a318.6 318.6 0 0 0 51.568-4.32l120.696 74.312V734.4c65.44-44.8 107.648-114.4 107.648-192.8 0.008-69.848-33.576-132.728-87.216-177.352z" fill="" p-id="7805"></path></svg>