<?xml version="1.0" standalone="no"?><!DOCTYPE svg PUBLIC "-//W3C//DTD SVG 1.1//EN" "http://www.w3.org/Graphics/SVG/1.1/DTD/svg11.dtd"><svg t="1615611479957" class="icon" viewBox="0 0 1024 1024" version="1.1" xmlns="http://www.w3.org/2000/svg" p-id="4991" width="512" height="512" xmlns:xlink="http://www.w3.org/1999/xlink"><defs><style type="text/css"></style></defs><path d="M498.176 546.304c-133.12 0-241.152-108.032-241.152-241.152s108.032-241.152 241.152-241.152 241.152 108.032 241.152 241.152-108.032 241.152-241.152 241.152z m0-431.104c-104.96 0-189.952 84.992-189.952 189.952s84.992 189.952 189.952 189.952 189.952-84.992 189.952-189.952-84.992-189.952-189.952-189.952z" fill="#000000" p-id="4992"></path><path d="M856.576 920.064c-14.336 0-25.6-11.264-25.6-25.6 0-183.808-149.504-332.8-332.8-332.8s-332.8 149.504-332.8 332.8c0 14.336-11.264 25.6-25.6 25.6s-25.6-11.264-25.6-25.6c0-211.968 172.544-384 384-384 211.968 0 384 172.544 384 384 0 13.824-11.264 25.6-25.6 25.6z" fill="#000000" p-id="4993"></path></svg>