<svg xmlns="http://www.w3.org/2000/svg" viewBox="0 0 1024 1024" version="1.1"><path d="M515.80928 283.79136c-136.33536 0-243.46624 107.1104-243.46624 243.42528 0 136.33536 107.1104 243.48672 243.46624 243.48672 136.31488 0 243.42528-107.13088 243.42528-243.48672-0.02048-136.31488-107.1104-243.42528-243.42528-243.42528z m0 438.23104c-107.1104 0-194.74432-87.67488-194.74432-194.80576 0-107.08992 87.63392-194.72384 194.74432-194.72384s194.7648 87.63392 194.7648 194.72384c-0.02048 107.13088-87.6544 194.80576-194.7648 194.80576z m24.35072-204.51328v-136.33536c0-14.60224-9.76896-24.33024-24.35072-24.33024-14.60224 0-24.33024 9.728-24.33024 24.33024v146.04288c0 4.87424 4.85376 14.62272 4.85376 19.49696l77.90592 77.86496c4.87424 4.89472 9.74848 4.89472 19.47648 4.89472 9.76896 0 14.60224 0 19.456-4.89472a23.4496 23.4496 0 0 0 0-34.05824l-73.0112-73.0112z m-136.33536-233.71776c0-4.85376-4.87424-9.74848-4.87424-14.60224-29.20448-24.33024-77.88544-24.33024-107.1104 0l-34.07872 34.0992c-24.35072 29.22496-24.35072 77.90592 0 107.1104 4.87424 0 9.74848 4.87424 14.58176 4.87424 24.35072-58.44992 73.05216-107.15136 131.4816-131.4816z m370.01216 19.47648l-34.07872-34.0992c-29.20448-29.20448-73.03168-29.20448-102.25664 0-4.85376 4.87424-4.85376 9.74848-9.70752 14.60224 58.38848 29.20448 107.08992 73.03168 131.42016 131.46112 4.89472-4.87424 9.76896-4.87424 14.62272-9.74848 24.35072-24.30976 24.35072-72.99072 0-102.21568zM325.91872 731.72992l-19.47648 19.456a23.552 23.552 0 0 0 0 34.07872c4.87424 4.85376 9.74848 4.85376 19.47648 4.85376 9.74848 0 14.62272 0 19.47648-4.85376l19.47648-19.47648a23.49056 23.49056 0 0 0 0-34.05824c-9.728-9.70752-29.22496-9.70752-38.95296 0z m379.74016 0a23.49056 23.49056 0 0 0-34.03776 0 23.42912 23.42912 0 0 0 0 34.05824l19.43552 19.47648c4.89472 4.85376 9.76896 4.85376 19.49696 4.85376s14.60224 0 19.43552-4.85376a23.47008 23.47008 0 0 0 0-34.07872l-24.33024-19.456z m0 0" p-id="11654"></path></svg>