<svg xmlns="http://www.w3.org/2000/svg" viewBox="0 0 1024 1024" version="1.1"><path d="M742.21568 802.11968H281.8048V455.24992l-109.9776 55.07072-75.28448-188.17024 205.80352-100.27008h110.01856l3.97312 15.36A99.0208 99.0208 0 0 0 512 311.74656a99.2256 99.2256 0 0 0 95.8464-74.5472l3.95264-15.31904h114.76992l200.9088 100.43392-75.18208 187.98592-110.08-55.07072v346.89024z m-419.45088-40.96h378.49088V388.93568l129.536 64.83968 44.66688-111.63648-158.53568-79.27808h-74.3424a140.16512 140.16512 0 0 1-130.56 89.86624 139.93984 139.93984 0 0 1-130.41664-89.86624h-69.81632l-163.06176 79.4624 44.58496 111.45216 129.45408-64.83968v372.224z" fill="" p-id="4800"></path></svg>