<svg viewBox="0 0 1024 1024" xmlns="http://www.w3.org/2000/svg"><path d="m404.38784 307.10784h114.03264a18.9952 18.9952 0 0 0 0-38.01088h-114.03264a19.00544 19.00544 0 0 0 0 38.01088zm0 114.03264h228.05504a19.00544 19.00544 0 0 0 0-38.01088h-228.05504a19.00544 19.00544 0 0 0 0 38.01088zm211.94752-112.92672 161.67936-160.84992a19.00544 19.00544 0 1 0 -26.80832-26.95168l-161.66912 160.84992a19.01568 19.01568 0 0 0 26.79808 26.95168z"/><path d="m879.18592 416.09216a20.0704 20.0704 0 0 0 -1.00352-5.21216 20.71552 20.71552 0 0 0 -1.19808-3.79904.49152.49152 0 0 1 0-.17408 3.40992 3.40992 0 0 1 -.256-.28672 18.432 18.432 0 0 0 -3.33824-5.1712l-107.90912-107.89888v-18.432h-38.01088v197.9392h2.7136l-211.7632 128.3584-211.78368-128.36864h2.72384v-285.07136h291.06176v-38.01088h-291.072a38.01088 38.01088 0 0 0 -38.01088 38.01088v104.33536l-108.544 108.52352a19.02592 19.02592 0 0 0 -5.19168 13.03552 11.18208 11.18208 0 0 0 -.11264 1.024c0 .55296-.19456 1.06496-.19456 1.61792v417.6384a38.01088 38.01088 0 0 0 38.01088 38.01088h646.17472a38.02112 38.02112 0 0 0 38.02112-38.01088v-418.05824zm-113.70496-66.38592 63.47776 63.47776-63.47776 38.48192zm-494.1312-1.2288v103.19872l-64.256-38.94272z"/></svg>