<svg xmlns="http://www.w3.org/2000/svg" viewBox="0 0 1024 1024" version="1.1"><path d="M404.38784 307.10784h114.03264a18.9952 18.9952 0 0 0 0-38.01088H404.38784a19.00544 19.00544 0 0 0 0 38.01088zM404.38784 421.14048h228.05504a19.00544 19.00544 0 0 0 0-38.01088H404.38784a19.00544 19.00544 0 0 0 0 38.01088zM616.33536 308.21376l161.67936-160.84992a19.00544 19.00544 0 1 0-26.80832-26.95168L589.53728 281.26208a19.01568 19.01568 0 0 0 26.79808 26.95168z" p-id="14037"></path><path d="M879.18592 416.09216a20.0704 20.0704 0 0 0-1.00352-5.21216 20.71552 20.71552 0 0 0-1.19808-3.79904 0.49152 0.49152 0 0 1 0-0.17408 3.40992 3.40992 0 0 1-0.256-0.28672 18.432 18.432 0 0 0-3.33824-5.1712L765.48096 293.55008v-18.432h-38.01088v197.9392h2.7136l-211.7632 128.3584-211.78368-128.36864h2.72384V187.97568h291.06176v-38.01088H309.3504a38.01088 38.01088 0 0 0-38.01088 38.01088v104.33536l-108.544 108.52352a19.02592 19.02592 0 0 0-5.19168 13.03552 11.18208 11.18208 0 0 0-0.11264 1.024c0 0.55296-0.19456 1.06496-0.19456 1.61792V834.1504a38.01088 38.01088 0 0 0 38.01088 38.01088h646.17472a38.02112 38.02112 0 0 0 38.02112-38.01088V416.09216h-0.31744z m-113.70496-66.38592l63.47776 63.47776-63.47776 38.48192v-101.95968z m-494.1312-1.2288v103.19872l-64.256-38.94272 64.256-64.256z" p-id="14038"></path></svg>