<svg height="512" viewBox="0 0 1024 1024" width="512" xmlns="http://www.w3.org/2000/svg"><g fill="#2ca6e0"><path d="m368.435396 1014.626174c20.229318-71.01884 43.894256-140.980565 66.405979-211.290658q9.706228-30.331964 19.016039-60.784055c2.270393-7.447849-3.940152-15.280102-11.580203-15.208026-4.889152 0-10.414975 0-14.739533 2.630772a12.361026 12.361026 0 0 0 -1.105165 20.301394c6.510861 5.189469 19.052077 4.120342 24.337647-2.402532 3.099266-3.832038 4.588836-8.336785 2.486621-13.117823a12.012659 12.012659 0 0 0 -10.97957-7.387786c-33.635445.504532-67.27089-.132139-100.906336-.312329-16.901811-.096101-33.803622-.060063-50.705433.300317-15.964824.348367-31.881597 1.201266-47.858433.76881-26.65609-.792835-54.957915-4.684937-69.997764-29.310888a54.62156 54.62156 0 0 1 -6.967342-16.973887c-1.561646-6.95533-.816861-14.415191-.840886-21.622786q-.084089-25.767153-.336355-51.534307c-.54057-68.099764-.600633-136.103426 3.291469-204.119101 3.687886-64.507979 15.736583-128.054944 34.476331-189.800011a745.853982 745.853982 0 0 1 33.635445-90.094942q10.114659-22.463672 21.358508-44.446839c7.291684-14.18695 15.616457-27.545027 23.917204-41.107318 4.240469-6.895266 8.288735-13.898646 11.904545-21.130268l-21.959141-9.26176c-2.030139 5.87419-5.706013 11.231836-9.538051 16.084951l18.871887 14.559342c3.603798-7.507912 8.252697-14.343115 12.625305-21.382533h-20.757875c11.724355 17.03395 21.118254 35.437344 29.86347 54.141054 4.324557 9.237735 8.516975 18.535533 12.841532 27.773268 4.432671 9.477988 8.553013 19.784849 14.210976 28.602141 3.087253 4.805064 8.841317 8.817292 14.679469 8.817291s12.204861-4.600848 17.34628-7.00338q13.05776-6.006329 26.535963-10.907494a386.807618 386.807618 0 0 1 57.925042-16.433317 340.703033 340.703033 0 0 1 117.940285-2.690836c20.529634 3.159329 40.939142 8.589051 60.736004 14.871672 18.223204 5.778089 34.272116 18.199178 53.228092 21.622786 8.168608 1.48957 15.304128-2.090203 18.211191-10.054596 1.849949-5.093367 3.964177-10.126671 6.114443-15.123937q6.77514-15.796647 14.222988-31.232914a592.596479 592.596479 0 0 1 34.236078-61.540851h-20.7819c4.372608 7.051431 9.045532 13.886634 12.625305 21.382533l18.871887-14.559343c-3.832038-4.805064-7.495899-10.21076-9.538051-16.08495l-21.959141 9.26176c16.325204 27.953457 31.977698 56.303332 46.368864 85.289878q10.715292 21.622786 20.42152 43.666015c2.943101 6.727089 5.213494 13.658393 8.048482 20.421521 2.991152 7.207595 6.426773 14.018773 9.021507 21.334482 10.811393 30.319951 16.949862 62.52589 23.905191 93.890942s13.213925 63.186586 17.814773 95.128246c2.294418 15.90476 1.609696 32.30204 2.018127 48.362965.420443 16.62552.900949 33.239027 1.30938 49.864548.828873 33.347141 1.393468 66.718308.792835 100.077461-.300316 16.817723-.900949 33.563369-1.898 50.309016-.900949 15.171988-1.009063 30.920584-5.64595 45.503952-7.339735 23.136381-25.719103 46.561066-50.753484 51.077826-15.616457 2.810962-32.097825 3.123291-47.894471 3.796-16.529419.696734-33.07085.876924-49.612281.792836-32.794559-.168177-65.577105-1.35743-98.383677-1.201266q-12.553229 0-25.094445.372392c-13.069773.348367-16.901811 20.661773-3.195367 23.592862a43.113433 43.113433 0 0 0 10.282836.54057c2.762912-.072076 6.643.18019 9.225722-.756797 11.736368-4.240469 10.967558-18.667672 0-23.172419-4.420658-1.813912-11.844482-.336354-16.313191-.204216-7.315709.216228-14.259026 7.579988-11.580203 15.208027 24.493812 69.673422 44.446838 140.920502 66.069624 211.554936q9.369874 30.560204 19.29233 60.940219a12.276937 12.276937 0 0 0 14.775571 8.408861c6.006329-1.657747 10.426988-8.589051 8.408861-14.77557-23.184432-70.466257-42.945256-141.989629-65.444966-212.624064q-9.610127-30.031647-19.953026-59.835054l-11.580203 15.208026c3.279456-.096101 6.570924-.192203 9.85038-.240253h2.07819c1.885987-.120127 1.285355.961013-2.006114-.384405v-23.304558c3.363545-1.201266 3.279456-.324342 1.069127-.252266-1.297367 0-2.606747.120127-3.904115.156165s-2.570709.072076-3.856063.060063c-1.66976 0-5.213494-.840886 0 .264278l-3.195367 23.592863c67.835485-1.825924 135.743046 4.048266 203.53048-1.873975 16.433317-1.441519 31.881597-3.003165 46.344838-11.616241a97.386626 97.386626 0 0 0 32.049774-31.461154 107.669462 107.669462 0 0 0 16.060925-40.20637c2.943101-17.358292 3.327507-35.449357 4.15638-53.011864 3.219393-68.640333.096101-137.328717-1.405481-205.96905-.192203-8.889368 0-17.778735-1.201266-26.596027q-1.741836-12.853545-3.808012-25.659039c-2.61876-16.205077-5.621924-32.338078-8.889368-48.423029-6.655013-32.698458-13.862608-65.420941-22.391596-97.686942a333.519463 333.519463 0 0 0 -17.033951-47.690256c-3.039203-7.027405-5.357646-14.331102-8.408861-21.382533q-5.045317-11.70033-10.426988-23.256508c-13.994748-30.151774-29.50309-59.594801-45.876344-88.521284q-6.114443-10.811393-12.385052-21.514672c-6.679038-11.436051-26.523951-3.928139-21.95914 9.26176 3.495684 10.066608 9.165659 18.391381 15.712557 26.692128 3.603798 4.636886 11.568191 4.288519 15.772622.936988 4.92519-3.916127 5.742051-9.934469 3.099266-15.49633-3.603798-7.507912-8.252697-14.343115-12.625305-21.382533a12.156811 12.156811 0 0 0 -20.745862 0 584.355795 584.355795 0 0 0 -31.076749 55.078041q-6.811178 13.730469-13.021722 27.749242-3.327507 7.483887-6.510861 15.039849-1.681772 3.964177-3.339519 7.940368l-1.753848 4.252481c-.264278.636671-2.042152 3.507696-.732773 1.66976l4.312545-4.312545.888937-.312329h6.390734c-10.487051-1.922025-19.556609-6.799165-28.986546-11.52014a197.83648 197.83648 0 0 0 -32.818584-12.661343 410.160227 410.160227 0 0 0 -72.424321-15.051861 370.110022 370.110022 0 0 0 -138.325768 11.808444 437.705254 437.705254 0 0 0 -74.418422 28.638178l9.26176-1.201265c.708747.156165 1.693785 1.53762 1.994102 1.021076a30.031647 30.031647 0 0 0 -2.138254-4.072292q-1.681772-3.255431-3.315494-6.534886c-2.402532-4.87714-4.805064-9.80233-7.123506-14.739533-4.468709-9.502013-8.781254-19.088115-13.213925-28.602141-8.865342-18.980001-18.34333-37.671698-30.247875-54.957914-5.10538-7.423823-15.760609-8.048481-20.745862 0-4.372608 7.051431-9.045532 13.886634-12.625305 21.382533-2.570709 5.393684-1.946051 11.724355 3.099266 15.49633 4.324557 3.231405 12.012659 3.820026 15.772621-.936988 6.546899-8.300747 12.216874-16.613507 15.712558-26.692128 4.432671-12.769456-15.85671-21.442596-21.95914-9.26176-7.327722 14.643431-16.517406 28.169685-25.022369 42.128395-8.697165 14.259026-15.832684 29.743344-23.016255 44.807218-14.715507 30.848508-28.001508 62.321675-38.668749 94.803904-20.890014 63.667092-35.052939 129.532501-40.494673 196.334898-5.681988 69.769523-5.321608 139.959489-4.805064 209.89719l.384405 52.531357c.096101 16.349229-1.71781 33.635445 3.940153 49.251902 5.273557 14.595381 14.415191 27.917419 26.764204 37.311319 11.436051 8.661127 25.430799 13.850596 39.509635 16.193064 33.383179 5.561861 67.391017 2.114228 101.014449 1.873975 34.836711-.252266 69.673422.552582 104.510133.516544q12.841532 0 25.683065-.204215l-8.49295-20.505609q-.912962 1.021076.336354-.096101a5.237519 5.237519 0 0 1 2.402532-1.285355c-1.970076.696734 2.330456-.264278.888937 0a6.23457 6.23457 0 0 1 -1.573658 0c2.750899.36038 2.907063-.576608 6.210544 2.786937l3.087254 5.297583v-.168177l-1.201266 9.26176.096101-.168178-4.312544 4.312545q-3.675874 1.30938-1.693785.732772-2.594734.264278-.973026.108114c1.681772.132139 3.603798-.18019 5.28557-.192202l-11.580203-15.208027c-21.50266 70.718523-45.467914 140.656224-67.27089 211.266633q-9.369874 30.307939-18.103077 60.80808c-4.240469 14.895697 18.931951 21.250394 23.172419 6.390735z"/><path d="m630.203247 456.782318a63.438852 63.438852 0 0 1 -11.111709 89.554372c-25.538913 19.676735-62.766143 16.457343-84.821385-6.883254a64.195649 64.195649 0 0 1 -16.817723-50.020711l-2.979139 5.189468 1.201266-.58862-9.03352-5.189469a63.366776 63.366776 0 0 1 -51.870661 69.024739c-31.232913 5.814127-62.862244-13.850596-71.895764-44.146522a63.871308 63.871308 0 0 1 10.919507-57.528624c2.018127-2.534671 2.474608-6.006329 0-8.49295-2.090203-2.090203-6.462811-2.558696-8.49295 0a76.724853 76.724853 0 0 0 -15.868722 61.336637 74.898929 74.898929 0 0 0 27.292761 45.443889 75.331384 75.331384 0 0 0 121.916475-65.625156c-.40843-4.612861-4.805064-7.375773-9.033519-5.189469a7.027405 7.027405 0 0 0 -4.180405 6.318659 64.940434 64.940434 0 0 0 -.228241 8.589051 78.310524 78.310524 0 0 0 1.922026 14.643431 73.901878 73.901878 0 0 0 11.063658 25.29866 75.391448 75.391448 0 0 0 134.457692-20.625735c7.339735-24.085381 1.645734-50.05675-13.898646-69.601346-2.018127-2.546684-6.378722-2.114228-8.49295 0-2.510646 2.510646-2.030139 6.006329 0 8.49295z"/></g></svg>