<?xml version="1.0" standalone="no"?><!DOCTYPE svg PUBLIC "-//W3C//DTD SVG 1.1//EN" "http://www.w3.org/Graphics/SVG/1.1/DTD/svg11.dtd"><svg t="1616078080034" class="icon" viewBox="0 0 1024 1024" version="1.1" xmlns="http://www.w3.org/2000/svg" p-id="10683" xmlns:xlink="http://www.w3.org/1999/xlink" width="512" height="512"><defs><style type="text/css"></style></defs><path d="M767 869c-43.54 0-83.85-17.48-122.83-34.39C605.51 817.84 569 802 530 802c-41.2 0-78.8 18.17-103.08 33.41A220.6 220.6 0 0 1 309.42 869H146a20 20 0 0 1-19.8-22.79l31.23-222a81.31 81.31 0 0 1 22.86-45.84l359.19-359.18a69.72 69.72 0 0 1 98.6 0l93.73 93.73a69.81 69.81 0 0 1 0 98.6L428 715.36a99.6 99.6 0 0 1-140.85 0l-36.6-36.6a20 20 0 0 1 28.29-28.28l36.59 36.59a59.58 59.58 0 0 0 84.28 0l303.82-303.83a29.77 29.77 0 0 0 0-42l-93.74-93.74a29.73 29.73 0 0 0-42 0L208.58 606.66A41 41 0 0 0 197 629.79L169 829h140.42a180.68 180.68 0 0 0 96.23-27.47C434.39 783.5 479.28 762 530 762c47.29 0 89.39 18.26 130.09 35.91C697 813.9 731.76 829 767 829c31.62 0 58-10.66 74.27-30 12.36-14.69 18-33.6 15-50.56a20 20 0 1 1 39.4-6.86c4.95 28.46-4 59.55-23.82 83.17C847.87 853.28 810.63 869 767 869z" p-id="10684"></path></svg>