<svg viewBox="0 0 1024 1024" xmlns="http://www.w3.org/2000/svg"><path d="m515.356444 914.659556a404.878222 404.878222 0 0 1 -157.639111-777.272889 404.707556 404.707556 0 0 1 521.614223 218.851555 404.878222 404.878222 0 0 1 -206.336 526.791111 403.000889 403.000889 0 0 1 -157.639112 31.630223zm0-746.382223c-188.586667 0-341.560889 153.713778-341.560888 341.504s152.917333 341.504 341.560888 341.504c188.529778 0 341.504-152.917333 341.504-341.504s-153.770667-341.504-341.504-341.504zm0 0"/><path d="m364.032 692.849778a31.744 31.744 0 0 1 -22.243556-53.930667l301.966223-301.966222a31.857778 31.857778 0 1 1 45.112889 45.226667l-301.909334 301.056a31.630222 31.630222 0 0 1 -22.926222 9.614222zm0 0"/><path d="m665.884444 692.849778a31.573333 31.573333 0 0 1 -22.129777-9.557334l-301.966223-301.852444a31.971556 31.971556 0 0 1 45.169778-45.169778l301.112889 302.648889a31.857778 31.857778 0 0 1 -22.186667 53.930667zm0 0"/></svg>