<svg xmlns="http://www.w3.org/2000/svg" viewBox="0 0 1024 1024" version="1.1"><path d="M515.356444 914.659556A404.878222 404.878222 0 0 1 357.717333 137.386667a404.707556 404.707556 0 0 1 521.614223 218.851555 404.878222 404.878222 0 0 1-206.336 526.791111 403.000889 403.000889 0 0 1-157.639112 31.630223z m0-746.382223c-188.586667 0-341.560889 153.713778-341.560888 341.504s152.917333 341.504 341.560888 341.504c188.529778 0 341.504-152.917333 341.504-341.504s-153.770667-341.504-341.504-341.504z m0 0" p-id="10900"></path><path d="M364.032 692.849778a31.744 31.744 0 0 1-22.243556-53.930667l301.966223-301.966222a31.857778 31.857778 0 1 1 45.112889 45.226667L386.958222 683.235556a31.630222 31.630222 0 0 1-22.926222 9.614222z m0 0" p-id="10901"></path><path d="M665.884444 692.849778a31.573333 31.573333 0 0 1-22.129777-9.557334L341.788444 381.44a31.971556 31.971556 0 0 1 45.169778-45.169778l301.112889 302.648889a31.857778 31.857778 0 0 1-22.186667 53.930667z m0 0" p-id="10902"></path></svg>