<svg xmlns="http://www.w3.org/2000/svg" viewBox="0 0 1024 1024" version="1.1"><path d="M464.81408 500.92032h94.3104v40.96h-94.3104z" fill="" p-id="8991"></path><path d="M510.27968 745.6768L312.32 490.55744l94.9248-117.57568h209.48992l95.00672 117.69856-201.46176 254.99648zM364.544 491.08992l146.00192 188.17024 148.76672-188.27264-62.1568-77.02528h-170.37312L364.544 491.08992z" fill="" p-id="8992"></path><path d="M511.97952 867.84c-196.1984 0-355.81952-159.6416-355.81952-355.84 0-196.21888 159.62112-355.84 355.81952-355.84 196.23936 0 355.86048 159.62112 355.86048 355.84 0 196.1984-159.6416 355.84-355.86048 355.84z m0-670.72C338.35008 197.12 197.12 338.37056 197.12 512c0 173.64992 141.23008 314.88 314.85952 314.88 173.62944 0 314.90048-141.23008 314.90048-314.88 0-173.62944-141.27104-314.88-314.90048-314.88z" fill="" p-id="8993"></path></svg>