<svg xmlns="http://www.w3.org/2000/svg" viewBox="0 0 1024 1024" version="1.1"><path d="M515.584 596.48c-16.384 0-32.768-3.584-46.08-10.752l-378.88-202.24c-16.896-9.216-27.136-23.552-27.136-39.424s9.728-29.696 26.112-38.912l372.224-202.24c26.112-14.336 65.536-14.336 91.648 0l378.88 202.24c16.896 9.216 27.136 23.552 27.136 39.424s-9.728 29.696-26.112 38.912l-372.224 202.24c-12.8 7.168-29.184 10.752-45.568 10.752z m-24.064-51.2c12.8 6.656 35.84 6.656 48.128 0l369.664-200.704L532.48 143.872c-12.8-6.656-35.84-6.656-48.128 0L114.688 344.576 491.52 545.28z" fill="" p-id="7615"></path><path d="M515.584 759.296c-16.384 0-32.768-3.584-46.08-10.752l-378.88-202.24c-11.264-6.144-15.36-19.968-9.728-31.232 6.144-11.264 19.968-15.36 31.232-9.728l378.88 202.24c12.8 6.656 35.84 6.656 48.128 0l372.224-202.24c11.264-6.144 25.088-2.048 31.232 9.216 6.144 11.264 2.048 25.088-9.216 31.232l-372.224 202.24c-12.8 7.68-29.184 11.264-45.568 11.264z" fill="" p-id="7616"></path><path d="M515.584 931.328c-16.384 0-32.768-3.584-46.08-10.752l-378.88-202.24c-11.264-6.144-15.36-19.968-9.728-31.232 6.144-11.264 19.968-15.36 31.232-9.728l378.88 202.24c12.8 6.656 35.84 6.656 48.128 0l372.224-202.24c11.264-6.144 25.088-2.048 31.232 9.216 6.144 11.264 2.048 25.088-9.216 31.232l-372.224 202.24c-12.8 7.68-29.184 11.264-45.568 11.264z" fill="" p-id="7617"></path></svg>