<svg xmlns="http://www.w3.org/2000/svg" viewBox="0 0 1024 1024" version="1.1"><path d="M508.417 242.607l-2.388-1.365c5.118 6.825 5.118 3.754 2.388 1.365z m-307.78 309.486L475.66 675.615c24.227 11.601 34.805 11.601 61.078 0l275.023-123.522c13.65-6.142 18.426-36.169 18.426-52.206-17.743 8.871-42.652 21.497-43.335 21.497L506.03 650.706 225.205 521.384c1.024 0.682-24.91-10.92-43.335-21.497 0 15.696 4.095 44.358 18.767 52.206zM506.03 780.37L225.205 651.047c1.024 0.682-24.91-10.919-43.335-21.497 0 15.696 4.095 44.359 18.426 52.207l275.023 123.521c24.226 11.602 34.804 11.602 61.078 0L811.42 681.757c13.649-6.483 18.426-36.17 18.426-52.207-17.743 8.872-42.652 21.497-43.335 21.497L506.03 780.369zM200.637 422.43L475.66 545.952c24.227 11.602 34.805 11.602 61.078 0L811.761 422.43c20.132-9.554 20.815-49.477 0-61.078L536.738 216.333c-21.496-12.966-36.851-12.284-61.078 0L200.637 361.352c-21.155 13.648-21.838 49.818 0 61.078zM506.03 240.902c0.34 0 0.682 0.341 0.682 0.341L786.852 391.72 506.03 510.123 225.205 392.061l280.824-151.16z" fill="" p-id="8550"></path><path d="M512.853 1019.905c-280.824 0-509.44-228.617-509.44-509.44S232.028 1.024 512.852 1.024s509.44 228.617 509.44 509.44-228.275 509.441-509.44 509.441z m0-991.584c-265.81 0-482.143 215.992-482.143 482.144s216.333 482.143 482.143 482.143 482.143-216.333 482.143-482.143S779.004 28.32 512.853 28.32z" fill="" p-id="8551"></path></svg>