<svg xmlns="http://www.w3.org/2000/svg" viewBox="0 0 1024 1024" version="1.1"><path d="M856.73984 428.56448c-19.1488 0-34.59072 15.4624-34.59072 34.6112v413.96224H199.24992V185.0368h374.3744a34.59072 34.59072 0 1 0 0-69.20192H166.68672c-20.11136 0-36.5568 16.54784-36.5568 36.7616v757.00224c0 20.21376 16.44544 36.7616 36.5568 36.7616h688.20992c20.11136 0 36.5568-16.54784 36.5568-36.7616V463.17568a34.7136 34.7136 0 0 0-34.7136-34.6112z m0 0" fill="" p-id="10263"></path><path d="M491.76576 509.68576c13.5168 13.49632 35.47136 13.49632 48.98816 0L883.34336 167.07584a34.65216 34.65216 0 0 0-48.98816-48.98816L491.76576 460.67712c-13.5168 13.5168-13.5168 35.49184 0 49.00864z m0 0" fill="" p-id="10264"></path></svg>