<svg xmlns="http://www.w3.org/2000/svg" viewBox="0 0 1024 1024" version="1.1"><path d="M549.044706 512l166.189176-166.249412a26.383059 26.383059 0 0 0 0-36.98447 26.383059 26.383059 0 0 0-37.044706 0L512 475.015529l-166.249412-166.249411a26.383059 26.383059 0 0 0-36.98447 0 26.383059 26.383059 0 0 0 0 37.044706L475.015529 512l-166.249411 166.249412a26.383059 26.383059 0 0 0 0 36.98447 26.383059 26.383059 0 0 0 37.044706 0L512 548.984471l166.249412 166.249411a26.383059 26.383059 0 0 0 36.98447 0 26.383059 26.383059 0 0 0 0-37.044706L548.984471 512zM512 1024a512 512 0 1 1 0-1024 512 512 0 0 1 0 1024z" fill="#E84335" p-id="6991"></path></svg>