<svg viewBox="0 0 1024 1024" xmlns="http://www.w3.org/2000/svg"><path d="m975.075556 499.427556c-1.194667-3.072-126.407111-304.583111-463.132445-304.583112s-462.051555 301.511112-463.303111 304.583112a32.824889 32.824889 0 0 0 2.389333 29.013333c7.338667 12.231111 183.409778 300.032 460.970667 300.032 277.390222 0 453.575111-287.800889 460.856889-300.032a32.654222 32.654222 0 0 0 2.218667-29.013333zm-463.132445 263.566222c-207.928889 0-358.172444-198.997333-395.719111-254.179556 27.818667-56.433778 141.312-248.718222 395.719111-248.718222 254.350222 0 367.957333 192.341333 395.776 248.718222-37.717333 55.182222-187.904 254.179556-395.776 254.179556zm0 0"/><path d="m511.943111 296.391111a212.536889 212.536889 0 0 0 -212.366222 212.309333 212.593778 212.593778 0 0 0 212.366222 212.48 212.593778 212.593778 0 0 0 212.252445-212.48 212.536889 212.536889 0 0 0 -212.252445-212.309333zm0 359.367111a147.228444 147.228444 0 0 1 -147.057778-147.057778 147.228444 147.228444 0 0 1 147.057778-147.000888 147.228444 147.228444 0 0 1 147.000889 147.000888 147.228444 147.228444 0 0 1 -147.000889 147.057778zm0 0"/></svg>