<svg xmlns="http://www.w3.org/2000/svg" viewBox="0 0 1024 1024" version="1.1"><path d="M511.85664 213.03296c-173.01504 0-317.41952 144.384-317.41952 317.41952 0 173.38368 144.384 316.86656 317.41952 317.41952 172.60544 0.49152 317.99296-144.81408 317.44-317.41952-0.59392-173.03552-144.0768-317.41952-317.44-317.41952z m0 592.52736C361.92256 805.08928 236.7488 680.71424 236.7488 530.432c0-149.97504 125.11232-275.10784 275.10784-275.10784 150.26176 0 274.6368 125.1328 275.10784 275.10784 0.43008 149.58592-125.5424 275.5584-275.10784 275.12832z m0 0" p-id="12027"></path><path d="M602.03008 366.98112c-22.54848-20.25472-52.36736-30.53568-89.9072-30.53568-35.4304 0-63.91808 9.56416-85.504 28.48768-21.48352 19.12832-34.52928 46.40768-38.83008 82.26816l48.39424 5.67296c4.25984-26.78784 12.96384-46.26432 26.48064-58.88 13.39392-12.61568 30.26944-18.8416 50.25792-18.8416 20.84864 0 38.31808 7.00416 52.61312 20.82816 14.336 13.824 21.504 29.96224 21.504 48.25088 0 10.05568-2.58048 19.49696-7.31136 27.99616-4.89472 8.4992-15.50336 20.04992-31.82592 34.36544-16.2816 14.47936-27.5456 25.35424-33.792 32.89088-8.4992 10.32192-14.72512 20.52096-18.55488 30.59712-5.16096 13.37344-7.7824 29.45024-7.7824 47.88224 0 3.19488 0.14336 7.82336 0.28672 14.17216h45.19936c0.43008-18.8416 1.55648-32.52224 3.97312-40.87808 2.2528-8.35584 5.81632-15.79008 10.48576-22.24128 4.608-6.51264 14.7456-16.44544 30.12608-30.12608 22.79424-20.25472 38.17472-37.41696 46.05952-51.58912 7.7824-14.0288 11.81696-29.53216 11.81696-46.26432-0.1024-28.7744-11.22304-53.57568-33.6896-74.05568z m-90.3168 300.05248a28.89728 28.89728 0 1 0-0.04096 57.79456 28.89728 28.89728 0 0 0 0.04096-57.79456z m0 0" p-id="12028"></path></svg>