<svg viewBox="0 0 1024 1024" xmlns="http://www.w3.org/2000/svg"><path d="m580.93568 442.90048h-.22528a71.12704 71.12704 0 0 1 20.91008-50.688l143.91296-143.89248h-467.49696l144.50688 144.4864a71.3728 71.3728 0 0 1 20.992 50.8928v304.98816c0 47.63648-71.4752 47.63648-71.4752 0v-304.96768-.34816h-.06144l-205.53728-205.5168a35.75808 35.75808 0 0 1 25.2928-61.00992h640.06144a35.71712 35.71712 0 0 1 25.27232 61.00992l-204.71808 204.71808.04096 1.14688v406.65088c0 47.63648-71.4752 47.63648-71.4752 0v-406.65088zm0 0"/></svg>