<svg xmlns="http://www.w3.org/2000/svg" viewBox="0 0 1024 1024" version="1.1"><path d="M580.93568 442.90048h-0.22528a71.12704 71.12704 0 0 1 20.91008-50.688l143.91296-143.89248H278.03648l144.50688 144.4864a71.3728 71.3728 0 0 1 20.992 50.8928v304.98816c0 47.63648-71.4752 47.63648-71.4752 0V443.71968v-0.34816h-0.06144L166.46144 237.85472a35.75808 35.75808 0 0 1 25.2928-61.00992h640.06144a35.71712 35.71712 0 0 1 25.27232 61.00992l-204.71808 204.71808 0.04096 1.14688v406.65088c0 47.63648-71.4752 47.63648-71.4752 0V443.71968v-0.8192z m0 0" p-id="11592"></path></svg>