<svg xmlns="http://www.w3.org/2000/svg" viewBox="0 0 1024 1024" version="1.1"><path d="M330.17856 845.14816h-40.96V161.71008l17.32608-2.70336c8.64256-1.3312 212.84864-31.86688 312.25856 64.55296 90.76736 88.064 110.24384 91.21792 171.68384 89.8048l20.97152-0.53248v348.75392l-14.848 4.23936c-4.68992 1.39264-116.71552 31.80544-223.62112-80.65024-20.35712-11.73504-171.99104-95.70304-242.29888-29.9008l-0.512-0.55296v290.42688z m72.4992-355.4304c90.80832 0 188.17024 58.368 193.86368 61.82912l4.32128 3.50208c69.20192 74.01472 139.75552 76.73856 169.63584 73.87136V354.46784c-60.74368-1.00352-93.32736-17.18272-180.224-101.49888-69.65248-67.54304-210.92352-60.39552-260.096-55.54176v308.46976c22.2208-11.61216 47.104-16.1792 72.4992-16.1792z" fill="#070606" p-id="6555"></path></svg>