<svg xmlns="http://www.w3.org/2000/svg" viewBox="0 0 1821 1024" version="1.1"><path d="M918.933 646.533c-6 2.8-12.933 2.8-18.8 0L577.467 493.6v178c0 8.533 4.666 16.133 12.266 20l309.867 156c6.267 3.067 13.6 3.067 19.733 0l309.867-156c7.467-3.733 12.267-11.467 12.267-20V493.733l-322.534 152.8" fill="" p-id="7679"></path><path d="M1431.6 293.6l-514-205.333a21.472 21.472 0 0 0-16.267 0L387.6 293.6c-8.533 3.333-14.133 11.6-14.133 20.667 0 9.2 5.6 17.333 14.133 20.666l190 75.867v33.467l332 157.333 332-157.333V410.8l88.533-35.333v540.666c0 12.267 9.867 22.267 22.134 22.267 12.266 0 22.133-10 22.133-22.267V358.8l-0.133-0.933 57.333-22.934c8.4-3.333 14-11.6 14-20.666 0-9.067-5.6-17.2-14-20.667" fill="" p-id="7680"></path></svg>