<svg xmlns="http://www.w3.org/2000/svg" viewBox="0 0 1024 1024" version="1.1"><path d="M511.97952 872.16128l-79.99488-72.00768c-173.03552-158.28992-287.3344-262.84032-287.3344-403.3536 0-59.5968 22.48704-114.95424 63.32416-155.89376 40.87808-40.96 96.13312-63.52896 155.648-63.52896 33.56672 0 67.54304 7.68 98.28352 22.20032 18.00192 8.51968 34.79552 19.2512 50.09408 32.0512a233.73824 233.73824 0 0 1 50.09408-32.03072c30.72-14.52032 64.7168-22.20032 98.304-22.20032 59.4944 0 114.76992 22.56896 155.62752 63.52896 40.83712 40.93952 63.34464 96.31744 63.34464 155.89376 0 140.47232-114.29888 245.0432-287.29344 403.27168l-80.09728 72.06912z m-148.3776-653.824c-48.5376 0-93.51168 18.28864-126.64832 51.48672s-51.36384 78.29504-51.36384 126.976c0 122.4704 108.99456 222.18752 274.00192 373.12512L512 817.09056l52.36736-47.18592c165.04832-150.97856 274.0224-250.6752 274.0224-373.12512 0-48.66048-18.26816-93.75744-51.38432-126.976-33.11616-33.19808-78.09024-51.48672-126.62784-51.48672-27.58656 0-55.5008 6.32832-80.77312 18.26816a196.56704 196.56704 0 0 0-53.248 37.25312l-14.37696 14.1312-14.37696-14.1312a196.1984 196.1984 0 0 0-53.22752-37.25312 190.81216 190.81216 0 0 0-80.77312-18.24768z" fill="" p-id="3117"></path></svg>