<svg viewBox="0 0 1024 1024" xmlns="http://www.w3.org/2000/svg"><path d="m775.329792 314.802176c13.384704 0 24.385536 4.307968 32.9984 12.932096 8.62208 8.553472 12.930048 19.554304 12.930048 32.996352v367.546368c0 13.44512-4.307968 24.378368-12.930048 33.000448-8.61184 8.620032-19.612672 12.928-32.9984 12.928h-551.378944c-13.380608 0-24.378368-4.307968-33.002496-12.928-8.61184-8.558592-12.924928-19.555328-12.924928-33.000448v-367.546368c0-13.37856 4.313088-24.44288 12.924928-32.996352 8.624128-8.624128 19.622912-12.932096 33.002496-12.932096h229.701632v-80.405504c.063488-7.652352 3.856384-11.510784 11.511808-11.510784h68.891648c7.655424 0 11.515904 3.858432 11.515904 11.510784v80.405504zm22.96832 45.928448c0-15.307776-7.658496-22.965248-22.96832-22.965248h-229.758976v34.479104c0 7.716864-3.861504 11.512832-11.515904 11.512832h-68.891648c-7.655424 0-11.511808-3.795968-11.511808-11.512832v-34.47808h-229.700608c-15.309824 0-22.965248 7.721984-22.965248 22.965248v367.546368c0 15.3088 7.655424 22.965248 22.965248 22.965248h551.320576c15.300608 0 22.960128-7.656448 22.960128-22.965248v-367.547392zm-344.583168 287.140864c0-21.994496-7.918592-40.90368-23.675904-56.732672-15.757312-15.818752-34.725888-23.670784-56.727552-23.670784s-40.911872 7.914496-56.735744 23.670784c-15.823872 15.757312-23.670784 34.7392-23.670784 56.732672 0 7.716864-3.856384 11.52-11.511808 11.52-7.658496 0-11.456512-3.803136-11.456512-11.52 0-28.686336 10.038272-53.131264 30.170112-73.204736 20.068352-20.12672 44.44672-30.159872 73.203712-30.159872 28.685312 0 53.127168 10.033152 73.199616 30.159872 20.0704 20.074496 30.166016 44.519424 30.166016 73.204736 0 7.716864-3.86048 11.52-11.51488 11.52-7.653376 0-11.446272-3.803136-11.446272-11.52zm-40.206336-120.607744c-11.511808 11.517952-24.892416 17.242112-40.19712 17.242112-15.31392 0-28.756992-5.72416-40.210432-17.242112-11.44832-11.512832-17.232896-24.892416-17.232896-40.203264 0-15.306752 5.722112-28.685312 17.232896-40.199168 11.52-11.513856 24.896512-17.241088 40.210432-17.241088 15.304704 0 28.685312 5.727232 40.19712 17.241088 11.515904 11.513856 17.238016 24.958976 17.238016 40.199168 0 15.311872-5.784576 28.755968-17.238016 40.203264zm-15.817728-64.580608c-6.693888-6.685696-14.795776-10.097664-24.378368-10.097664s-17.692672 3.411968-24.378368 10.038272c-6.7584 6.754304-10.100736 14.91968-10.100736 24.43776 0 9.588736 3.342336 17.755136 10.0352 24.382464 6.683648 6.752256 14.861312 10.097664 24.443904 10.097664s17.68448-3.346432 24.378368-10.0352c6.687744-6.689792 10.029056-14.856192 10.029056-24.378368 0-9.58464-3.341312-17.75104-10.029056-24.444928zm78.987264-101.952512h45.925376v-114.878464h-45.925376zm241.212416 91.854848h-160.809984c-7.6544 0-11.50976-3.792896-11.50976-11.51488 0-7.650304 3.856384-11.510784 11.50976-11.510784h160.809984c7.655424 0 11.510784 3.861504 11.510784 11.510784-.062464 7.72096-3.85536 11.51488-11.510784 11.51488zm0 68.955136h-160.809984c-7.6544 0-11.50976-3.794944-11.50976-11.51488 0-7.6544 3.856384-11.50976 11.50976-11.50976h160.809984c7.655424 0 11.510784 3.856384 11.510784 11.50976-.062464 7.719936-3.85536 11.51488-11.510784 11.51488zm0 68.891648h-160.809984c-7.6544 0-11.50976-3.794944-11.50976-11.511808 0-7.6544 3.856384-11.518976 11.50976-11.518976h160.809984c7.655424 0 11.510784 3.864576 11.510784 11.518976-.062464 7.716864-3.85536 11.511808-11.510784 11.511808zm0 68.959232h-160.809984c-7.6544 0-11.50976-3.803136-11.50976-11.52 0-7.655424 3.856384-11.510784 11.50976-11.510784h160.809984c7.655424 0 11.510784 3.856384 11.510784 11.510784-.062464 7.716864-3.85536 11.52-11.510784 11.52zm0 0"/><path d="m775.329792 779.32544h-551.378944c-14.723072 0-27.044864-4.85376-36.622336-14.427136-9.568256-9.508864-14.425088-21.833728-14.425088-36.621312v-367.546368c0-14.790656 4.857856-27.114496 14.437376-36.629504 9.56416-9.56416 21.885952-14.419968 36.611072-14.419968h224.580608v-75.285504c.08704-10.584064 6.14912-16.630784 16.631808-16.630784h68.891648c10.417152 0 16.635904 6.216704 16.635904 16.630784v75.285504h224.638976c14.73536 0 27.056128 4.856832 36.621312 14.434304 9.567232 9.491456 14.427136 21.81632 14.427136 36.614144v367.546368c0 14.72512-4.854784 27.045888-14.430208 36.620288-9.565184 9.573376-21.885952 14.429184-36.619264 14.429184zm-551.378944-459.403264c-12.07808 0-21.689344 3.739648-29.382656 11.43296-7.585792 7.533568-11.425792 17.41312-11.425792 29.376512v367.546368c0 12.12928 3.733504 21.735424 11.413504 29.369344 7.704576 7.701504 17.316864 11.439104 29.39392 11.439104h551.378944c12.085248 0 21.694464-3.7376 29.376512-11.426816 7.693312-7.693312 11.431936-17.302528 11.431936-29.380608v-367.548416c0-12.137472-3.733504-21.740544-11.415552-29.361152-7.697408-7.708672-17.3056-11.447296-29.391872-11.447296h-234.878976v-85.525504c0-4.8384-1.554432-6.390784-6.395904-6.390784h-68.891648c-4.798464 0-6.351872 1.562624-6.391808 6.432768v85.482496h-234.820608zm551.3216 436.440064h-551.3216c-18.111488 0-28.085248-9.97376-28.085248-28.085248v-367.546368c0-18.111488 9.97376-28.085248 28.085248-28.085248h234.821632v39.599104c0 4.839424 1.553408 6.392832 6.391808 6.392832h68.891648c4.842496 0 6.395904-1.553408 6.395904-6.392832v-39.59808h234.878976c18.112512 0 28.08832 9.97376 28.08832 28.085248v5.12h-.065536v362.426368c-.002048 18.110464-9.97376 28.084224-28.081152 28.084224zm-551.3216-413.47584c-12.50816 0-17.845248 5.337088-17.845248 17.845248v367.546368c0 12.50816 5.337088 17.845248 17.845248 17.845248h551.320576c12.505088 0 17.840128-5.337088 17.840128-17.845248v-369.85856c-.646144-10.856448-6.07232-15.532032-17.78176-15.532032h-224.638976v29.359104c0 10.570752-6.064128 16.632832-16.635904 16.632832h-68.891648c-10.569728 0-16.631808-6.06208-16.631808-16.632832v-29.360128zm493.939712 321.625088h-160.809984c-10.568704 0-16.62976-6.065152-16.62976-16.64 0-10.41408 6.216704-16.630784 16.62976-16.630784h160.809984c10.41408 0 16.630784 6.216704 16.630784 16.630784-.084992 10.589184-6.147072 16.64-16.630784 16.64zm-160.809984-23.031808c-4.837376 0-6.38976 1.553408-6.38976 6.390784 0 4.844544 1.553408 6.4 6.38976 6.4h160.809984c4.857856 0 6.350848-1.50528 6.390784-6.441984 0-4.796416-1.553408-6.3488-6.390784-6.3488zm-91.917312 23.031808c-10.529792 0-16.56832-6.065152-16.56832-16.64 0-20.749312-7.256064-38.124544-22.183936-53.121024-14.64832-14.705664-32.514048-22.163456-53.098496-22.163456-20.757504 0-38.13376 7.25504-53.123072 22.178816-14.706688 14.645248-22.163456 32.512-22.163456 53.10464 0 10.574848-6.06208 16.64-16.631808 16.64-10.534912 0-16.576512-6.065152-16.576512-16.64 0-30.02368 10.656768-55.872512 31.675392-76.83072 14.11072-14.15168 30.450688-23.605248 48.797696-28.265472-5.630976-2.9952-10.911744-6.965248-15.819776-11.900928-12.423168-12.4928-18.721792-27.23328-18.721792-43.812864 0-16.642048 6.301696-31.384576 18.731008-43.819008 12.443648-12.437504 27.190272-18.742272 43.831296-18.742272 16.642048 0 31.384576 6.305792 43.817984 18.741248 12.433408 12.430336 18.737152 27.173888 18.737152 43.819008 0 16.651264-6.304768 31.39584-18.738176 43.824128-4.923392 4.926464-10.20928 8.890368-15.833088 11.881472 18.358272 4.6592 34.7136 14.117888 48.841728 28.284928 21.00736 21.011456 31.661056 46.859264 31.661056 76.82048 0 10.575872-6.063104 16.641024-16.63488 16.641024zm-91.850752-102.16448c23.407616 0 43.713536 8.470528 60.35456 25.178112 16.700416 16.777216 25.167872 37.080064 25.167872 60.346368 0 4.90496 1.478656 6.4 6.32832 6.4 4.841472 0 6.39488-1.555456 6.39488-6.4 0-27.147264-9.645056-50.558976-28.667904-69.584896-18.966528-19.018752-42.375168-28.659712-69.578752-28.659712-27.592704 0-50.352128 9.372672-69.578752 28.654592-19.03104 18.975744-28.676096 42.386432-28.676096 69.590016 0 4.90496 1.480704 6.4 6.336512 6.4 4.8384 0 6.391808-1.555456 6.391808-6.4 0-23.415808 8.470528-43.723776 25.178112-60.360704 16.770048-16.697344 37.07392-25.163776 60.34944-25.163776zm0-127.606784c-14.022656 0-25.991168 5.149696-36.590592 15.742976-10.585088 10.589184-15.731712 22.5536-15.731712 36.57728 0 13.970432 5.149696 25.939968 15.742976 36.59264 10.52672 10.586112 22.491136 15.731712 36.579328 15.731712 14.025728 0 25.98912-5.148672 36.575232-15.740928 10.4448-10.43968 15.739904-22.74816 15.739904-36.584448 0-14.024704-5.147648-25.990144-15.737856-36.578304-10.592256-10.591232-22.555648-15.740928-36.57728-15.740928zm344.578048 160.812032h-160.809984c-10.568704 0-16.62976-6.06208-16.62976-16.631808 0-10.4192 6.216704-16.638976 16.62976-16.638976h160.809984c10.41408 0 16.630784 6.219776 16.630784 16.638976-.084992 10.584064-6.147072 16.631808-16.630784 16.631808zm-160.809984-23.030784c-4.837376 0-6.38976 1.555456-6.38976 6.398976 0 4.839424 1.553408 6.391808 6.38976 6.391808h160.809984c4.857856 0 6.350848-1.503232 6.390784-6.433792 0-4.801536-1.553408-6.356992-6.390784-6.356992zm160.809984-45.860864h-160.809984c-10.568704 0-16.62976-6.063104-16.62976-16.63488 0-10.413056 6.216704-16.62976 16.62976-16.62976h160.809984c10.41408 0 16.630784 6.216704 16.630784 16.62976-.084992 10.587136-6.147072 16.63488-16.630784 16.63488zm-160.809984-23.02464c-4.837376 0-6.38976 1.552384-6.38976 6.38976 0 4.841472 1.553408 6.39488 6.38976 6.39488h160.809984c4.857856 0 6.350848-1.504256 6.390784-6.436864 0-4.795392-1.553408-6.347776-6.390784-6.347776zm-183.768064 23.02464c-11.004928 0-20.453376-3.907584-28.0832-11.616256-7.6288-7.554048-11.515904-16.980992-11.515904-27.983872 0-10.92608 3.903488-20.366336 11.60192-28.059648 7.728128-7.65952 17.142784-11.536384 27.997184-11.536384 10.873856 0 20.293632 3.90144 27.997184 11.595776 7.652352 7.65952 11.53024 17.101824 11.53024 28.06784 0 10.92608-3.878912 20.345856-11.528192 27.998208-7.660544 7.6544-17.08032 11.534336-27.999232 11.534336zm0-68.955136c-8.170496 0-14.96576 2.797568-20.773888 8.554496-5.772288 5.768192-8.585216 12.577792-8.585216 20.801536 0 8.283136 2.786304 15.06816 8.517632 20.744192 5.750784 5.810176 12.556288 8.615936 20.841472 8.615936 8.220672 0 15.010816-2.792448 20.759552-8.536064 5.738496-5.73952 8.527872-12.529664 8.527872-20.75648 0-8.2688-2.7904-15.080448-8.530944-20.826112-5.79072-5.784576-12.581888-8.597504-20.75648-8.597504zm344.578048 0h-160.809984c-10.568704 0-16.62976-6.063104-16.62976-16.63488 0-10.41408 6.216704-16.630784 16.62976-16.630784h160.809984c10.41408 0 16.630784 6.216704 16.630784 16.630784-.084992 10.586112-6.147072 16.63488-16.630784 16.63488zm-160.809984-23.026688c-4.837376 0-6.38976 1.553408-6.38976 6.390784 0 4.841472 1.553408 6.39488 6.38976 6.39488h160.809984c4.857856 0 6.350848-1.504256 6.390784-6.436864 0-4.796416-1.553408-6.3488-6.390784-6.3488zm-29.35808-68.82816h-56.165376v-125.118464h56.165376zm-45.924352-10.24h35.685376v-104.638464h-35.685376z"/></svg>