<svg viewBox="0 0 1024 1024" xmlns="http://www.w3.org/2000/svg"><path d="m996.768 436.48-114.496-107.168-297.184-272.832c-19.488-19.488-48.704-31.68-77.952-31.68s-58.464 12.192-77.952 31.68l-401.92 380c-34.112 34.112-26.784 60.896-24.352 68.192 4.864 12.192 17.056 26.784 46.272 26.784h58.464c14.624 0 24.352 12.192 24.352 24.352v323.968c0 56.032 38.976 116.928 102.304 116.928h550.528c63.328 0 102.304-60.896 102.304-116.928v-321.536c0-14.624 12.192-24.352 24.352-24.352h58.464c29.216 0 41.408-14.624 46.272-29.216 7.296-7.296 14.624-31.68-19.488-68.192zm-328.864 414.112c0 31.68-24.352 56.032-56.032 56.032h-197.312c-31.68 0-56.032-26.784-56.032-56.032v-270.4c0-31.68 24.352-56.032 56.032-56.032h197.312c31.68 0 56.032 26.784 56.032 56.032z"/></svg>