<svg viewBox="0 0 1024 1024" xmlns="http://www.w3.org/2000/svg"><path d="m512.77824 993.75104-160.52224-242.23744a375.808 375.808 0 0 1 -215.69536-339.84512c-.02048-207.03232 168.40704-375.45984 375.43936-375.45984 207.01184 0 375.43936 168.42752 375.43936 375.45984 0 151.08096-88.63744 285.32736-226.69312 344.82176zm-.77824-896.1024c-173.1584 0-314.01984 140.86144-314.01984 314.01984a314.34752 314.34752 0 0 0 187.41248 287.45728l8.23296 3.62496 117.59616 177.41824 107.9296-173.056 9.33888-3.72736a312.70912 312.70912 0 0 0 197.5296-291.71712c-.02048-173.1584-140.88192-314.01984-314.01984-314.01984z"/><path d="m380.55936 294.74816h43.95008v267.63264h-43.95008z"/><path d="m434.74944 572.6208h-64.43008v-288.11264h64.43008zm-43.95008-20.48h23.47008v-247.15264h-23.47008z"/><path d="m604.22144 458.9568h-72.41728v103.424h-45.21984v-268.92288h120.23808c58.61376 2.58048 90.05056 29.73696 94.37184 81.44896-.88064 55.17312-33.21856 83.18976-96.9728 84.04992zm-3.8912-125.41952h-68.54656v86.60992h68.54656c37.04832 0 55.6032-15.07328 55.6032-45.24032-1.7408-26.70592-20.2752-40.50944-55.6032-41.3696z"/><path d="m542.04416 572.6208h-65.69984v-289.40288h130.47808c80.54784 3.54304 101.2736 51.34336 104.57088 90.84928-.6144 43.29472-19.72224 93.96224-107.02848 95.1296h-62.32064zm-45.24032-20.48h24.73984v-103.424h82.65728c58.34752-.77824 85.93408-24.28928 86.71232-73.95328-3.87072-45.79328-30.76096-68.68992-84.60288-71.0656h-109.52704v248.44288zm103.5264-121.73312h-78.78656v-107.08992h78.78656c51.77344 1.26976 64.34816 28.40576 65.82272 50.93376.02048 21.38112-8.54016 56.15616-65.82272 56.15616zm-58.28608-20.48h58.30656c40.20224 0 45.3632-18.71872 45.3632-35.00032-.83968-12.53376-6.49216-30.18752-45.60896-31.1296h-58.0608z"/></svg>