<svg xmlns="http://www.w3.org/2000/svg" viewBox="0 0 1024 1024" version="1.1"><path d="M889.81504 140.5952c-70.3488-73.37984-189.46048-73.37984-259.7888 0l-107.008 110.05952c-12.22656 12.24704-12.22656 33.64864 0 45.8752 12.20608 12.22656 30.57664 12.22656 42.8032 0l107.008-110.08c48.90624-48.92672 125.3376-48.92672 174.1824 0 48.82432 48.92672 48.90624 128.4096 0 177.23392l-174.30528 177.31584c-48.90624 48.9472-125.3376 48.9472-174.16192 0-12.22656-12.20608-30.57664-12.20608-42.8032 0-12.22656 12.24704-12.22656 33.64864 0 45.8752 70.30784 73.37984 189.46048 73.37984 259.7888 0l174.16192-177.23392c73.40032-76.43136 73.40032-195.66592 0.12288-269.04576zM467.98848 730.48064l-106.92608 110.08c-48.90624 48.88576-125.35808 48.88576-174.16192 0-48.90624-48.9472-48.90624-128.43008 0-177.2544l174.16192-177.21344c48.92672-48.92672 125.35808-48.92672 174.16192 0 12.22656 12.22656 30.59712 12.22656 42.82368 0 12.22656-12.22656 12.22656-33.64864 0-45.85472-70.32832-73.37984-189.46048-73.37984-259.7888 0l-174.26432 177.21344c-73.40032 73.40032-70.32832 192.49152 0 265.89184 70.32832 73.35936 189.46048 73.35936 259.76832 0l107.02848-110.03904c12.22656-12.26752 12.22656-33.64864 0-45.8752a32.74752 32.74752 0 0 0-42.8032 3.05152z m0 0" p-id="14669"></path></svg>