<svg viewBox="0 0 1024 1024" xmlns="http://www.w3.org/2000/svg"><g fill="#666767"><path d="m396.8 275.2 138.667 138.667c34.133 34.133 34.133 87.466 0 121.6-8.534 8.533-8.534 21.333 0 29.866 8.533 8.534 21.333 8.534 29.866 0 49.067-49.066 49.067-130.133 0-181.333l-138.666-138.667c-49.067-49.066-130.134-49.066-181.334 0-49.066 49.067-49.066 130.134 0 181.334l78.934 78.933c8.533 8.533 21.333 8.533 29.866 0 8.534-8.533 8.534-21.333 0-29.867l-78.933-78.933c-34.133-34.133-34.133-87.467 0-121.6 34.133-32 87.467-32 121.6 0z"/><path d="m512 0c-283.733 0-512 228.267-512 512s228.267 512 512 512 512-228.267 512-512-228.267-512-512-512zm0 981.333c-260.267 0-469.333-209.066-469.333-469.333s209.066-469.333 469.333-469.333 469.333 209.066 469.333 469.333-209.066 469.333-469.333 469.333z"/><path d="m678.4 497.067c-8.533-8.534-21.333-8.534-29.867 0-8.533 8.533-8.533 21.333 0 29.866l78.934 78.934c34.133 34.133 34.133 87.466 0 121.6-34.134 34.133-87.467 34.133-121.6 0l-138.667-138.667c-34.133-34.133-34.133-87.467 0-121.6 8.533-8.533 8.533-21.333 0-29.867-8.533-8.533-21.333-8.533-29.867 0-49.066 49.067-49.066 130.134 0 181.334l138.667 138.666c49.067 49.067 130.133 49.067 181.333 0 49.067-49.066 49.067-130.133 0-181.333z"/></g></svg>