<svg xmlns="http://www.w3.org/2000/svg" viewBox="0 0 1024 1024" version="1.1"><path d="M499.7 660.7L355.5 804.9c-21.7 22.2-51.5 34.2-83 34.2s-60.8-12-83-34.2c-45.7-46.1-45.7-120.7 0-166.4l144.2-144.2c21.7-22.2 51.5-34.2 83-34.2s60.8 12 83 34.2c14.2 14.2 36.8 14.2 51 0 14.2-14.2 14.2-36.8 0-51-35.9-35.9-83.4-55.5-134.4-55.5s-98.5 19.5-134.4 55.5L137.7 587.5c-35.9 35.9-55.5 83.4-55.5 134.4s19.5 98.5 55.5 134.4c37.3 36.8 85.6 55.5 134.4 55.5 48.8 0 97.6-18.2 134.4-55.9l144.2-144.2c14.2-14.2 14.2-36.8 0-51-14.2-14.2-36.8-14.2-51 0z" fill="" p-id="8677"></path><path d="M826.6 167.8c-74.1-74.1-194.3-74.1-268.4 0L414 312c-14.2 14.2-14.2 36.8 0 51 14.2 14.2 36.8 14.2 51 0l144.2-144.2c22.2-22.2 51.5-34.2 83-34.2s61.2 12 83 34.2c45.7 45.7 45.7 120.2 0 166.4L631 529.4c-45.7 45.7-120.2 45.7-166.4 0-14.2-14.2-36.8-14.2-51 0-14.2 14.2-14.2 36.8 0 51 36.8 36.8 85.6 55.5 134.4 55.5 48.8 0 97.2-18.2 134.4-55.5l144.2-144.2c74.1-74 74.1-194.3 0-268.4z" fill="" p-id="8678"></path></svg>