<svg xmlns="http://www.w3.org/2000/svg" viewBox="0 0 1024 1024" version="1.1"><path d="M511.50848 729.55904l-14.04928-14.15168c-15.44192-15.5648-150.81472-154.56256-150.81472-242.97472 0-93.67552 74.17856-169.8816 165.33504-169.8816s165.35552 75.776 165.376 168.93952c0.02048 91.29984-149.8112 242.9952-151.3472 244.4288l-14.49984 13.63968z m0.47104-386.048c-68.58752 0-124.37504 57.83552-124.37504 128.9216 0 54.19008 79.7696 151.04 124.416 199.00416 36.74112-39.91552 124.39552-144.09728 124.37504-199.94624-0.02048-70.5536-55.82848-127.97952-124.416-127.97952z m1.04448 195.25632c-42.45504 0-77.02528-35.49184-77.02528-79.11424s34.57024-79.09376 77.02528-79.09376 77.02528 35.47136 77.02528 79.09376-34.57024 79.11424-77.02528 79.11424z m0-117.248c-19.88608 0-36.06528 17.1008-36.06528 38.13376s16.1792 38.13376 36.06528 38.13376 36.06528-17.1008 36.06528-38.13376-16.1792-38.13376-36.06528-38.13376z" fill="" p-id="9250"></path><path d="M511.97952 867.84c-196.1984 0-355.81952-159.6416-355.81952-355.84S315.78112 156.16 511.97952 156.16c196.21888 0 355.86048 159.6416 355.86048 355.84S708.1984 867.84 511.97952 867.84z m0-670.72C338.35008 197.12 197.12 338.37056 197.12 512s141.23008 314.88 314.85952 314.88c173.64992 0 314.90048-141.23008 314.90048-314.88 0-173.62944-141.25056-314.88-314.90048-314.88z" fill="" p-id="9251"></path></svg>