<svg viewBox="0 0 1024 1024" xmlns="http://www.w3.org/2000/svg"><path d="m747.95008 637.52192h-52.89984v27.87328l53.02272 125.52192h-472.14592l52.3264-122.12224.69632-31.27296h-52.89984l-83.64032 209.12128h639.1808z"/><path d="m328.94976 568.832 9.80992 11.20256h-1.59744l174.83776 194.21184 174.81728-194.19136h-.12288l8.27392-9.07264-1.00352-2.00704c36.27008-43.35616 56.77056-97.44384 56.77056-152.84224 0-131.64544-107.08992-238.75584-238.75584-238.75584s-238.75584 107.1104-238.75584 238.75584c0 55.05024 20.2752 108.81024 56.07424 152.00256zm0-152.71936c0-100.92544 82.1248-183.02976 183.05024-183.02976 100.90496 0 183.05024 82.10432 183.05024 183.02976 0 40.38656-12.55424 78.19264-36.31104 109.42464l-50.93376 54.49728h-2.048l-93.75744 110.2848-93.75744-110.2848h-1.90464l-50.93376-54.33344c-24.14592-31.70304-36.4544-68.56704-36.4544-109.58848z"/><path d="m512 520.704c58.59328 0 104.52992-45.93664 104.52992-104.57088 0-58.61376-45.93664-104.52992-104.52992-104.52992-58.63424 0-104.5504 45.91616-104.5504 104.52992 0 58.63424 45.91616 104.57088 104.5504 104.57088zm0-153.3952c27.79136 0 48.80384 20.992 48.80384 48.80384 0 27.8528-20.992 48.8448-48.80384 48.8448-27.83232 0-48.8448-20.992-48.8448-48.8448 0-27.81184 21.01248-48.80384 48.8448-48.80384z"/></svg>