<svg xmlns="http://www.w3.org/2000/svg" viewBox="0 0 1024 1024" version="1.1"><path d="M503.23456 885.82144l-14.04928-14.15168C478.02368 860.38528 215.49056 593.92 215.49056 434.7904c0-163.55328 129.29024-296.61184 288.21504-296.61184 158.90432 0 288.21504 132.28032 288.256 294.87104 0.04096 159.0272-271.4624 436.51072-274.20672 439.07072l-14.52032 13.70112z m0.49152-706.6624c-136.33536 0-247.25504 114.688-247.25504 255.65184 0 122.79808 192.7168 335.21664 247.48032 393.09312C563.2 765.62432 751.06304 549.4784 751.02208 433.07008c-0.04096-140.00128-110.98112-253.91104-247.296-253.91104z m1.88416 360.83712c-68.9152 0-125.00992-57.79456-125.00992-128.83968s56.07424-128.8192 125.00992-128.8192c68.89472 0 124.96896 57.79456 124.96896 128.8192s-56.05376 128.83968-124.96896 128.83968z m0-216.6784c-46.34624 0-84.04992 39.40352-84.04992 87.8592s37.70368 87.8592 84.04992 87.8592c46.32576 0 84.00896-39.40352 84.00896-87.8592s-37.6832-87.8592-84.00896-87.8592z" fill="" p-id="3055"></path></svg>