<svg xmlns="http://www.w3.org/2000/svg" viewBox="0 0 1024 1024" version="1.1"><path d="M512 872.8576l-78.60224-70.7584C256.96256 640.69632 140.41088 534.07744 140.41088 392.25344c0-59.74016 22.528-115.24096 63.44704-156.2624 40.93952-41.02144 96.33792-63.63136 155.97568-63.63136 33.66912 0 67.76832 7.70048 98.6112 22.28224 19.41504 9.17504 37.376 20.8896 53.57568 34.95936a234.96704 234.96704 0 0 1 53.5552-34.93888 232.40704 232.40704 0 0 1 98.6112-22.28224c59.63776 0 115.03616 22.60992 155.97568 63.63136 40.89856 41.02144 63.44704 96.50176 63.44704 156.2624 0 141.824-116.55168 248.44288-293.00736 409.82528L512 872.8576z" p-id="10964"></path></svg>