<svg xmlns="http://www.w3.org/2000/svg" viewBox="0 0 1024 1024" version="1.1"><path d="M512 872.8576l-78.60224-70.7584C256.96256 640.69632 140.41088 534.07744 140.41088 392.25344c0-59.74016 22.528-115.24096 63.44704-156.2624 40.93952-41.02144 96.33792-63.63136 155.97568-63.63136 33.66912 0 67.76832 7.70048 98.6112 22.28224 19.41504 9.17504 37.376 20.8896 53.57568 34.95936a234.96704 234.96704 0 0 1 53.5552-34.93888 232.40704 232.40704 0 0 1 98.6112-22.28224c59.63776 0 115.03616 22.60992 155.97568 63.63136 40.89856 41.02144 63.44704 96.50176 63.44704 156.2624 0 141.824-116.55168 248.44288-293.00736 409.82528L512 872.8576zM359.81312 204.12416c-51.15904 0-98.54976 19.27168-133.48864 54.29248-34.93888 35.00032-54.1696 82.55488-54.1696 133.8368 0 127.83616 112.45568 230.68672 282.66496 386.37568L512 830.13632l57.1392-51.48672c170.25024-155.72992 282.70592-258.58048 282.70592-386.39616 0-51.28192-19.23072-98.816-54.19008-133.8368-34.9184-35.00032-82.35008-54.29248-133.48864-54.29248a200.41728 200.41728 0 0 0-85.03296 19.23072 206.66368 206.66368 0 0 0-55.99232 39.15776l-11.14112 10.99776-11.14112-10.99776a206.66368 206.66368 0 0 0-55.99232-39.15776 200.58112 200.58112 0 0 0-85.05344-19.23072z" p-id="11026"></path></svg>