<svg viewBox="0 0 1024 1024" xmlns="http://www.w3.org/2000/svg"><path d="m836.3008 266.79296v-.02048c0-.55296-.06144-1.10592-.08192-1.65888l-.08192-1.45408c-.06144-.57344-.18432-1.10592-.26624-1.67936-.04096-.32768-.08192-.65536-.16384-.98304l-.04096-.22528-.04096-.2048c-.1024-.57344-.28672-1.1264-.43008-1.67936l-.32768-1.31072c-.18432-.57344-.43008-1.14688-.65536-1.7408l-.18432-.53248-.14336-.32768-.08192-.22528c-.24576-.59392-.55296-1.16736-.83968-1.7408l-.45056-.96256-1.00352-1.65888-.3072-.49152-.2048-.28672-.06144-.12288a21.62688 21.62688 0 0 0 -1.16736-1.536 23.12192 23.12192 0 0 1 -.63488-.86016l-1.24928-1.37216-.75776-.8192-.04096-.06144h-.02048l-.04096-.04096-1.20832-1.08544-.9216-.8192-1.3312-1.00352-1.04448-.77824-.24576-.14336-.4096-.22528-.77824-.49152-1.14688-.67584c-.49152-.26624-1.00352-.47104-1.51552-.7168-.38912-.18432-.77824-.43008-1.20832-.59392l-.34816-.12288-.43008-.16384-.73728-.26624c-.43008-.16384-.88064-.34816-1.35168-.49152l-1.37216-.34816c-.53248-.14336-1.04448-.3072-1.59744-.4096l-.32768-.04096-.3072-.06144-1.16736-.16384c-.43008-.06144-.86016-.16384-1.29024-.2048a32.78848 32.78848 0 0 0 -3.15392-.14336h-.1024l-245.94432.88064a31.08864 31.08864 0 0 0 .12288 62.1568h.1024l170.92608-.63488-112.37376 113.19296a224.70656 224.70656 0 0 0 -139.1616-48.35328l-3.03104.02048c-124.78464 1.6384-224.9728 104.50944-223.31392 229.2736 1.61792 123.14624 103.1168 223.31392 226.24256 223.31392l3.03104-.02048a224.70656 224.70656 0 0 0 159.15008-68.36224 224.68608 224.68608 0 0 0 64.16384-160.89088 224.41984 224.41984 0 0 0 -43.8272-130.33472l112.96768-113.78688v170.51648a31.10912 31.10912 0 0 0 62.17728 0v-246.02624zm-247.3984 429.91616a152.65792 152.65792 0 0 1 -108.15488 46.4896l-2.08896.02048c-83.6608 0-152.63744-68.11648-153.74336-151.79776-1.10592-84.82816 66.99008-154.70592 151.79776-155.83232l2.06848-.02048c83.6608 0 152.6784 68.11648 153.74336 151.81824a152.8832 152.8832 0 0 1 -43.6224 109.32224zm0 0"/></svg>