<svg xmlns="http://www.w3.org/2000/svg" viewBox="0 0 1024 1024" version="1.1"><path d="M836.3008 266.79296v-0.02048c0-0.55296-0.06144-1.10592-0.08192-1.65888l-0.08192-1.45408c-0.06144-0.57344-0.18432-1.10592-0.26624-1.67936-0.04096-0.32768-0.08192-0.65536-0.16384-0.98304l-0.04096-0.22528-0.04096-0.2048c-0.1024-0.57344-0.28672-1.1264-0.43008-1.67936l-0.32768-1.31072c-0.18432-0.57344-0.43008-1.14688-0.65536-1.7408l-0.18432-0.53248-0.14336-0.32768-0.08192-0.22528c-0.24576-0.59392-0.55296-1.16736-0.83968-1.7408l-0.45056-0.96256-1.00352-1.65888-0.3072-0.49152-0.2048-0.28672-0.06144-0.12288a21.62688 21.62688 0 0 0-1.16736-1.536 23.12192 23.12192 0 0 1-0.63488-0.86016l-1.24928-1.37216-0.75776-0.8192-0.04096-0.06144h-0.02048l-0.04096-0.04096-1.20832-1.08544-0.9216-0.8192-1.3312-1.00352-1.04448-0.77824-0.24576-0.14336-0.4096-0.22528-0.77824-0.49152-1.14688-0.67584c-0.49152-0.26624-1.00352-0.47104-1.51552-0.7168-0.38912-0.18432-0.77824-0.43008-1.20832-0.59392l-0.34816-0.12288-0.43008-0.16384-0.73728-0.26624c-0.43008-0.16384-0.88064-0.34816-1.35168-0.49152l-1.37216-0.34816c-0.53248-0.14336-1.04448-0.3072-1.59744-0.4096l-0.32768-0.04096-0.3072-0.06144-1.16736-0.16384c-0.43008-0.06144-0.86016-0.16384-1.29024-0.2048a32.78848 32.78848 0 0 0-3.15392-0.14336h-0.1024l-245.94432 0.88064a31.08864 31.08864 0 0 0 0.12288 62.1568h0.1024l170.92608-0.63488-112.37376 113.19296a224.70656 224.70656 0 0 0-139.1616-48.35328l-3.03104 0.02048c-124.78464 1.6384-224.9728 104.50944-223.31392 229.2736 1.61792 123.14624 103.1168 223.31392 226.24256 223.31392l3.03104-0.02048a224.70656 224.70656 0 0 0 159.15008-68.36224 224.68608 224.68608 0 0 0 64.16384-160.89088 224.41984 224.41984 0 0 0-43.8272-130.33472l112.96768-113.78688v170.51648a31.10912 31.10912 0 0 0 62.17728 0V266.79296z m-247.3984 429.91616a152.65792 152.65792 0 0 1-108.15488 46.4896l-2.08896 0.02048c-83.6608 0-152.63744-68.11648-153.74336-151.79776-1.10592-84.82816 66.99008-154.70592 151.79776-155.83232l2.06848-0.02048c83.6608 0 152.6784 68.11648 153.74336 151.81824a152.8832 152.8832 0 0 1-43.6224 109.32224z m0 0" p-id="11216"></path></svg>