<svg xmlns="http://www.w3.org/2000/svg" viewBox="0 0 1024 1024" version="1.1"><path d="M328.704 101.376c18.432 0 33.792 6.144 47.104 18.944 12.8 12.8 19.456 28.16 19.456 46.592V430.08c0 18.432-6.656 33.792-19.456 47.104-12.8 12.8-28.672 19.456-47.104 19.456H65.536c-18.432 0-33.792-6.656-46.592-19.456C6.144 463.872 0 448 0 430.08V166.4c0-18.432 6.144-33.792 18.944-46.592s28.16-18.944 46.592-18.944h263.168z m0 526.336c18.432 0 33.792 6.144 47.104 18.944 12.8 12.8 19.456 28.16 19.456 46.592V957.44c0 18.432-6.656 33.792-19.456 46.592s-28.672 18.944-47.104 18.944H65.536c-18.432 0-33.792-6.144-46.592-18.944S0 975.872 0 957.44V693.248c0-18.432 6.144-33.792 18.944-46.592s28.16-18.944 46.592-18.944h263.168z m527.872 0c18.432 0 33.792 6.144 46.592 18.944s18.944 28.16 18.944 46.592V957.44c0 18.432-6.144 33.792-18.944 46.592s-28.16 18.944-46.592 18.944H593.408c-18.432 0-33.792-6.144-47.104-18.944-12.8-12.8-19.456-28.16-19.456-46.592V693.248c0-18.432 6.656-33.792 19.456-46.592s28.672-18.944 47.104-18.944h263.168z m146.432-410.624c13.824 13.824 20.992 30.72 20.992 49.664 0 18.944-7.168 35.328-20.992 48.64L806.912 511.488c-13.824 13.824-30.208 20.992-49.152 20.992-18.432 0-34.816-7.168-49.152-20.992L512.512 315.392c-13.312-13.312-19.968-29.696-19.968-48.64s6.656-35.328 19.968-49.664L708.608 20.992C722.432 7.68 738.816 1.024 757.76 1.024c18.432 0 34.816 6.656 49.152 19.968l196.096 196.096z" fill="" p-id="8301"></path></svg>