<svg viewBox="0 0 1024 1024" xmlns="http://www.w3.org/2000/svg"><path d="m826.20416 844.65664a39.5264 39.5264 0 0 1 -28.16-11.71456l-557.3632-557.34272a39.89504 39.89504 0 0 1 -.04096-56.2176c14.97088-15.09376 41.2672-15.09376 56.32-.04096l40.59136 40.59136a244.77696 244.77696 0 0 1 113.78688-65.65888 61.37856 61.37856 0 0 1 60.39552-50.93376 61.35808 61.35808 0 0 1 60.27264 50.3808 242.8928 242.8928 0 0 1 182.39488 208.44544c15.95392 138.01472 36.08576 245.49376 58.18368 310.80448a61.44 61.44 0 0 1 3.072 25.088l38.66624 38.64576c7.53664 7.51616 11.69408 17.55136 11.65312 28.24192a39.30112 39.30112 0 0 1 -11.73504 28.09856 38.97344 38.97344 0 0 1 -28.03712 11.61216zm-557.40416-600.22784a2.8672 2.8672 0 0 0 -2.06848.83968 3.072 3.072 0 0 0 -.04096 4.34176l557.3632 557.3632c2.2528 2.27328 3.33824.90112 4.13696.14336.88064-.90112 1.04448-1.69984 1.04448-2.23232a3.072 3.072 0 0 0 -.88064-2.1504l-52.87936-52.87936 2.74432-10.24c1.35168-5.0176 1.2288-9.99424-.43008-14.80704-23.28576-68.73088-43.43808-175.86176-59.904-318.40256a206.41792 206.41792 0 0 0 -167.13728-179.73248l-16.40448-3.13344 1.82272-18.7392a24.4736 24.4736 0 1 0 -48.90624-.2048l2.60096 19.27168-17.05984 3.2768a207.68768 207.68768 0 0 0 -120.4224 71.20896l-12.88192 15.50336-68.52608-68.5056a2.99008 2.99008 0 0 0 -2.17088-.9216zm242.95424 593.12128a104.28416 104.28416 0 0 1 -83.74272-42.86464h-159.37536a60.2112 60.2112 0 0 1 -49.4592-25.35424 62.5664 62.5664 0 0 1 -8.2944-56.36096c22.1184-65.41312 42.25024-172.89216 58.18368-310.80448 1.69984-14.52032 4.7104-28.95872 8.97024-42.9056l8.92928-29.30688 464.65024 464.73216h-156.11904a104.1408 104.1408 0 0 1 -83.74272 42.86464zm-205.49632-436.28544-.67584 5.16096c-16.46592 142.41792-36.59776 249.52832-59.86304 318.32064-2.70336 8.00768-1.49504 16.44544 3.33824 23.1424 4.56704 6.38976 11.71456 10.01472 19.59936 10.01472h179.85536l5.30432 9.1136c12.32896 21.13536 33.9968 33.75104 57.9584 33.75104a67.33824 67.33824 0 0 0 57.91744-33.71008l5.30432-9.15456h87.87968z" fill="#050001"/></svg>