<?xml version="1.0" standalone="no"?><!DOCTYPE svg PUBLIC "-//W3C//DTD SVG 1.1//EN" "http://www.w3.org/Graphics/SVG/1.1/DTD/svg11.dtd"><svg t="1614589922075" class="icon" viewBox="0 0 1024 1024" version="1.1" xmlns="http://www.w3.org/2000/svg" p-id="27862" width="512" height="512" xmlns:xlink="http://www.w3.org/1999/xlink"><defs><style type="text/css"></style></defs><path d="M512.5 79c22.108 0 44.217 8.434 61.08 25.3l77.944 77.947h107.59c47.71 0 86.38 38.674 86.38 86.38l-0.001 35.825h0.584v59.814l-0.584-0.001v11.951l74.205 74.205c33.736 33.733 33.736 88.426 0 122.16l-74.205 74.205v111.329c0 47.706-38.67 86.38-86.38 86.38H647.786l-74.205 74.204C556.716 935.566 534.608 944 512.5 944c-22.11 0-44.218-8.434-61.081-25.3l-74.205-74.205H269.626c-47.704 0-86.38-38.674-86.38-86.38V650.528l-77.944-77.947c-33.736-33.733-33.736-88.426 0-122.16l77.943-77.947V268.628c0-47.705 38.677-86.38 86.38-86.38h103.85l77.943-77.947C468.283 87.435 490.39 79 512.498 79z m0 57.589c-4.457 0-13.027 1.095-20.366 8.435l-77.938 77.943a57.597 57.597 0 0 1-40.723 16.867H269.625c-15.88 0-28.795 12.918-28.795 28.794v103.848a57.591 57.591 0 0 1-16.862 40.719l-77.945 77.947c-7.338 7.34-8.435 15.907-8.435 20.36 0 4.455 1.097 13.023 8.428 20.36l77.952 77.948a57.591 57.591 0 0 1 16.862 40.719v107.585c0 15.878 12.915 28.795 28.795 28.795h107.59a57.6 57.6 0 0 1 40.723 16.867l74.205 74.205c7.338 7.338 15.9 8.433 20.357 8.433 4.457 0 13.026-1.095 20.365-8.434l74.197-74.204a57.597 57.597 0 0 1 40.723-16.867h111.326c15.881 0 28.795-12.917 28.795-28.794v-111.33a57.592 57.592 0 0 1 16.864-40.72l74.204-74.204c7.339-7.34 8.435-15.906 8.435-20.36 0-4.454-1.096-13.023-8.427-20.359l-74.212-74.206a57.593 57.593 0 0 1-16.863-40.72l-0.001-11.951-1.643 0.001v-59.814h1.643v-35.824c0-15.718-12.656-28.535-28.318-28.79l-0.475-0.003H651.525a57.597 57.597 0 0 1-40.723-16.868l-77.945-77.946c-7.331-7.337-15.9-8.432-20.357-8.432z m160.077 285.628l0.01 0.01c11.677 11.676 11.677 30.608 0 42.285L509.905 627.194c-8.303 8.303-20.274 10.702-30.697 7.197a29.757 29.757 0 0 1-13.636-7.533l-81.098-78.316c-11.879-11.471-12.21-30.4-0.738-42.278l0.01-0.01c11.47-11.88 30.4-12.21 42.278-0.738l61.54 59.428 142.728-142.727c11.677-11.677 30.608-11.677 42.285 0z" fill="#000000" p-id="27863"></path></svg>