<svg xmlns="http://www.w3.org/2000/svg" viewBox="0 0 1024 1024" version="1.1"><path d="M512 1002.212766C241.500596 1002.212766 21.427745 782.129021 21.427745 511.640511 21.427745 241.130213 241.500596 21.057362 512 21.057362c270.510298 0 490.583149 220.072851 490.583149 490.583149C1002.583149 782.129021 782.510298 1002.212766 512 1002.212766z m0-937.580936c-246.478979 0-446.997787 200.518809-446.997787 447.008681C65.002213 758.108596 265.521021 958.638298 512 958.638298s447.008681-200.529702 447.008681-446.997787C959.008681 265.150638 758.478979 64.63183 512 64.63183z" fill="#231815" p-id="9503"></path><path d="M512 913.255489c-221.45634 0-401.614979-180.169532-401.614979-401.614978 0-221.467234 180.158638-401.625872 401.614979-401.625873s401.625872 180.158638 401.625872 401.625873c0 221.445447-180.169532 401.614979-401.625872 401.614978z m0-792.347234c-215.443064 0-390.721362 175.278298-390.721362 390.732256 0 215.443064 175.278298 390.721362 390.721362 390.721361s390.732255-175.278298 390.732255-390.721361c0-215.453957-175.289191-390.732255-390.732255-390.732256z" fill="#231815" p-id="9504"></path><path d="M227.861787 439.252426v25.839659h95.384511c3.19183 0 5.708255-2.505532 5.708255-5.490383v-48.716255a5.653787 5.653787 0 0 0-5.708255-5.708256H191.72766l6.623319-29.739574h153.48017c6.176681 0 11.438298 5.261617 11.438298 11.449192v96.506553c0 6.405447-5.250723 11.449191-11.438298 11.449191h-123.969362v61.28749c0 3.889021 2.973957 6.852085 6.862979 6.852085h104.077617c8.235574 0 13.257532-2.276766 15.08766-10.980766l6.405446-30.186213 33.171064 8.46434-9.379404 40.938213c-3.19183 14.194383-10.51234 21.514894-23.79166 21.514894H211.859064c-10.065702 0-18.301277-8.235574-18.301277-18.301277V439.252426h34.304zM492.990638 439.02366l-45.273872 76.386042 32.462979-3.19183v28.127319l-54.892936 6.405447c-15.773957 1.830128-21.493106-11.427404-14.641022-24.935489l27.005277-49.402553-23.562894 3.431489c-11.89583 1.601362-17.843745-9.368511-13.268425-20.588936l33.617702-84.632511 32.713532 9.368511-34.54366 69.087319 19.216341-2.298553 11.667063-21.264341 29.499915 13.508086z m-8.453447 144.994042l-77.312 12.593021-5.719148-29.282042 79.153021-12.364255 3.878127 29.053276z m86.909277-213.612936v26.983489h53.302468v29.739575h-53.302468v25.621787h46.450383v29.728681H490.713872l6.623319-29.728681h39.805277v-25.621787h-53.302468l6.634213-29.739575h46.668255v-26.983489h34.304z m-77.540766 139.296681c0-6.405447 5.043745-11.438298 11.449192-11.438298h99.022978c6.187574 0 11.449191 5.032851 11.449192 11.438298v87.835234h-34.314894v-8.704h-53.509447v8.704H493.916596v-87.835234z m34.097021 49.402553h53.509447v-27.680681a3.355234 3.355234 0 0 0-3.420596-3.420596h-46.657361a3.355234 3.355234 0 0 0-3.420596 3.420596v27.680681zM820.125957 433.533277a11.982979 11.982979 0 0 1 11.89583 11.895829v58.553192c0 6.405447-5.490383 11.89583-11.89583 11.89583h-40.044936c21.046468 19.891745 46.210723 35.436936 72.976341 47.104l-18.301277 29.510808c-31.101277-13.954723-55.808-32.01634-77.551659-55.339574v59.239489h-34.293107v-58.106553a233.439319 233.439319 0 0 1-77.083234 54.217532l-18.530042-27.212256c26.765617-11.89583 52.85583-28.595745 74.338042-49.402553h-41.406638a11.982979 11.982979 0 0 1-11.89583-11.89583V445.44c0-6.405447 5.272511-11.89583 11.89583-11.89583h62.681872v-14.194383h-89.654468l6.634213-29.728681h83.020255v-18.530042h34.293107v18.530042h89.654468v29.728681h-89.654468v14.194383h62.921531z m-137.695319 49.860085c0 1.601362 1.590468 2.745191 2.973958 2.745191h37.506723v-22.876596h-37.506723c-1.383489 0-2.973957 1.383489-2.973958 2.745192v17.386213z m115.276256-17.386213c0-1.361702-1.361702-2.745191-2.745192-2.745192H757.215319v22.876596h37.746383a2.766979 2.766979 0 0 0 2.745192-2.745191v-17.386213z" fill="#231815" p-id="9505"></path></svg>