<svg viewBox="0 0 1024 1024" xmlns="http://www.w3.org/2000/svg"><path d="m796.46208 722.972672h-565.2224c-12.532736 0-22.7328-10.200064-22.7328-22.7328v-436.073472c0-12.532736 10.200064-22.7328 22.7328-22.7328h565.2224c12.537856 0 22.73792 10.200064 22.73792 22.7328v436.074496c0 12.531712-10.200064 22.731776-22.73792 22.731776zm-560.349184-27.595776h555.476992v-426.343424h-555.476992zm0 0"/><path d="m796.46208 725.532672h-565.2224c-13.94688 0-25.2928-11.34592-25.2928-25.2928v-436.073472c0-13.94688 11.34592-25.2928 25.2928-25.2928h565.2224c13.948928 0 25.29792 11.34592 25.29792 25.2928v436.074496c0 13.945856-11.348992 25.291776-25.29792 25.291776zm-565.2224-481.539072c-11.122688 0-20.1728 9.049088-20.1728 20.1728v436.074496c0 11.122688 9.049088 20.1728 20.1728 20.1728h565.2224c11.12576 0 20.17792-9.050112 20.17792-20.1728v-436.074496c0-11.122688-9.05216-20.1728-20.17792-20.1728zm562.909184 453.943296h-560.595968v-431.463424h560.596992v431.463424zm-555.475968-5.12h550.356992v-421.223424h-550.356992z"/><path d="m793.275392 579.329024h-568.408064c-7.622656 0-13.796352-6.18496-13.796352-13.801472 0-7.621632 6.173696-13.804544 13.796352-13.804544h568.40704c7.620608 0 13.804544 6.182912 13.804544 13.804544.001024 7.616512-6.182912 13.801472-13.80352 13.801472zm0 0"/><path d="m793.275392 581.889024h-568.408064c-9.019392 0-16.356352-7.340032-16.356352-16.361472 0-9.024512 7.337984-16.364544 16.356352-16.364544h568.40704c9.024512 0 16.364544 7.341056 16.364544 16.364544.001024 9.02144-7.340032 16.361472-16.36352 16.361472zm-568.408064-27.606016c-6.196224 0-11.236352 5.044224-11.236352 11.244544 0 6.198272 5.040128 11.241472 11.236352 11.241472h568.40704c6.201344 0 11.244544-5.0432 11.244544-11.241472 0-6.201344-5.044224-11.244544-11.244544-11.244544zm273.325056 77.082624c0 9.64608 7.824384 17.465344 17.473536 17.465344 9.648128 0 17.467392-7.819264 17.467392-17.465344a17.46944 17.46944 0 1 0 -26.200064-15.133696 17.480704 17.480704 0 0 0 -8.740864 15.133696zm0 0"/><path d="m515.66592 651.390976c-11.046912 0-20.033536-8.982528-20.033536-20.025344 0-7.133184 3.84-13.782016 10.020864-17.350656a20.0192 20.0192 0 0 1 20.025344.001024 20.089856 20.089856 0 0 1 10.013696 17.349632c.001024 11.042816-8.983552 20.025344-20.026368 20.025344zm0-34.937856c-2.614272 0-5.19168.690176-7.452672 1.995776a14.96064 14.96064 0 0 0 -7.460864 12.916736c0 8.218624 6.690816 14.905344 14.913536 14.905344 8.219648 0 14.907392-6.685696 14.907392-14.905344 0-5.312512-2.85696-10.261504-7.45472-12.916736a14.917632 14.917632 0 0 0 -7.452672-1.995776z"/><path d="m515.657728 794.72128c-7.616512 0-13.796352-6.18496-13.796352-13.805568v-67.637248c0-7.631872 6.17984-13.806592 13.796352-13.806592 7.631872 0 13.805568 6.17472 13.805568 13.806592v67.637248c.001024 7.620608-6.173696 13.805568-13.805568 13.805568zm0 0"/><path d="m515.657728 797.28128c-9.019392 0-16.356352-7.34208-16.356352-16.365568v-67.637248c0-9.024512 7.337984-16.366592 16.356352-16.366592 9.024512 0 16.365568 7.34208 16.365568 16.366592v67.637248c.001024 9.023488-7.341056 16.365568-16.365568 16.365568zm0-95.250432c-6.196224 0-11.236352 5.045248-11.236352 11.246592v67.637248c0 6.201344 5.040128 11.245568 11.236352 11.245568 6.201344 0 11.245568-5.045248 11.245568-11.245568v-67.637248c.001024-6.201344-5.044224-11.246592-11.245568-11.246592z"/><path d="m670.819328 802.163712h-310.310912c-7.622656 0-13.796352-6.178816-13.796352-13.801472 0-7.620608 6.173696-13.80352 13.796352-13.80352h310.310912c7.625728 0 13.801472 6.182912 13.801472 13.80352-.001024 7.622656-6.175744 13.801472-13.801472 13.801472zm0 0"/><path d="m670.819328 804.723712h-310.310912c-9.019392 0-16.356352-7.340032-16.356352-16.361472 0-9.023488 7.337984-16.36352 16.356352-16.36352h310.310912c9.02144 0 16.361472 7.341056 16.361472 16.36352-.001024 9.02144-7.341056 16.361472-16.361472 16.361472zm-310.310912-27.604992c-6.196224 0-11.236352 5.044224-11.236352 11.24352 0 6.198272 5.040128 11.241472 11.236352 11.241472h310.310912c6.198272 0 11.241472-5.0432 11.241472-11.241472 0-6.20032-5.0432-11.24352-11.241472-11.24352z"/></svg>