<svg viewBox="0 0 1024 1024" xmlns="http://www.w3.org/2000/svg"><path d="m789.1968 767.61088h-163.92192v93.67552h46.83776a23.42912 23.42912 0 1 1 0 46.85824h-281.02656a23.42912 23.42912 0 1 1 0-46.85824h46.83776v-93.67552h-187.35104a93.65504 93.65504 0 0 1 -93.67552-93.65504v-421.56032a93.67552 93.67552 0 0 1 93.67552-93.67552h538.64448a93.696 93.696 0 0 1 93.696 93.67552v421.56032a93.696 93.696 0 0 1 -93.71648 93.65504zm-210.75968 93.696v-93.67552h-93.67552v93.67552zm257.59744-608.91136a46.81728 46.81728 0 0 0 -46.83776-46.83776h-538.64448a46.81728 46.81728 0 0 0 -46.83776 46.83776v327.8848h632.32zm0 374.72256h-632.32v46.83776a46.81728 46.81728 0 0 0 46.83776 46.81728h538.64448a46.81728 46.81728 0 0 0 46.83776-46.81728zm0 0"/></svg>