<svg xmlns="http://www.w3.org/2000/svg" viewBox="0 0 1024 1024" version="1.1"><path d="M833.51552 729.88672l-166.76864-64.96256s-31.8464-12.34944-44.15488-24.43264c-7.92576-7.86432-7.3728-26.19392-0.34816-49.74592 7.02464-23.53152 92.48768-119.13216 92.48768-205.98784 0-134.08256-88.22784-242.83136-196.95616-242.83136-108.7488 0-196.87424 108.7488-196.87424 242.83136 0 83.21024 76.1856 182.3744 85.56544 200.33536 9.40032 18.06336 7.12704 45.54752-0.26624 53.82144-11.14112 12.51328-51.9168 25.00608-51.9168 25.00608l-150.34368 66.9696c-35.1232 12.57472-62.6688 45.69088-62.6688 83.12832v17.69472c0 40.77568 33.11616 65.76128 73.80992 65.76128h607.1296c40.69376 0 73.87136-24.9856 73.87136-65.76128v-17.69472c0.1024-37.45792-27.4432-71.5776-62.5664-84.13184z m0 0" fill="#2C2C2C" p-id="13094"></path></svg>