<svg xmlns="http://www.w3.org/2000/svg" viewBox="0 0 1024 1024" version="1.1"><path d="M703.50848 821.9648c-11.264 0-22.05696-1.35168-32.11264-4.05504-221.696-63.87712-414.0032-297.02144-465.28512-476.4672-21.62688-77.88544 25.45664-159.15008 104.98048-181.76 5.28384-1.98656 26.66496-8.11008 43.2128-4.8128 19.1488 0.67584 35.1232 9.25696 45.19936 24.3712l84.74624 146.28864c11.59168 17.3056 11.59168 37.5808-0.67584 55.99232-14.80704 25.98912-35.04128 46.03904-60.0064 59.31008 39.23968 61.82912 91.68896 114.09408 156.32384 155.77088a145.28512 145.28512 0 0 1 56.05376-56.97536c15.83104-10.67008 37.64224-11.42784 55.88992 0.73728l144.0768 83.37408c16.15872 10.69056 24.82176 26.70592 25.47712 45.8752 3.64544 18.51392-2.82624 37.96992-4.77184 43.23328-19.57888 68.32128-93.06112 109.11744-153.10848 109.11744zM342.44608 194.72384c-7.00416 0-14.9504 2.49856-17.42848 3.46112l-2.048 0.67584c-59.33056 16.4864-93.34784 74.21952-77.45536 131.46112C285.96224 471.8592 452.79232 712.2944 682.33216 778.4448c6.20544 1.65888 13.45536 2.56 21.15584 2.56 44.07296 0 100.16768-30.6176 113.93024-80.0768l0.7168-2.08896c2.10944-5.44768 4.44416-15.872 2.94912-21.85216l-0.59392-4.95616c0-8.2944-3.11296-11.48928-6.16448-13.49632l-144.0768-83.39456c-6.79936-4.42368-8.25344-3.70688-12.77952-0.67584-23.87968 13.70112-39.69024 32.74752-49.47968 58.92096l-8.56064 22.87616-21.03296-12.41088c-86.79424-51.3024-154.84928-119.37792-202.24-202.3424l-12.3904-21.68832 23.71584-7.90528c26.29632-8.76544 46.36672-25.72288 61.29664-51.87584 3.7888-5.77536 3.7888-8.27392 0.73728-12.84096L364.7488 200.86784c-1.35168-1.9456-4.54656-5.07904-12.84096-5.07904l-4.97664-0.6144a19.92704 19.92704 0 0 0-4.48512-0.45056z" fill="#151515" p-id="6805"></path></svg>