<svg xmlns="http://www.w3.org/2000/svg" viewBox="0 0 1024 1024" version="1.1"><path d="M696.77056 829.39904c-102.89152 0-248.56576-75.48928-339.27168-150.03648-143.54432-117.76-226.87744-278.38464-198.10304-381.93152a178.9952 178.9952 0 0 1 21.21728-45.056l1.98656-3.70688c0.86016-1.6384 1.88416-3.42016 3.42016-5.30432l27.8528-34.26304c13.59872-16.6912 40.32512-19.456 57.01632-5.87776l151.04 121.99936c8.45824 6.8608 13.70112 16.56832 14.82752 27.3408a40.3456 40.3456 0 0 1-8.88832 29.75744l-44.91264 55.23456c1.47456 17.77664 11.6736 72.17152 79.42144 127.2832 56.19712 45.71136 104.05888 52.5312 127.56992 52.5312 5.12 0 9.27744-0.3072 12.32896-0.65536L647.168 561.5616c13.55776-16.67072 40.32512-19.43552 56.99584-5.8368l150.13888 122.12224c8.97024 7.2704 14.56128 17.408 15.72864 28.44672a39.936 39.936 0 0 1-8.78592 29.45024l-27.05408 33.23904c-11.53024 14.19264-27.48416 27.19744-47.4112 38.64576-21.56544 11.32544-45.24032 18.20672-71.0656 20.84864a194.048 194.048 0 0 1-18.944 0.9216zM217.00608 270.92992l-1.18784 2.2528a144.09728 144.09728 0 0 0-17.16224 35.84c-23.63392 85.15584 57.46688 234.22976 184.832 338.69824 97.60768 80.24064 232.28416 140.71808 313.28256 140.71808 5.09952 0 10.01472-0.24576 14.7456-0.7168 20.62336-2.12992 39.30112-7.51616 55.56224-16.03584 14.88896-8.56064 26.99264-18.28864 35.34848-28.5696l27.05408-33.23904-151.1424-122.40896-53.32992 66.21184-6.41024 1.69984c-1.16736 0.32768-11.5712 2.94912-28.61056 2.94912-28.95872 0-87.40864-8.02816-153.43616-61.70624-98.11968-79.83104-94.90432-163.65568-94.72-167.19872l0.34816-6.67648 53.92384-66.31424-151.04-121.4464-26.46016 33.19808a39.3216 39.3216 0 0 1-1.59744 2.74432z" fill="" p-id="3678"></path></svg>