<svg viewBox="0 0 1024 1024" xmlns="http://www.w3.org/2000/svg"><path d="m518.59456 822.6816c18.47296 0 34.6112-16.15872 34.6112-34.63168s-16.1792-34.63168-34.6112-34.63168-34.63168 16.15872-34.63168 34.63168c0 18.45248 16.15872 34.63168 34.63168 34.63168zm173.11744-669.47072h-346.25536a92.63104 92.63104 0 0 0 -92.34432 92.34432v553.984c0 50.7904 41.55392 92.3648 92.34432 92.3648h346.27584a92.63104 92.63104 0 0 0 92.34432-92.3648v-553.984a92.65152 92.65152 0 0 0 -92.3648-92.34432zm46.16192 646.3488a46.26432 46.26432 0 0 1 -46.16192 46.16192h-346.25536a46.26432 46.26432 0 0 1 -46.16192-46.16192v-69.2224h438.59968v69.2224zm0-115.42528h-438.59968v-369.33632h438.59968zm0-415.51872h-438.59968v-23.04a46.2848 46.2848 0 0 1 46.16192-46.1824h346.27584a46.2848 46.2848 0 0 1 46.16192 46.1824zm0 0"/></svg>