<svg xmlns="http://www.w3.org/2000/svg" viewBox="0 0 1024 1024" version="1.1"><path d="M650.01472 850.2272c-77.98784 0-118.3744-20.97152-138.73152-39.15776-0.57344 0-1.10592-0.04096-1.41312 0-19.43552 18.28864-59.10528 39.15776-138.8544 39.15776-45.11744 0-80.46592-15.09376-96.93184-41.43104-10.79296-17.73568-11.83744-41.79968-2.88768-62.95552a80.60928 80.60928 0 0 1 33.0752-37.70368 315.88352 315.88352 0 0 1-17.87904-30.16704c-13.25056 15.23712-28.0576 23.90016-42.10688 23.90016a31.5392 31.5392 0 0 1-25.47712-12.61568c-12.94336-18.45248-14.49984-49.5616-13.57824-63.50848 3.25632-47.22688 26.7264-96.93184 68.01408-144.34304-3.3792-20.1728-3.1744-55.9104 22.15936-85.2992 2.8672-127.1808 95.06816-222.35136 216.69888-222.35136 121.61024 0 213.77024 95.08864 216.6784 222.208 24.53504 28.03712 25.86624 64.36864 22.2208 85.7088 21.52448 25.21088 63.56992 79.64672 67.9936 143.99488 0.04096 30.9248-5.95968 52.28544-17.77664 64.8192-5.95968 7.168-14.68416 11.24352-24.20736 11.24352-14.09024 0-29.02016-8.82688-42.47552-24.33024-4.75136 9.15456-10.67008 19.3536-17.96096 30.5152a80.65024 80.65024 0 0 1 34.304 39.38304c8.68352 21.44256 7.14752 44.544-4.11648 61.80864-16.24064 26.0096-51.58912 41.12384-96.74752 41.12384z m-111.22688-69.55008c12.53376 11.10016 43.1104 28.59008 111.24736 28.59008 44.8512 0 58.96192-16.97792 62.21824-22.20032 4.03456-6.20544 4.21888-15.64672 0.67584-24.39168-2.99008-7.39328-11.22304-20.5824-32.41984-25.3952l-30.63808-6.9632 18.7392-25.21088c28.32384-38.13376 38.72768-64.86016 42.41408-77.39392l15.13472-51.52768 22.99904 48.5376c8.9088 18.78016 18.57536 29.36832 24.49408 33.77152 2.23232-5.48864 4.42368-15.872 4.42368-31.37536-3.9936-57.30304-49.84832-109.38368-64.9216-126.50496l-8.54016-9.70752 5.09952-11.89888c-0.04096 0 9.40032-36.6592-15.31904-59.74016l-6.49216-6.06208v-11.01824c0-106.88512-75.5712-187.47392-175.80032-187.47392s-175.80032 80.5888-175.80032 187.47392v10.79296l-6.2464 6.0416c-22.56896 21.8112-17.38752 54.76352-15.42144 60.35456l4.05504 11.59168-7.96672 9.97376c-39.50592 42.9056-61.87008 87.04-64.63488 127.5904a96.3584 96.3584 0 0 0 2.88768 29.20448c5.3248-4.52608 14.2336-14.27456 22.79424-32.84992l23.4496-50.72896 14.90944 53.84192c3.52256 12.75904 13.68064 39.66976 42.14784 76.84096l19.39456 25.35424-31.1296 7.0656c-20.45952 4.64896-28.59008 17.36704-31.6416 24.51456-3.85024 9.1136-3.85024 19.12832 0.02048 25.4976 3.11296 4.97664 17.24416 21.97504 62.07488 21.97504 72.02816 0 100.94592-18.16576 111.77984-28.99968 9.17504-9.19552 20.54144-10.24 28.28288-10.24 14.7456 0.02048 23.06048 5.3248 27.72992 10.67008z" fill="" p-id="4302"></path></svg>