<svg viewBox="0 0 1024 1024" xmlns="http://www.w3.org/2000/svg"><path d="m628.75648 849.92c-50.85184 0-94.67904-16.54784-116.8384-42.25024-22.016 25.72288-65.78176 42.25024-116.75648 42.25024-75.28448 0-132.03456-34.79552-132.03456-80.97792 0-20.74624 12.06272-40.01792 33.28-54.5792a188.6208 188.6208 0 0 1 -26.25536-39.60832c-11.6736 11.53024-25.16992 20.04992-39.46496 20.04992-5.91872 0-11.50976-1.41312-16.60928-4.21888-39.56736-21.68832-19.02592-105.04192-.63488-150.8352 13.78304-34.0992 36.20864-73.216 61.29664-91.4432.4096-17.87904 4.68992-35.06176 12.57472-50.21696.16384-8.2944 1.9456-17.08032 5.2224-25.27232 7.12704-136.13056 96.8704-230.89152 219.38176-230.89152 122.49088 0 212.21376 94.72 219.32032 230.8096 3.21536 7.92576 5.0176 16.56832 5.26336 25.31328 7.94624 15.11424 12.288 32.31744 12.67712 50.23744 25.02656 18.28864 47.37024 57.38496 61.1328 91.38176 18.55488 45.83424 39.3216 129.20832-.63488 150.95808-16.22016 8.86784-36.5568 3.52256-55.99232-15.7696a191.488 191.488 0 0 1 -26.17344 39.44448c21.46304 14.5408 33.30048 33.60768 33.30048 54.62016-.02048 46.20288-56.77056 80.9984-132.05504 80.9984zm-138.83392-91.83232h43.78624l4.4032 14.60224c5.24288 17.44896 41.39008 36.27008 90.66496 36.27008 55.6032 0 91.07456-23.69536 91.07456-40.01792 0-10.28096-13.23008-22.13888-33.75104-30.208l-31.00672-12.1856 24.8832-22.15936c24.39168-21.77024 40.67328-47.94368 47.06304-75.71456l10.89536-47.47264 26.29632 41.00096c12.22656 19.0464 21.8112 27.4432 26.64448 30.39232 2.60096-9.8304 2.39616-45.91616-18.49344-97.54624-18.5344-45.85472-41.3696-72.192-51.63008-76.24704l-14.39744-5.69344 1.536-15.38048a71.86432 71.86432 0 0 0 -9.48224-43.97056l-3.62496-5.98016.79872-6.94272a31.5392 31.5392 0 0 0 -2.99008-14.35648l-1.88416-3.85024-.16384-4.28032c-3.91168-97.28-60.66176-195.44064-178.5856-195.44064s-174.6944 98.16064-178.64704 195.46112l-.16384 4.15744-1.78176 3.76832c-2.02752 4.25984-3.072 9.05216-3.072 13.84448l.63488 6.67648-3.42016 6.9632a72.704 72.704 0 0 0 -9.80992 37.21216c0 2.47808.14336 4.97664.32768 7.39328l1.14688 15.07328-14.09024 5.5296c-10.30144 4.05504-33.11616 30.33088-51.63008 76.0832-19.94752 49.7664-20.8896 85.0944-17.65376 97.15712 4.77184-3.21536 14.1312-11.6736 25.88672-30.0032l26.23488-40.91904 10.9568 47.37024c6.4512 27.9552 22.7328 54.14912 47.08352 75.71456l25.12896 22.24128-31.27296 12.16512c-20.45952 7.96672-33.6896 19.80416-33.6896 30.18752 0 16.32256 35.47136 40.01792 91.07456 40.01792 49.33632 0 85.36064-18.75968 90.43968-36.1472z" fill="#050101"/></svg>