<svg viewBox="0 0 1024 1024" xmlns="http://www.w3.org/2000/svg"><path d="m511.9744 913.2032c-221.2096 0-401.1776-179.968-401.1776-401.2032s179.968-401.2032 401.1776-401.2032c221.2352 0 401.2288 179.968 401.2288 401.2032s-179.9936 401.2032-401.2288 401.2032zm0-756.224c-195.7376 0-354.9952 159.2576-354.9952 355.0208s159.232 355.0208 354.9952 355.0208 355.0464-159.232 355.0464-355.0208-159.2832-355.0208-355.0464-355.0208zm0 0"/><path d="m595.328 752.7424c-36.0704 0-67.1744-11.7504-82.8928-29.9776-15.616 18.2528-46.6688 29.9776-82.8416 29.9776-53.4016 0-93.6704-24.704-93.6704-57.4464 0-14.72 8.5504-28.3904 23.6032-38.7328a133.376 133.376 0 0 1 -18.6368-28.1088c-8.2944 8.1664-17.8432 14.2336-28.0064 14.2336a24.064 24.064 0 0 1 -11.776-2.9952c-28.0832-15.4112-13.4912-74.496-.4608-107.008 9.7792-24.192 25.6768-51.9424 43.4944-64.8704a81.408 81.408 0 0 1 8.9344-35.6608c.1024-5.8624 1.3824-12.1088 3.712-17.92 5.0432-96.5632 68.736-163.7888 155.648-163.7888 86.9376 0 150.5536 67.2 155.5968 163.7376 2.2784 5.6064 3.584 11.7504 3.7376 17.9712 5.632 10.7008 8.704 22.9376 8.9856 35.6352 17.7664 12.9536 33.6128 40.704 43.3664 64.8448 13.184 32.512 27.904 91.6736-.4608 107.0848-11.4944 6.2976-25.9328 2.5088-39.7312-11.1872-4.992 10.0608-11.2384 19.456-18.56 27.9808 15.2064 10.3168 23.6288 23.8592 23.6288 38.784 0 32.7424-40.2688 57.4464-93.6704 57.4464zm-98.5088-65.152h31.0528l3.1232 10.3424c3.7376 12.3904 29.3632 25.7536 64.3328 25.7536 39.424 0 64.5888-16.8192 64.5888-28.3904 0-7.296-9.3952-15.6928-23.9616-21.4272l-21.9904-8.6784 17.6384-15.6928c17.3312-15.4624 28.8768-34.0224 33.408-53.7344l7.7312-33.664 18.6624 29.1072c8.704 13.4912 15.4624 19.456 18.9184 21.5552 1.8176-6.9632 1.664-32.5632-13.1328-69.1968-13.1584-32.5376-29.3376-51.2256-36.6592-54.0928l-10.1888-4.0448 1.1008-10.9056a51.1744 51.1744 0 0 0 -6.7328-31.2064l-2.5856-4.2496.5376-4.9152a22.2464 22.2464 0 0 0 -2.1248-10.1888l-1.3312-2.7392-.128-3.0464c-2.7648-69.0176-43.0336-138.6496-126.6944-138.6496s-123.9296 69.632-126.7456 138.6752l-.128 2.944-1.2544 2.6624a23.04 23.04 0 0 0 -2.1504 9.8304l.4352 4.736-2.432 4.9408a51.328 51.328 0 0 0 -6.9376 26.3936c0 1.7664.1024 3.5328.2304 5.248l.7936 10.6752-9.984 3.9424c-7.3216 2.8672-23.4752 21.504-36.6336 53.9648-14.1312 35.328-14.8224 60.3904-12.5184 68.9408 3.3792-2.304 10.0352-8.2944 18.3552-21.2992l18.6112-29.0304 7.7824 33.6128c4.5824 19.8144 16.128 38.4256 33.408 53.7344l17.8176 15.7696-22.1952 8.6272c-14.4896 5.6576-23.9104 14.0544-23.9104 21.4272 0 11.5712 25.1648 28.3648 64.6144 28.3648 35.0208 0 60.5696-13.312 64.1792-25.6512l3.0976-10.4448zm0 0" fill="#070102"/></svg>