<svg viewBox="0 0 1024 1024" xmlns="http://www.w3.org/2000/svg"><path d="m854.656 483.2c3.2-35.2 0-60.8 0-67.2-9.6-32-28.8-25.6-28.8-32 0-179.2-140.8-323.2-313.6-323.2s-313.6 147.2-313.6 326.4c0 12.8-12.8 3.2-25.6 32-6.4 12.8 3.2 19.2 0 67.2 0 12.8-57.6 70.4-80 128s-25.6 118.4 9.6 144c19.2 12.8 35.2-9.6 48-32 12.8-19.2 19.2-41.6 22.4-32 3.2 6.4 3.2 12.8 6.4 19.2 9.6 28.8 28.8 60.8 57.6 89.6 6.4 6.4-32 16-57.6 54.4-22.4 38.4 6.4 105.6 121.6 105.6 147.2 0 182.4-51.2 185.6-48h44.8c3.2 0 19.2 12.8 48 25.6 32 16 76.8 28.8 131.2 25.6 169.6-16 144-70.4 131.2-105.6s-64-51.2-60.8-54.4c41.6-41.6 48-70.4 60.8-108.8 3.2-6.4 12.8 12.8 25.6 32 16 22.4 32 44.8 48 32 12.8-9.6 38.4-51.2 12.8-144-25.6-96-73.6-115.2-73.6-134.4z" fill="#333"/></svg>