<svg xmlns="http://www.w3.org/2000/svg" viewBox="0 0 1024 1024" version="1.1"><path d="M118.4768 491.60192h373.12512V118.4768H118.4768v373.12512zM211.7632 211.7632h186.5728v186.5728h-186.5728v-186.5728z m326.47168-93.2864v373.12512H911.36V118.4768H538.23488zM818.05312 398.336h-186.53184v-186.5728h186.53184v186.5728z m-559.65696-46.65344h93.2864v-93.2864h-93.2864v93.2864zM118.4768 911.36h373.12512V538.23488H118.4768V911.36z m93.2864-279.83872h186.5728v186.53184h-186.5728v-186.53184z m559.67744-373.12512h-93.30688v93.2864h93.30688v-93.2864zM538.23488 911.36h93.2864v-93.30688h-93.2864V911.36z m93.2864-279.83872v186.53184h93.2864v-186.53184h-93.2864z m186.53184 186.53184H724.7872V911.36h186.5728v-186.55232h-93.30688v93.24544z m0-186.53184H911.36v-93.2864h-93.30688v93.2864z m-279.81824-93.2864v93.2864h93.2864v-93.2864h-93.2864zM258.39616 771.44064h93.2864v-93.30688h-93.2864v93.30688z m0 0" fill="" p-id="10326"></path></svg>