<svg height="512" viewBox="0 0 1024 1024" width="512" xmlns="http://www.w3.org/2000/svg"><path d="m941.00593778 584.90273185v-160.32047407c21.83319703-17.57335703 19.63652741-52.63511703-5.84969481-66.82244741l-404.95179852-225.44384a40.50367525 40.50367525 0 0 0 -39.40655408 0l-404.93966222 225.44384c-27.12462222 15.10968889-27.87707259 53.86088297-1.3349926 69.99002074l126.63011556 76.99266371v252.45923555c-.72817778 39.05460148 31.80923259 75.0508563 91.61690074 101.42302815 55.80269037 24.61240889 129.57923555 38.16865185 207.74912 38.16865185s151.94642963-13.55624297 207.7369837-38.16865185c58.26635852-25.70467555 90.80376889-60.76643555 91.62903704-98.72877037v-255.16562963l94.7116563-57.58672593v137.74696296c-10.72848592 6.26232889-17.92530963 17.88890075-17.92530964 31.21455408 0 19.95207111 16.17768297 36.12975408 36.12975408 36.12975407s36.12975408-16.17768297 36.12975408-36.12975407c.0121363-13.31351703-7.1968237-24.94008889-17.92530963-31.20241778zm-169.26492445 174.77480297c-.67963259 27.19744-26.44498963 53.37543111-72.55077925 73.7158637-49.74667852 21.9424237-116.75117037 34.03017482-188.67086223 34.03017481-71.91969185 0-138.9241837-12.08775111-188.67086222-34.03017481-47.33155555-20.87442963-73.09691259-47.78059852-72.55077926-75.75476149v-229.70368l240.17730371 146.02391705a40.46969363 40.46969363 0 0 0 42.07653925 0l240.18944-146.03605333zm92.3936237-330.53202964-332.5830637 202.2028326a40.46969363 40.46969363 0 0 1 -42.07653925 0l-332.5952-202.2028326c-26.5299437-16.12913778-25.78962963-54.89246815 1.33499259-69.99002073l332.5830637-185.1513363a40.50367525 40.50367525 0 0 1 39.40655408 0l332.5830637 185.1513363c27.13675852 15.09755259 27.87707259 53.84874667 1.34712888 69.99002073z" fill="#707070"/></svg>