<?xml version="1.0" standalone="no"?><!DOCTYPE svg PUBLIC "-//W3C//DTD SVG 1.1//EN" "http://www.w3.org/Graphics/SVG/1.1/DTD/svg11.dtd"><svg t="1614589582582" class="icon" viewBox="0 0 1024 1024" version="1.1" xmlns="http://www.w3.org/2000/svg" p-id="26975" width="512" height="512" xmlns:xlink="http://www.w3.org/1999/xlink"><defs><style type="text/css"></style></defs><path d="M658.433 125c16.27 0 29.504 13.01 29.878 29.203l0.009 0.706-0.001 80.523h186.217c44.44 0 80.464 36.052 80.464 80.524v411.821c0 44.472-36.025 80.524-80.464 80.524H658.324l122.762 111.657 0.564 0.526c11.676 11.173 12.38 29.69 1.451 41.723-11.101 12.224-30.003 13.127-42.218 2.017L569.454 808.301H447.643L276.215 964.224c-12.215 11.11-31.117 10.207-42.218-2.017-10.928-12.033-10.225-30.55 1.45-41.723l0.565-0.526L358.773 808.3h-215.31C99.026 808.301 63 772.25 63 727.777v-411.82c0-44.473 36.025-80.524 80.464-80.524l186.216-0.001v-80.523l0.009-0.706C330.063 138.01 343.297 125 359.567 125c16.506 0 29.887 13.39 29.887 29.909l-0.001 80.523h239.093v-80.523c0-16.518 13.381-29.909 29.887-29.909z m216.103 170.25H143.464c-11.223 0-20.36 8.942-20.682 20.096l-0.009 0.61v411.821c0 11.232 8.936 20.375 20.08 20.698l0.61 0.009h731.073c11.223 0 20.36-8.943 20.682-20.096l0.009-0.61V315.955c0-11.231-8.936-20.374-20.08-20.697l-0.61-0.009zM751.543 583.985c16.506 0 29.887 13.39 29.887 29.909 0 16.282-13.001 29.525-29.181 29.9l-0.706 0.009H267.608c-16.506 0-29.886-13.39-29.886-29.91 0-16.281 13-29.525 29.18-29.9l0.706-0.008h483.935z m0-184.054c16.506 0 29.887 13.39 29.887 29.909 0 16.282-13.001 29.525-29.181 29.9l-0.706 0.009H267.608c-16.506 0-29.886-13.391-29.886-29.91 0-16.281 13-29.525 29.18-29.9l0.706-0.008h483.935z" fill="#333333" p-id="26976"></path></svg>