<svg xmlns="http://www.w3.org/2000/svg" viewBox="0 0 1024 1024" version="1.1"><path d="M858.112 754.23744l-145.44896-98.816A290.304 290.304 0 0 0 750.55104 512c0-161.19808-131.13344-292.33152-292.33152-292.33152S165.888 350.80192 165.888 512c0 161.19808 131.13344 292.33152 292.33152 292.33152 94.39232 0 178.25792-45.17888 231.7312-114.81088l145.12128 98.59072 23.04-33.87392z m-399.89248 9.13408C319.5904 763.37152 206.848 650.60864 206.848 512c0-138.60864 112.76288-251.37152 251.37152-251.37152S709.59104 373.39136 709.59104 512c0 138.60864-112.7424 251.37152-251.37152 251.37152z" fill="" p-id="4177"></path></svg>