<svg viewBox="0 0 1024 1024" xmlns="http://www.w3.org/2000/svg"><path d="m264.41728 288.68608c0-33.28 28.01664-66.80576 90.624-66.80576h321.45408c62.60736 0 90.60352 33.60768 90.60352 66.80576v433.11104h-502.6816z"/><path d="m849.94048 746.61888c0 20.7872-5.26336 31.29344-15.60576 31.29344h-62.62784v29.83936c-.08192 3.85024-1.6384 12.9024-14.21312 12.9024h-483.47136c-12.57472 0-14.1312-9.03168-14.21312-12.82048v-29.81888h-62.60736c-10.36288 0-15.62624-10.5472-15.62624-31.31392v-386.84672c0-15.95392 5.4272-18.49344 18.49344-18.49344h48.98816v395.89888h533.58592v-395.89888h48.90624c13.06624 0 18.47296 2.53952 18.47296 18.49344z"/></svg>