<?xml version="1.0" standalone="no"?><!DOCTYPE svg PUBLIC "-//W3C//DTD SVG 1.1//EN" "http://www.w3.org/Graphics/SVG/1.1/DTD/svg11.dtd"><svg t="1614662317823" class="icon" viewBox="0 0 1024 1024" version="1.1" xmlns="http://www.w3.org/2000/svg" p-id="13418" width="512" height="512" xmlns:xlink="http://www.w3.org/1999/xlink"><defs><style type="text/css"></style></defs><path d="M307.8328216841482 898.142273536l99.86438060562962-102.08358976474075h317.34681023525917c33.288126464 0 62.13783703703704-26.630501413925924 62.13783703703704-62.13783703703704V305.61361252503707c0-33.288126464-26.630501413925924-62.13783703703704-62.13783703703704-62.13783703703704H141.39218572325922c-33.288126464 0-62.13783703703704 26.630501413925924-62.13783703703704 62.13783703703704v430.52644215466665c0 33.288126464 26.630501413925924 62.13783703703704 62.13783703703704 62.13783703703704h144.24855043792593c13.315251313777777 0 22.19208430933333-8.876834209185184 22.19208552296296-22.19208430933333s-8.876834209185184-22.19208430933333-22.19208552296296-22.19208430933333h-144.24855043792593c-8.876834209185184 0-17.75366720474074-6.657625050074073-17.75366720474074-17.753668418370367V305.61361252503707c0-8.876834209185184 6.657625050074073-17.75366720474074 17.75366720474074-17.75366720474074h583.6518268017777c8.876834209185184 0 17.75366720474074 6.657625050074073 17.753668418370367 17.75366720474074v430.52644215466665c0 8.876834209185184-6.657625050074073 17.75366720474074-17.753668418370367 17.753668418370367H398.82036808059263c-6.657625050074073 0-11.096042154666666 2.2192079454814815-15.53445925925926 6.657625050074073L276.7639031656296 867.0733550174814c-8.876834209185184 8.876834209185184-8.876834209185184 22.19208430933333 0 31.06891851851852 4.438417104592592 4.438417104592592 8.876834209185184 6.657625050074073 15.53445925925926 6.657625050074073 6.657625050074073 0 11.096042154666666-2.2192079454814815 15.53445925925926-6.657625050074073z" fill="" p-id="13419"></path><path d="M867.0733550174814 141.39218572325922H283.4215282157038c-13.315251313777777 0-22.19208430933333 8.876834209185184-22.19208430933333 22.19208552296296s8.876834209185184 22.19208430933333 22.19208430933333 22.19208430933333H867.0733550174814c8.876834209185184 0 17.75366720474074 6.657625050074073 17.75366720474074 17.75366720474074v430.52644336829627c0 13.315251313777777 8.876834209185184 22.19208430933333 22.19208430933333 22.19208430933333s22.19208430933333-8.876834209185184 22.19208552296296-22.19208430933333V201.31081481481482c-2.2192079454814815-33.288126464-28.849710573037036-59.91862909155555-62.13783703703704-59.91862909155555z" fill="" p-id="13420"></path></svg>