<svg xmlns="http://www.w3.org/2000/svg" viewBox="0 0 1024 1024" version="1.1"><path d="M871.497143 279.881143c0-36.278857-29.074286-65.28-65.28-65.28H240.457143c-36.242286 0-65.28 29.001143-65.28 65.28v478.646857c0 36.315429 29.001143 65.316571 65.28 65.316571h565.76c36.205714 0 65.28-29.001143 65.28-65.316571V279.881143z m-43.483429 478.646857c0 11.629714-10.24 21.796571-21.796571 21.796571H240.457143a22.308571 22.308571 0 0 1-21.76-21.796571V279.881143a22.308571 22.308571 0 0 1 21.76-21.76h565.76c11.52 0 21.796571 10.166857 21.796571 21.76v478.646857z m0 0" fill="#101010" p-id="10515"></path><path d="M806.217143 828.086857H240.457143c-38.326857 0-69.485714-31.195429-69.485714-69.522286V279.881143c0-38.326857 31.158857-69.485714 69.485714-69.485714h565.76c38.290286 0 69.485714 31.195429 69.485714 69.485714v478.646857a69.595429 69.595429 0 0 1-69.485714 69.558857zM240.457143 218.843429c-33.645714 0-61.037714 27.392-61.037714 61.037714v478.646857c0 33.718857 27.392 61.110857 61.037714 61.110857h565.76c33.609143 0 61.037714-27.392 61.037714-61.110857V279.881143c0-33.645714-27.428571-61.037714-61.037714-61.037714H240.457143z m565.76 565.723428H240.457143a26.697143 26.697143 0 0 1-25.965714-26.038857V279.881143c0-13.824 12.141714-25.965714 25.965714-25.965714h565.76c13.824 0 25.929143 12.141714 25.929143 25.965714v478.646857a26.697143 26.697143 0 0 1-25.929143 26.038857zM240.457143 262.326857a17.993143 17.993143 0 0 0-17.517714 17.554286v478.646857c0 9.398857 8.192 17.554286 17.517714 17.554286h565.76a18.029714 18.029714 0 0 0 17.517714-17.554286V279.881143a18.029714 18.029714 0 0 0-17.517714-17.554286H240.457143z" fill="#101010" p-id="10516"></path><path d="M640.841143 480.073143l-174.08-91.392c-11.629714-5.814857-27.574857-5.814857-39.168 1.462857-11.593143 7.241143-20.297143 18.834286-20.297143 30.464v203.081143c0 13.056 10.166857 26.075429 21.76 31.890286 5.778286 2.889143 13.056 4.388571 18.834286 4.388571a33.645714 33.645714 0 0 0 20.333714-5.814857l174.08-110.226286a36.498286 36.498286 0 0 0 17.408-31.963428c-0.036571-13.056-7.277714-26.075429-18.870857-31.890286z m-190.025143 129.060571v-176.932571l152.32 79.762286-152.32 97.170285z m0 0" fill="#0D0D0E" p-id="10517"></path><path d="M447.890286 664.137143c-6.985143 0-14.738286-1.792-20.699429-4.754286-11.995429-5.997714-24.137143-20.187429-24.137143-35.730286V420.571429c0-12.397714 8.557714-25.453714 22.308572-34.048 6.546286-4.059429 14.482286-6.253714 22.966857-6.253715 7.241143 0 14.262857 1.572571 20.297143 4.608l174.189714 91.428572c12.580571 6.290286 21.101714 20.626286 21.101714 35.657143 0 15.104-6.912 27.684571-19.382857 35.510857l-174.08 110.189714c-5.595429 4.278857-13.275429 6.473143-22.564571 6.473143z m0.438857-275.419429a34.596571 34.596571 0 0 0-18.505143 4.973715c-11.117714 6.948571-18.322286 17.517714-18.322286 26.88v203.081142c0 10.496 8.338286 22.601143 19.419429 28.123429 4.827429 2.413714 11.337143 3.913143 16.969143 3.913143 7.424 0 13.421714-1.645714 17.773714-4.937143l174.336-110.445714a32.402286 32.402286 0 0 0 15.469714-28.379429c0-11.885714-6.656-23.186286-16.493714-28.123428l-174.153143-91.428572c-4.754286-2.340571-10.642286-3.657143-16.493714-3.657143z m-1.755429 228.132572v-191.634286l164.937143 86.418286-164.937143 105.216z m8.448-177.664v162.304l139.702857-89.161143-139.702857-73.142857z" fill="#0D0D0E" p-id="10518"></path></svg>