<svg xmlns="http://www.w3.org/2000/svg" viewBox="0 0 1024 1024" version="1.1"><path d="M819.36384 610.48832a297.86112 297.86112 0 0 1-93.34784 153.57952 300.6464 300.6464 0 0 1-113.74592 63.11936c-19.43552 5.59104-39.36256 9.25696-59.4944 10.97728a293.74464 293.74464 0 0 1-90.29632-4.32128 302.98112 302.98112 0 0 1-83.78368-30.96576 318.2592 318.2592 0 0 1-71.63904-54.0672 275.98848 275.98848 0 0 1-60.78464-91.17696 420.59776 420.59776 0 0 1-26.48064-116.16256v-9.95328c1.7408-14.62272 2.60096-29.51168 5.632-43.80672 4.36224-23.40864 10.752-46.40768 19.10784-68.68992a265.8304 265.8304 0 0 1 66.8672-96.17408c12.14464 10.6496 24.73984 21.72928 38.64576 33.34144a250.81856 250.81856 0 0 0-27.3408 331.28448 252.39552 252.39552 0 0 0 449.37216-201.95328 247.07072 247.07072 0 0 0-221.45024-198.71744v71.82336h-51.22048v-126.68928h30.39232c3.91168 0.73728 7.80288 1.61792 11.73504 2.17088 19.08736 2.78528 38.17472 3.91168 56.85248 8.68352a294.5024 294.5024 0 0 1 153.72288 92.95872 297.96352 297.96352 0 0 1 74.21952 172.83072c3.2768 34.11968 0.98304 68.56704-6.9632 101.90848z m-276.992-121.15968a50.81088 50.81088 0 0 1 26.0096 72.192 50.09408 50.09408 0 0 1-76.86144 12.75904 75.01824 75.01824 0 0 1-13.86496-18.49344c-4.77184-7.9872-7.82336-16.9984-12.61568-24.7808-31.70304-48.128-63.42656-96.256-95.06816-144.40448a54.6816 54.6816 0 0 1-4.34176-7.51616c0.43008-0.55296 1.29024-1.1264 1.72032-1.69984 30.39232 20.13184 61.21472 40.28416 92.03712 60.43648 22.60992 14.99136 45.60896 30.06464 68.17792 44.89216 4.75136 2.6624 9.68704 4.85376 14.80704 6.61504z m0 0" fill="#333333" p-id="11778"></path></svg>