<svg xmlns="http://www.w3.org/2000/svg" viewBox="0 0 1024 1024" version="1.1"><path d="M489.90208 246.66112c-158.80192 0-287.45728 128.7168-287.45728 287.4368 0 158.8224 128.73728 287.45728 287.45728 287.45728 158.80192 0 287.4368-128.7168 287.4368-287.45728H489.90208V246.66112z m239.22688 331.75552c-20.86912 113.07008-120.19712 199.00416-239.22688 199.00416-134.16448 0-243.22048-109.1584-243.22048-243.22048 0-119.05024 85.93408-218.37824 199.00416-239.24736v283.46368h283.4432zM534.09792 202.4448v287.45728h287.45728c0.06144-158.74048-128.63488-287.45728-287.45728-287.45728z m44.21632 48.20992a243.87584 243.87584 0 0 1 195.01056 195.01056h-195.01056v-195.01056z m0 0" p-id="11902"></path></svg>