<svg viewBox="0 0 1024 1024" xmlns="http://www.w3.org/2000/svg"><path d="m512 941.860571c-237.041371 0-429.8752-192.833828-429.8752-429.860571 0-237.041371 192.833829-429.8752 429.8752-429.8752 237.026743 0 429.8752 192.848457 429.8752 429.8752s-192.848457 429.860571-429.8752 429.860571zm0-807.087542c-208.003657 0-377.212343 169.223314-377.212343 377.226971s169.208686 377.212343 377.212343 377.212343 377.212343-169.208686 377.212343-377.212343-169.208686-377.226971-377.212343-377.226971z"/><path d="m360.769829 773.778286a42.773943 42.773943 0 0 1 -25.263543-8.148115 43.476114 43.476114 0 0 1 -16.4864-46.314057l42.861714-157.257143-128.6144-100.132571a42.949486 42.949486 0 0 1 -14.189714-48.303543 43.008 43.008 0 0 1 40.725943-28.906057h155.735771l56.378514-141.019429c6.319543-15.857371 22.030629-26.126629 40.023772-26.126628 17.934629 0 33.645714 10.196114 40.053028 25.994971l56.407772 141.136457h155.735771c18.519771 0 34.947657 11.776 40.872229 29.301029a42.934857 42.934857 0 0 1 -14.277486 47.864686l-128.658286 100.074057 42.832457 157.227886a43.154286 43.154286 0 0 1 -16.764342 46.548114 43.9296 43.9296 0 0 1 -48.683886.804571l-127.458743-84.948114-127.341714 84.948114a42.744686 42.744686 0 0 1 -23.888457 7.255772zm-73.303772-336.398629 134.436572 104.682057-45.392458 166.6048 135.460572-90.375314 135.489828 90.287543-45.392457-166.634057 134.421943-104.565029h-163.7376l-60.752457-152.049371-60.767086 152.049371z"/></svg>