<svg viewBox="0 0 1024 1024" xmlns="http://www.w3.org/2000/svg"><path d="m512 108.251429c-222.983314 0-403.748571 180.765257-403.748571 403.748571 0 67.3792 16.544914 132.432457 47.733028 190.551771 3.3792 6.3488 10.210743 18.197943 20.626286 35.883886l-26.916572 98.684343c-6.158629 22.601143 14.570057 43.344457 37.185829 37.1712l98.772114-26.945829c10.181486 5.9392 16.544914 9.654857 18.987886 11.146972a402.212571 402.212571 0 0 0 207.36 57.256228c222.968686 0 403.748571-180.765257 403.748571-403.748571s-180.779885-403.748571-403.748571-403.748571zm0 754.234514a348.628114 348.628114 0 0 1 -179.960686-49.664 5212.013714 5212.013714 0 0 0 -31.275885-18.314972 30.997943 30.997943 0 0 0 -23.698286-3.115885l-61.191314 16.6912 16.705828-61.176686a30.983314 30.983314 0 0 0 -3.247543-23.888457c-13.955657-23.566629-22.864457-38.970514-26.448457-45.655772a348.437943 348.437943 0 0 1 -41.398857-165.376c0-193.579886 156.935314-350.500571 350.500571-350.500571s350.500572 156.935314 350.500572 350.5152-156.920686 350.485943-350.485943 350.485943z"/><path d="m291.664457 526.628571a42.057143 42.057143 0 1 0 84.114286 0 42.057143 42.057143 0 1 0 -84.114286 0z"/><path d="m469.942857 526.628571a42.057143 42.057143 0 1 0 84.114286 0 42.057143 42.057143 0 1 0 -84.114286 0z"/><path d="m648.235886 526.628571a42.057143 42.057143 0 1 0 84.114285 0 42.057143 42.057143 0 1 0 -84.114285 0z"/></svg>