<svg viewBox="0 0 1024 1024" xmlns="http://www.w3.org/2000/svg"><path d="m759.88992 264.25344a348.32384 348.32384 0 0 0 -247.808-102.56384c-93.5936 0-181.57568 36.43392-247.74656 102.58432a347.9552 347.9552 0 0 0 -102.64576 247.72608 347.97568 347.97568 0 0 0 102.58432 247.76704 348.2624 348.2624 0 0 0 247.72608 102.52288c93.63456 0 181.63712-36.43392 247.88992-102.6048 136.54016-136.56064 136.58112-358.8096 0-495.43168zm-32.33792 463.1552a302.83776 302.83776 0 0 1 -215.552 89.27232 302.8992 302.8992 0 0 1 -215.4496-89.23136 302.57152 302.57152 0 0 1 -89.1904-215.4496c0-81.408 31.70304-157.92128 89.25184-215.4496a302.73536 302.73536 0 0 1 215.47008-89.1904c81.408 0 157.92128 31.66208 215.49056 89.1904 118.784 118.784 118.784 312.09472-.02048 430.85824zm-64.08192-129.57696-121.11872-70.02112v-190.95552a29.22496 29.22496 0 0 0 -58.40896 0v204.32896c0 10.81344 13.47584 19.92704 22.2208 24.94464 2.43712 3.64544 9.09312 6.9632 13.14816 9.27744l120.46336 72.97024c13.9264 8.0896 29.04064 3.2768 37.13024-10.6496 8.04864-13.98784.57344-31.82592-13.43488-39.89504zm0 0"/></svg>