<svg xmlns="http://www.w3.org/2000/svg" viewBox="0 0 1024 1024" version="1.1"><path d="M829.403429 202.496H194.596571c-20.443429 0-37.010286 17.078857-37.010285 38.070857v548.242286c0 20.955429 16.566857 38.107429 37.010285 38.107428h634.770286c20.406857 0 36.973714-17.152 36.973714-38.107428V240.566857c0-20.992-16.566857-38.070857-36.937142-38.070857z m-7.570286 44.580571v347.172572l-86.016-84.955429a22.272 22.272 0 0 0-31.305143 0l-115.675429 114.358857-149.174857-188.928a22.162286 22.162286 0 0 0-34.925714-0.036571L202.166857 689.737143V247.076571h619.666286zM202.166857 782.372571v-23.515428a22.308571 22.308571 0 0 0 6.290286-5.412572l213.650286-268.982857 212.333714 268.946286a22.272 22.272 0 0 0 34.962286-27.574857l-52.772572-66.925714 103.533714-102.436572 98.486858 97.316572c0.987429 0.950857 2.084571 1.828571 3.181714 2.56v125.988571H202.166857z m0 0" p-id="10709"></path><path d="M829.403429 829.878857H194.596571c-22.089143 0-40.009143-18.432-40.009142-41.069714V240.566857c0-22.637714 17.956571-41.106286 40.009142-41.106286h634.770286c22.089143 0 40.045714 18.432 40.045714 41.106286v548.242286c0 22.637714-17.956571 41.069714-40.009142 41.069714zM194.596571 205.568c-18.724571 0-33.974857 15.725714-33.974857 35.035429V788.845714c0 19.273143 15.250286 35.035429 33.974857 35.035429h634.770286c18.724571 0 33.974857-15.762286 33.974857-35.035429V240.566857c0-19.309714-15.250286-35.035429-33.974857-35.035428H194.596571z m630.272 579.803429H199.168v-28.196572l1.499429-0.914286a18.980571 18.980571 0 0 0 5.449142-4.644571l216.027429-272.018286 214.710857 271.945143a19.163429 19.163429 0 0 0 27.026286 3.218286 19.053714 19.053714 0 0 0 7.204571-12.909714 19.053714 19.053714 0 0 0-4.022857-14.153143l-54.491428-69.083429 107.593142-106.386286 100.644572 99.401143a19.492571 19.492571 0 0 0 2.706286 2.230857l1.353142 0.914286v130.596572z m-619.666285-6.070858h613.595428V657.92a37.449143 37.449143 0 0 1-2.230857-1.974857l-96.438857-95.232-99.474286 98.377143 51.126857 64.804571a25.161143 25.161143 0 0 1-4.205714 35.510857 25.161143 25.161143 0 0 1-35.547428-4.205714l-209.956572-265.910857-211.273143 266.020571a25.307429 25.307429 0 0 1-5.632 5.193143v18.797714z m-6.034286-80.896V244.041143h625.700571v357.449143l-91.136-90.038857a19.748571 19.748571 0 0 0-27.062857 0l-118.089143 116.772571-151.296-191.597714a19.2 19.2 0 0 0-30.208-0.036572l-207.908571 261.814857z m6.034286-448.329142v430.957714l197.156571-248.210286a25.307429 25.307429 0 0 1 39.68 0.036572l147.053714 186.294857 113.261715-112.018286a25.380571 25.380571 0 0 1 35.584 0l80.822857 79.872V250.075429H205.202286z" fill="#0A090A" p-id="10710"></path><path d="M707.657143 473.636571a96.877714 96.877714 0 0 0 96.768-96.768 96.841143 96.841143 0 0 0-96.768-96.768 96.877714 96.877714 0 0 0-96.768 96.768 96.877714 96.877714 0 0 0 96.768 96.768z m0-148.992c28.781714 0 52.224 23.405714 52.224 52.187429a52.260571 52.260571 0 0 1-104.448 0c0-28.781714 23.405714-52.187429 52.224-52.187429z m0 0" p-id="10711"></path><path d="M707.657143 476.635429a99.913143 99.913143 0 0 1-99.803429-99.803429 99.949714 99.949714 0 0 1 99.803429-99.803429 99.949714 99.949714 0 0 1 99.803428 99.803429 99.949714 99.949714 0 0 1-99.803428 99.803429z m0-193.536c-51.712 0-93.732571 42.057143-93.732572 93.732571s42.020571 93.732571 93.732572 93.732571 93.732571-42.057143 93.732571-93.732571-42.020571-93.732571-93.732571-93.732571z m0 148.992a55.332571 55.332571 0 0 1-55.296-55.259429 55.296 55.296 0 1 1 55.296 55.259429z m0-104.448c-27.136 0-49.225143 22.089143-49.225143 49.188571 0 27.136 22.089143 49.188571 49.225143 49.188571 27.099429 0 49.188571-22.089143 49.188571-49.188571a49.298286 49.298286 0 0 0-49.188571-49.188571z" fill="#0A090A" p-id="10712"></path></svg>