<svg viewBox="0 0 1024 1024" xmlns="http://www.w3.org/2000/svg"><path d="m829.403429 202.496h-634.806858c-20.443429 0-37.010286 17.078857-37.010285 38.070857v548.242286c0 20.955429 16.566857 38.107429 37.010285 38.107428h634.770286c20.406857 0 36.973714-17.152 36.973714-38.107428v-548.242286c0-20.992-16.566857-38.070857-36.937142-38.070857zm-7.570286 44.580571v347.172572l-86.016-84.955429a22.272 22.272 0 0 0 -31.305143 0l-115.675429 114.358857-149.174857-188.928a22.162286 22.162286 0 0 0 -34.925714-.036571l-202.569143 255.049143v-442.660572zm-619.666286 535.296v-23.515428a22.308571 22.308571 0 0 0 6.290286-5.412572l213.650286-268.982857 212.333714 268.946286a22.272 22.272 0 0 0 34.962286-27.574857l-52.772572-66.925714 103.533714-102.436572 98.486858 97.316572c.987429.950857 2.084571 1.828571 3.181714 2.56v125.988571h-619.666286zm0 0"/><path d="m829.403429 829.878857h-634.806858c-22.089143 0-40.009143-18.432-40.009142-41.069714v-548.242286c0-22.637714 17.956571-41.106286 40.009142-41.106286h634.770286c22.089143 0 40.045714 18.432 40.045714 41.106286v548.242286c0 22.637714-17.956571 41.069714-40.009142 41.069714zm-634.806858-624.310857c-18.724571 0-33.974857 15.725714-33.974857 35.035429v548.242285c0 19.273143 15.250286 35.035429 33.974857 35.035429h634.770286c18.724571 0 33.974857-15.762286 33.974857-35.035429v-548.278857c0-19.309714-15.250286-35.035429-33.974857-35.035428h-634.770286zm630.272 579.803429h-625.700571v-28.196572l1.499429-.914286a18.980571 18.980571 0 0 0 5.449142-4.644571l216.027429-272.018286 214.710857 271.945143a19.163429 19.163429 0 0 0 27.026286 3.218286 19.053714 19.053714 0 0 0 7.204571-12.909714 19.053714 19.053714 0 0 0 -4.022857-14.153143l-54.491428-69.083429 107.593142-106.386286 100.644572 99.401143a19.492571 19.492571 0 0 0 2.706286 2.230857l1.353142.914286zm-619.666285-6.070858h613.595428v-121.380571a37.449143 37.449143 0 0 1 -2.230857-1.974857l-96.438857-95.232-99.474286 98.377143 51.126857 64.804571a25.161143 25.161143 0 0 1 -4.205714 35.510857 25.161143 25.161143 0 0 1 -35.547428-4.205714l-209.956572-265.910857-211.273143 266.020571a25.307429 25.307429 0 0 1 -5.632 5.193143v18.797714zm-6.034286-80.896v-454.363428h625.700571v357.449143l-91.136-90.038857a19.748571 19.748571 0 0 0 -27.062857 0l-118.089143 116.772571-151.296-191.597714a19.2 19.2 0 0 0 -30.208-.036572zm6.034286-448.329142v430.957714l197.156571-248.210286a25.307429 25.307429 0 0 1 39.68.036572l147.053714 186.294857 113.261715-112.018286a25.380571 25.380571 0 0 1 35.584 0l80.822857 79.872v-336.932571z" fill="#0a090a"/><path d="m707.657143 473.636571a96.877714 96.877714 0 0 0 96.768-96.768 96.841143 96.841143 0 0 0 -96.768-96.768 96.877714 96.877714 0 0 0 -96.768 96.768 96.877714 96.877714 0 0 0 96.768 96.768zm0-148.992c28.781714 0 52.224 23.405714 52.224 52.187429a52.260571 52.260571 0 0 1 -104.448 0c0-28.781714 23.405714-52.187429 52.224-52.187429zm0 0"/><path d="m707.657143 476.635429a99.913143 99.913143 0 0 1 -99.803429-99.803429 99.949714 99.949714 0 0 1 99.803429-99.803429 99.949714 99.949714 0 0 1 99.803428 99.803429 99.949714 99.949714 0 0 1 -99.803428 99.803429zm0-193.536c-51.712 0-93.732571 42.057143-93.732572 93.732571s42.020571 93.732571 93.732572 93.732571 93.732571-42.057143 93.732571-93.732571-42.020571-93.732571-93.732571-93.732571zm0 148.992a55.332571 55.332571 0 0 1 -55.296-55.259429 55.296 55.296 0 1 1 55.296 55.259429zm0-104.448c-27.136 0-49.225143 22.089143-49.225143 49.188571 0 27.136 22.089143 49.188571 49.225143 49.188571 27.099429 0 49.188571-22.089143 49.188571-49.188571a49.298286 49.298286 0 0 0 -49.188571-49.188571z" fill="#0a090a"/></svg>