<svg viewBox="0 0 1024 1024" xmlns="http://www.w3.org/2000/svg"><path d="m535.186286 300.544a38.509714 38.509714 0 0 0 57.746285 33.462857 38.4 38.4 0 0 0 19.126858-33.462857 38.4 38.4 0 1 0 -76.873143 0zm0 0"/><path d="m573.659429 341.906286a41.106286 41.106286 0 0 1 -41.179429-41.362286 41.216 41.216 0 0 1 20.553143-35.803429 41.764571 41.764571 0 0 1 41.289143 0c12.763429 7.387429 20.589714 21.101714 20.553143 35.84a41.216 41.216 0 0 1 -41.216 41.325715zm0-77.275429a35.84 35.84 0 0 0 -35.693715 35.876572 35.913143 35.913143 0 0 0 17.810286 31.085714 36.205714 36.205714 0 0 0 35.803429 0 35.913143 35.913143 0 0 0 -17.92-66.962286z" fill="#1d1d1d"/><path d="m765.878857 165.997714h-538.258286c-21.138286 0-38.436571 17.298286-38.436571 38.436572v615.131428c0 21.138286 17.298286 38.436571 38.436571 38.436572h538.258286c21.138286 0 38.436571-17.298286 38.436572-38.436572v-615.131428c0-21.174857-17.261714-38.436571-38.436572-38.436572zm0 653.568h-538.258286v-615.131428h538.258286zm0 0"/><path d="m765.878857 860.745143h-538.258286a41.216 41.216 0 0 1 -41.179428-41.179429v-615.131428c0-22.710857 18.468571-41.179429 41.179428-41.179429h538.258286c22.674286 0 41.179429 18.468571 41.179429 41.179429v615.131428c0 22.710857-18.468571 41.179429-41.179429 41.179429zm-538.258286-692.041143a35.730286 35.730286 0 0 0 -35.693714 35.730286v615.131428c0 19.675429 16.018286 35.693714 35.693714 35.693715h538.258286a35.730286 35.730286 0 0 0 35.693714-35.693715v-615.131428a35.766857 35.766857 0 0 0 -35.693714-35.730286zm541.001143 653.604571h-543.744v-620.617142h543.744zm-538.258285-5.485714h532.772571v-609.645714h-532.772571z" fill="#1d1d1d"/><path d="m631.332571 415.890286-57.673142 76.909714-153.819429-153.782857-153.782857 230.692571h461.348571zm-365.275428 211.419428h269.092571v38.473143h-269.092571zm0 96.146286h461.348571v38.436571h-461.348571zm0 0"/><path d="m730.185143 764.635429h-466.870857v-43.922286h466.870857zm-461.348572-5.485715h455.862858v-32.950857h-455.862858zm269.092572-90.624h-274.614857v-43.922285h274.614857zm-269.092572-5.485714h263.643429v-32.950857h-263.643429zm463.542858-90.660571h-471.442286l158.464-237.714286 153.929143 153.929143 58.148571-77.568zm-461.165715-5.449143h451.254857l-91.355428-146.212572-57.161143 76.251429-153.636571-153.673143z" fill="#1d1d1d"/></svg>