<svg viewBox="0 0 1024 1024" xmlns="http://www.w3.org/2000/svg"><path d="m895.084936 940.42417h-763.239489v-848.427574h605.020596l158.229787 195.061106zm-704.708085-58.52051h646.144v-574.07183l-127.564255-157.282043h-518.579745zm0 0" fill="#231815"/><g fill="#020202"><path d="m431.670468 460.549447h-56.330894c0-107.541787 52.049702-160.441191 156.214469-158.752681 90.460596 3.431489 137.379404 47.812085 140.83268 133.152681 0 30.730894-21.373277 64.90417-64.021787 102.432681-40.970894 37.561191-61.450894 70.02417-61.450893 97.301787v23.04h-53.781788v-33.301787c0-32.397617 21.307915-69.141787 64.010894-110.101788 32.408511-32.408511 50.317617-58.890894 53.770894-79.381787-1.732085-46.090894-26.50417-71.701787-74.261788-76.821787-71.701787-3.387915-106.702979 30.730894-104.981787 102.432681zm115.232681 250.945362v61.47268h-53.792681v-61.47268zm0 0"/><path d="m553.243234 779.296681h-66.472851v-74.152851h66.472851zm-53.76-12.691064h41.090723v-48.781617h-41.090723zm53.76-102.541617h-66.472851v-39.641872c0-34.097021 22.201191-72.682213 65.971745-114.677107 30.861617-30.861617 48.324085-56.20017 51.799149-75.231319-1.819234-42.408851-24.227404-65.329021-68.57532-70.089532a207.545191 207.545191 0 0 0 -8.823829-.185191c-29.957447 0-52.550809 7.581957-67.159149 22.538893-15.370894 15.75217-22.76766 40.513362-21.972426 73.597277l.152511 6.503489h-69.174468v-6.350978c0-109.589787 53.095489-165.147234 157.783149-165.147234l4.869446.043574c94.055489 3.584 143.47983 50.41566 147.085618 139.242213 0 32.746213-22.277447 68.804085-66.189618 107.432851-39.293277 36.068766-59.283064 67.224511-59.283063 92.55217zm-53.76-12.68017h41.090723v-16.699915c0-29.42366 20.763234-62.790809 63.488-101.975149 41.145191-36.199489 61.973787-69.054638 61.973788-97.737532-3.322553-81.941787-47.387234-123.490043-134.721362-126.812596l-4.531745-.032681c-95.591489 0-143.08766 47.812085-145.026723 146.105192h43.530894c.23966-33.443404 8.856511-59.076085 25.643574-76.266213 18.715234-19.172766 47.463489-27.931234 86.048681-26.133787 51.537702 5.51217 78.444936 33.410723 80.296851 82.933106l.032681.642724-.130724.642723c-3.70383 22.070468-21.885277 49.152-55.535659 82.813277-41.286809 39.609191-62.158979 75.122383-62.158979 105.613617zm0 0"/></g></svg>