<svg viewBox="0 0 1024 1024" xmlns="http://www.w3.org/2000/svg"><path d="m659.638857 730.989714c-18.870857 0-34.340571-16.054857-34.340571-35.803428v-360.996572c0-19.712 15.506286-35.730286 34.340571-35.730285 18.834286 0 34.340571 16.018286 34.340572 35.730285v361.033143c.036571 19.638857-15.433143 35.766857-34.340572 35.766857zm144.201143-93.001143c-18.870857 0-34.304-16.054857-34.304-35.730285v-162.669715c0-19.675429 15.469714-35.730286 34.304-35.730285 18.907429 0 34.340571 16.018286 34.340571 35.730285v162.669715c.036571 19.602286-15.433143 35.730286-34.340571 35.730285zm-583.68 0c-18.870857 0-34.340571-16.128-34.340571-35.730285v-162.669715c0-19.675429 15.469714-35.730286 34.340571-35.730285s34.304 16.018286 34.304 35.730285v162.669715c1.755429 19.602286-13.714286 35.730286-34.304 35.730285zm145.883429 94.793143c-18.870857 0-34.340571-16.054857-34.340572-35.803428v-360.996572c0-19.712 15.469714-35.730286 34.340572-35.730285s34.340571 16.018286 34.340571 35.730285v361.033143c0 19.638857-15.396571 35.766857-34.340571 35.766857zm145.956571 105.435429c-18.834286 0-34.304-16.054857-34.304-35.803429v-580.864c0-19.675429 15.469714-35.766857 34.304-35.766857 18.907429 0 34.340571 16.054857 34.340571 35.766857v580.864c0 19.712-15.433143 35.803429-34.340571 35.803429zm0 0"/></svg>