<svg xmlns="http://www.w3.org/2000/svg" viewBox="0 0 1024 1024" version="1.1"><path d="M659.638857 730.989714c-18.870857 0-34.340571-16.054857-34.340571-35.803428V334.189714c0-19.712 15.506286-35.730286 34.340571-35.730285 18.834286 0 34.340571 16.018286 34.340572 35.730285v361.033143c0.036571 19.638857-15.433143 35.766857-34.340572 35.766857z m144.201143-93.001143c-18.870857 0-34.304-16.054857-34.304-35.730285V439.588571c0-19.675429 15.469714-35.730286 34.304-35.730285 18.907429 0 34.340571 16.018286 34.340571 35.730285v162.669715c0.036571 19.602286-15.433143 35.730286-34.340571 35.730285z m-583.68 0c-18.870857 0-34.340571-16.128-34.340571-35.730285V439.588571c0-19.675429 15.469714-35.730286 34.340571-35.730285s34.304 16.018286 34.304 35.730285v162.669715c1.755429 19.602286-13.714286 35.730286-34.304 35.730285z m145.883429 94.793143c-18.870857 0-34.340571-16.054857-34.340572-35.803428V335.981714c0-19.712 15.469714-35.730286 34.340572-35.730285s34.340571 16.018286 34.340571 35.730285v361.033143c0 19.638857-15.396571 35.766857-34.340571 35.766857zM512 838.217143c-18.834286 0-34.304-16.054857-34.304-35.803429V221.549714c0-19.675429 15.469714-35.766857 34.304-35.766857 18.907429 0 34.340571 16.054857 34.340571 35.766857v580.864c0 19.712-15.433143 35.803429-34.340571 35.803429z m0 0" p-id="10647"></path></svg>