<svg viewBox="0 0 1024 1024" xmlns="http://www.w3.org/2000/svg"><g fill="#898889"><path d="m855.49056 839.18848h-687.59552c-20.66432 0-35.67616-21.64736-35.67616-51.46624v-3.15392l39.30112-117.71904c1.08544-28.0576 15.72864-48.128 35.61472-48.128h156.73344v38.8096h-151.53152a35.6352 35.6352 0 0 0 -2.08896 12.63616v3.1744l-39.15776 117.26848c.28672 4.32128 1.16736 7.68 2.00704 9.80992h677.15072c.88064-2.29376 1.86368-6.0416 2.06848-10.87488l-24.3712-119.35744c0-5.69344-1.08544-10.07616-2.10944-12.63616h-223.4368v-38.8096h228.67968c20.1728 0 34.93888 20.62336 35.6352 49.29536l24.43264 119.7056c.02048 29.7984-14.99136 51.44576-35.65568 51.44576zm0 0"/><path d="m438.1696 729.23136-206.1312-181.248a44.9536 44.9536 0 0 1 -15.29856-31.10912 45.01504 45.01504 0 0 1 11.20256-32.84992l269.66016-306.62656a45.38368 45.38368 0 0 1 63.95904-4.13696l229.33504 201.66656a45.40416 45.40416 0 0 1 4.13696 63.93856l-253.80864 288.64512-29.12256-25.62048 253.78816-288.62464a6.5536 6.5536 0 0 0 -.59392-9.216l-229.33504-201.66656a6.5536 6.5536 0 0 0 -9.23648.6144l-269.66016 306.688a6.49216 6.49216 0 0 0 .57344 9.19552l206.1312 181.26848zm0 0"/><path d="m679.05536 734.76096h-403.92704l13.86496-35.04128h379.45344zm-245.76-271.89248 59.20768 63.73376 120.66816-122.94144 18.2272 20.50048-138.87488 141.16864-79.68768-81.96096zm0 0"/></g></svg>