<svg viewBox="0 0 1024 1024" xmlns="http://www.w3.org/2000/svg"><path d="m447.970743 882.8928a73.069714 73.069714 0 0 1 -55.3984-25.3952l-229.258972-265.947429a72.674743 72.674743 0 0 1 -17.539657-53.174857 72.660114 72.660114 0 0 1 25.205029-49.985828l434.3808-374.418286a73.098971 73.098971 0 0 1 103.146057 7.650743l229.258971 265.947428a72.645486 72.645486 0 0 1 17.539658 53.174858 72.630857 72.630857 0 0 1 -25.205029 49.985828l-434.3808 374.418286a73.201371 73.201371 0 0 1 -47.747657 17.744457zm205.136457-734.017829c-3.466971 0-8.6016.863086-13.370514 4.973715l-434.395429 374.418285a20.436114 20.436114 0 0 0 -7.050971 14.014172c-.394971 5.456457 1.345829 10.737371 4.9152 14.891886l229.258971 265.947428a20.465371 20.465371 0 0 0 28.891429 2.121143l434.3808-374.418286c4.139886-3.584 6.641371-8.543086 7.050971-13.999543a20.3776 20.3776 0 0 0 -4.9152-14.877257l-229.258971-265.962057a20.450743 20.450743 0 0 0 -15.506286-7.109486z"/><path d="m68.490971 875.125029h866.742858v52.662857h-866.742858zm425.545143-503.1936 33.367772 40.740571-205.282743 168.170057-33.367772-40.740571z"/></svg>