<svg xmlns="http://www.w3.org/2000/svg" viewBox="0 0 1024 1024" version="1.1"><path d="M447.970743 882.8928a73.069714 73.069714 0 0 1-55.3984-25.3952l-229.258972-265.947429a72.674743 72.674743 0 0 1-17.539657-53.174857 72.660114 72.660114 0 0 1 25.205029-49.985828L605.359543 113.9712a73.098971 73.098971 0 0 1 103.146057 7.650743l229.258971 265.947428a72.645486 72.645486 0 0 1 17.539658 53.174858 72.630857 72.630857 0 0 1-25.205029 49.985828L495.7184 865.148343a73.201371 73.201371 0 0 1-47.747657 17.744457z m205.136457-734.017829c-3.466971 0-8.6016 0.863086-13.370514 4.973715L205.341257 528.266971a20.436114 20.436114 0 0 0-7.050971 14.014172c-0.394971 5.456457 1.345829 10.737371 4.9152 14.891886l229.258971 265.947428a20.465371 20.465371 0 0 0 28.891429 2.121143l434.3808-374.418286c4.139886-3.584 6.641371-8.543086 7.050971-13.999543a20.3776 20.3776 0 0 0-4.9152-14.877257L668.613486 155.984457a20.450743 20.450743 0 0 0-15.506286-7.109486z" p-id="14290"></path><path d="M68.490971 875.125029h866.742858v52.662857H68.490971zM494.036114 371.931429l33.367772 40.740571L322.121143 580.842057l-33.367772-40.740571z" p-id="14291"></path></svg>