<svg xmlns="http://www.w3.org/2000/svg" viewBox="0 0 1024 1024" version="1.1"><path d="M541.04064 834.70336s-0.43008 0 0 0a40.8576 40.8576 0 0 1-38.99392-29.14304L376.03328 383.3856l-59.57632 181.30944a40.57088 40.57088 0 0 1-38.58432 27.8528H151.42912a40.69376 40.69376 0 0 1-40.71424-40.71424 40.96 40.96 0 0 1 40.71424-40.71424h96.8704l91.29984-276.8896c5.57056-16.71168 21.85216-27.42272 39.44448-27.8528a41.30816 41.30816 0 0 1 38.56384 29.14304l124.29312 417.4848 94.28992-308.18304a40.93952 40.93952 0 0 1 36.864-28.71296c17.14176-0.43008 32.99328 8.99072 39.424 24.86272l71.168 170.5984h100.74112c22.28224 0 40.71424 18.41152 40.71424 40.71424s-18.00192 40.71424-40.71424 40.71424h-127.73376a41.30816 41.30816 0 0 1-37.72416-24.86272l-38.56384-91.29984-100.74112 329.60512a41.0624 41.0624 0 0 1-38.58432 28.2624z m0 0" p-id="13280"></path></svg>