<svg xmlns="http://www.w3.org/2000/svg" viewBox="0 0 1024 1024" version="1.1"><path d="M264.192 309.248h64.45056v40.96H264.192zM473.23136 309.248h64.45056v40.96h-64.45056zM525.80352 511.0784h64.47104v40.96h-64.47104zM734.84288 511.0784h64.47104v40.96h-64.47104z" fill="" p-id="6428"></path><path d="M162.97984 743.66976L203.28448 622.592c-74.5472-56.32-113.82784-127.24224-113.82784-205.96736 0-148.992 140.88192-270.21312 314.0608-270.21312 153.10848 0 289.0752 95.60064 316.27264 222.39232l6.00064 27.8528-28.32384-3.21536a231.28064 231.28064 0 0 0-25.96864-1.61792c-126.3616 0-229.15072 95.06816-229.15072 211.90656 0 18.35008 2.7648 37.13024 8.23296 55.76704l7.10656 24.20736-25.16992 1.98656c-9.58464 0.73728-19.23072 1.2288-29.02016 1.2288-32.8704 0-60.60032-5.67296-89.94816-11.71456l-10.05568-2.02752-140.51328 70.49216zM403.53792 187.35104c-150.58944 0-273.1008 102.83008-273.1008 229.25312 0 70.00064 36.57728 131.03104 108.7488 181.41184l12.53376 8.76544-18.59584 55.88992 64.63488-32.44032 24.08448 4.83328c28.99968 5.95968 54.1696 11.22304 83.47648 10.8544a232.50944 232.50944 0 0 1-3.8912-42.1888c0-139.42784 121.18016-252.86656 270.11072-252.86656h0.47104C636.60032 256 526.5408 187.35104 403.53792 187.35104z" fill="#060404" p-id="6429"></path><path d="M865.36192 869.29408l-117.32992-64.24576c-27.648 6.88128-56.07424 13.37344-85.27872 13.37344-149.01248 0-270.2336-104.7552-270.2336-233.53344s121.22112-233.55392 270.2336-233.55392c146.28864 0 269.84448 106.96704 269.84448 233.55392 0 62.30016-35.24608 124.57984-99.6352 176.59904l32.39936 107.80672z m-111.7184-107.86816l43.7248 23.9616-11.75552-39.23968 11.40736-8.56064c61.0304-45.79328 94.63808-100.02432 94.63808-152.6784 0-104.40704-104.79616-192.59392-228.88448-192.59392-126.44352 0-229.2736 86.40512-229.2736 192.59392s102.83008 192.57344 229.2736 192.57344c26.89024 0 55.48032-7.18848 83.08736-14.09024l7.7824-1.96608z" fill="#060404" p-id="6430"></path></svg>