<svg viewBox="0 0 1024 1024" xmlns="http://www.w3.org/2000/svg"><path d="m734.976 859.392h-463.506286a116.224 116.224 0 0 1 -115.858285-115.894857v-463.433143a116.224 116.224 0 0 1 115.858285-115.894857h463.469715a116.224 116.224 0 0 1 115.858285 115.894857v463.433143a116.187429 116.187429 0 0 1 -115.821714 115.894857zm-463.506286-637.293714a58.148571 58.148571 0 0 0 -57.929143 57.965714v463.433143c0 31.890286 26.075429 57.929143 57.929143 57.929143h463.469715c31.853714 0 57.929143-26.038857 57.929142-57.929143v-463.433143a58.148571 58.148571 0 0 0 -57.929142-57.965714zm0 0"/><path d="m648.045714 395.922286h-289.645714c-17.371429 0-28.964571-11.593143-28.964571-28.964572s11.593143-28.964571 28.964571-28.964571h289.645714c17.408 0 29.001143 11.556571 29.001143 28.964571 0 17.371429-11.629714 28.964571-29.001143 28.964572zm0 0"/><path d="m358.363429 424.886857c-17.371429 0-28.964571-11.593143-28.964572-28.964571v-28.964572c0-17.371429 11.593143-28.964571 28.964572-28.964571 17.408 0 28.964571 11.556571 28.964571 28.964571v28.964572c.036571 17.371429-11.556571 28.964571-28.964571 28.964571zm289.682285 0c-17.371429 0-28.928-11.593143-28.928-28.964571v-28.964572c0-17.371429 11.556571-28.964571 28.928-28.964571 17.408 0 29.001143 11.556571 29.001143 28.964571v28.964572c0 17.371429-11.629714 28.964571-29.001143 28.964571zm-144.822857 260.681143c-17.371429 0-28.964571-11.556571-28.964571-28.964571v-289.682286c0-17.371429 11.593143-28.964571 28.964571-28.964572 17.371429 0 28.964571 11.556571 28.964572 28.964572v289.682286c0 17.408-11.593143 28.964571-28.964572 28.964571zm0 0"/><path d="m532.187429 685.568h-57.929143c-17.371429 0-28.964571-11.556571-28.964572-28.964571s11.593143-28.964571 28.964572-28.964572h57.929143c17.371429 0 28.964571 11.556571 28.964571 28.964572s-11.593143 28.964571-28.964571 28.964571zm0 0"/></svg>