<svg viewBox="0 0 1024 1024" xmlns="http://www.w3.org/2000/svg"><path d="m284.635429 183.588571h454.729142a101.046857 101.046857 0 0 1 101.083429 101.046858v454.729142a101.046857 101.046857 0 0 1 -101.083429 101.083429h-454.729142a101.046857 101.046857 0 0 1 -101.046858-101.083429v-454.729142a101.046857 101.046857 0 0 1 101.046858-101.046858zm0 50.505143a50.468571 50.468571 0 0 0 -50.505143 50.541715v454.729142c0 27.904 22.601143 50.541714 50.505143 50.541715h454.729142c27.904 0 50.578286-22.637714 50.578286-50.541715v-454.729142c0-27.940571-22.674286-50.541714-50.578286-50.541715zm50.541714 101.083429h353.645714v50.541714h-353.645714zm0 151.552h353.645714v50.505143h-353.645714zm0 151.552h353.645714v50.541714h-353.645714zm0 0"/></svg>