<svg xmlns="http://www.w3.org/2000/svg" viewBox="0 0 1024 1024" version="1.1"><path d="M284.635429 183.588571h454.729142a101.046857 101.046857 0 0 1 101.083429 101.046858v454.729142a101.046857 101.046857 0 0 1-101.083429 101.083429H284.635429a101.046857 101.046857 0 0 1-101.046858-101.083429V284.635429A101.046857 101.046857 0 0 1 284.635429 183.588571z m0 50.505143a50.468571 50.468571 0 0 0-50.505143 50.541715v454.729142c0 27.904 22.601143 50.541714 50.505143 50.541715h454.729142c27.904 0 50.578286-22.637714 50.578286-50.541715V284.635429c0-27.940571-22.674286-50.541714-50.578286-50.541715H284.635429z m50.541714 101.083429h353.645714v50.541714h-353.645714V335.177143z m0 151.552h353.645714v50.505143h-353.645714v-50.505143z m0 151.552h353.645714v50.541714h-353.645714v-50.541714z m0 0" p-id="10388"></path></svg>