<svg xmlns="http://www.w3.org/2000/svg" viewBox="0 0 1024 1024" version="1.1"><path d="M1023.48 328.3a39.61 39.61 0 0 1-39.77 39.77 35.74 35.74 0 0 1-27.62-12.15q-90.58-89.48-207.68-136.43T512 172.54q-119.31 0-236.41 47T67.91 355.92a35.75 35.75 0 0 1-27.62 12.15 38.32 38.32 0 0 1-28.17-11.6A38.32 38.32 0 0 1 0.52 328.3q0-16.56 11.05-27.61 102.74-102.75 234.75-155.22T512 93q133.65 0 266.24 52.47t234.19 155.22q11.04 11.06 11.05 27.61z" fill="" p-id="7177"></path><path d="M384.41 340.11q127.59-33.67 255.18 0t222.6 128.7a41.33 41.33 0 0 1 11 28.72 39.61 39.61 0 0 1-39.77 39.77 35.74 35.74 0 0 1-27.62-12.15 402.9 402.9 0 0 0-137.53-90.58Q590.44 403.66 512 403.63t-156.32 30.94a402.9 402.9 0 0 0-137.53 90.58 35.75 35.75 0 0 1-27.62 12.15 39.61 39.61 0 0 1-39.77-39.77 41.29 41.29 0 0 1 11.05-28.72q94.99-94.99 222.6-128.7zM716.37 651.3a40.7 40.7 0 0 1 11 28.17q0 16-11.6 28.17a37.45 37.45 0 0 1-28.17 12.15 35.72 35.72 0 0 1-27.6-12.15c-1.48-1.47-2.59-2.57-3.31-3.32q-59.65-59.66-143.62-59.65t-143.58 59.65q-12.17 12.18-28.72 12.16A39.61 39.61 0 0 1 301 676.71q0-16.58 12.15-28.73 82.86-82.85 200-82.85t200 82.85c-0.09 0.75 1.01 1.85 3.22 3.32zM513.1 811.69q24.3 0 42 17.68t17.68 42q0 24.3-17.68 42t-42 17.63q-24.3 0-42-17.68t-17.68-42q0-24.3 17.68-42t42-17.63z" fill="" p-id="7178"></path></svg>