<svg viewBox="0 0 1024 1024" xmlns="http://www.w3.org/2000/svg"><g fill="#231815"><path d="m893.410743 935.994514h-762.821486v-847.9744h604.701257l158.134857 194.940343v653.034057zm-704.3072-58.514285h645.792914v-573.776458l-127.502628-157.169371h-518.290286z"/><path d="m756.750629 367.776914-80.852115 362.159543c-2.472229 10.737371-12.375771 18.578286-22.688914 18.578286h-43.7248c-10.708114 0-19.807086-7.431314-23.098514-17.744457l-74.664229-279.669029-74.254628 279.259429c-3.306057 11.146971-12.785371 18.139429-23.098515 18.139428h-43.710171c-10.722743 0-20.626286-7.826286-22.688914-18.578285l-80.852115-362.144915 60.650057-13.194971 68.052115 309.365028 73.435428-273.481142c3.306057-10.722743 11.951543-18.154057 23.098515-18.154058h39.189942c11.132343 0 19.807086 7.431314 23.098515 18.154058l73.435428 273.481142 68.052115-308.955428z"/></g></svg>