<svg xmlns="http://www.w3.org/2000/svg" viewBox="0 0 1024 1024" version="1.1"><path d="M179.591529 371.651765a18.221176 18.221176 0 0 0 18.281412-18.251294V220.400941h132.969412c10.119529 0 18.251294-8.131765 18.251294-18.281412a18.191059 18.191059 0 0 0-18.251294-18.251294H179.591529c-10.149647 0.993882-18.281412 9.125647-18.281411 18.251294v151.250824c0 10.119529 8.131765 18.281412 18.281411 18.281412z m701.409883-175.616c0-1.024-0.993882-2.017882-2.017883-3.041883-0.993882-0.993882-0.993882-2.017882-2.017882-3.041882-0.993882-1.024-2.017882-1.024-3.072-2.017882-0.993882-1.024-1.987765-1.024-3.041882-2.048-2.017882-1.024-4.065882-1.024-7.107765-1.024h-151.220706a18.221176 18.221176 0 0 0-18.281412 18.281411c0 10.119529 8.161882 18.251294 18.281412 18.251295h132.99953v132.999529c0 10.149647 8.131765 18.251294 18.221176 18.251294a18.160941 18.160941 0 0 0 18.251294-18.251294V202.119529c0-2.017882 0-4.035765-0.993882-6.083764zM330.842353 825.374118H196.848941v-132.99953a18.160941 18.160941 0 0 0-18.281412-18.221176c-10.119529 0-17.257412 8.101647-17.257411 18.221176v151.250824c0 2.017882 0 5.059765 1.024 7.077647 0 1.024 0.993882 2.017882 2.017882 3.072 1.024 2.017882 3.072 3.072 5.089882 5.059765a17.197176 17.197176 0 0 0 10.149647 3.041882h151.250824a18.160941 18.160941 0 0 0 18.251294-18.221177c-0.993882-10.179765-9.125647-18.281412-18.251294-18.281411z m532.901647-151.220706a18.160941 18.160941 0 0 0-18.221176 18.221176v132.99953h-132.99953a18.191059 18.191059 0 0 0-18.281412 18.251294c0 10.149647 8.161882 18.221176 18.281412 18.221176h151.220706c2.017882 0 5.089882 0 7.107765-0.993882 1.024 0 2.017882-0.993882 3.041882-2.017882 2.048-0.993882 3.072-3.041882 5.089882-5.059765a17.287529 17.287529 0 0 0 3.041883-10.149647v-151.250824a18.191059 18.191059 0 0 0-18.281412-18.221176z m-154.262588 71.017412h37.556706c-9.185882-75.113412-55.868235-138.059294-119.808-171.52a165.285647 165.285647 0 0 0 59.873882-126.885648 164.442353 164.442353 0 0 0-164.442353-164.442352c-90.322824 0-164.412235 74.089412-164.412235 164.442352 0 52.766118 24.365176 99.478588 62.915764 128.90353a222.448941 222.448941 0 0 0-114.688 168.508235h37.556706c13.191529-66.981647 61.921882-121.795765 125.861647-142.125176 16.233412 5.089882 34.514824 9.125647 52.766118 9.125647 20.329412 0 38.580706-4.035765 56.862118-10.11953 64.933647 20.269176 116.736 75.083294 129.957647 144.112942z m-316.717177-298.435765a129.084235 129.084235 0 0 1 128.90353-128.90353 129.084235 129.084235 0 0 1 128.933647 128.90353 127.909647 127.909647 0 0 1-62.976 110.622117 137.878588 137.878588 0 0 1-21.323294 10.149648c-0.993882 0-1.987765 0.993882-3.011765 0.993882-2.048 0.993882-4.096 0.993882-6.083765 2.048-2.048 0.993882-5.089882 0.993882-7.077647 2.017882-1.054118 1.024-3.072 1.024-5.089882 1.024-3.072 0.993882-6.113882 0.993882-9.155765 0.993883h-3.041882c-4.065882 0-8.131765 0.993882-11.173647 0.993882-4.065882 0-8.131765 0-11.173647-0.993882h-3.041883c-4.065882 0-7.107765-0.993882-11.173647-2.017883-1.024 0-2.048 0-3.072-1.024-3.041882-0.993882-5.059765-0.993882-8.131764-2.048-1.024 0-2.017882-0.993882-4.065883-0.993882l-9.125647-3.011765c-1.024-1.054118-3.041882-1.054118-4.065882-2.017882-2.017882-1.024-4.065882-2.048-5.089883-3.072-1.024-1.024-3.041882-1.024-4.035764-2.048-39.544471-20.239059-65.927529-62.885647-65.92753-111.616z m0 0" p-id="12090"></path></svg>