<svg xmlns="http://www.w3.org/2000/svg" viewBox="0 0 1024 1024" version="1.1"><path d="M511.97952 919.83872c-111.14496 0-201.5232-90.39872-201.5232-201.54368a202.58816 202.58816 0 0 1 68.75136-151.59296V236.91264a132.9152 132.9152 0 0 1 132.75136-132.75136 132.9152 132.9152 0 0 1 132.77184 132.75136v329.78944a202.69056 202.69056 0 0 1 68.75136 151.59296c0.04096 111.14496-90.37824 201.54368-201.50272 201.54368z m0-756.46976a73.64608 73.64608 0 0 0-73.56416 73.54368V595.5584l-11.81696 8.88832a143.03232 143.03232 0 0 0-56.9344 113.8688c0 78.47936 63.83616 142.336 142.31552 142.336 78.45888 0 142.336-63.85664 142.336-142.336a143.03232 143.03232 0 0 0-56.9344-113.8688l-11.81696-8.88832V236.91264a73.66656 73.66656 0 0 0-73.58464-73.54368z" p-id="14861"></path><path d="M512 715.10016m-76.47232 0a76.47232 76.47232 0 1 0 152.94464 0 76.47232 76.47232 0 1 0-152.94464 0Z" p-id="14862"></path><path d="M482.38592 360.96h59.22816v302.36672h-59.22816z" p-id="14863"></path></svg>