<svg xmlns="http://www.w3.org/2000/svg" viewBox="0 0 1024 1024" version="1.1"><path d="M192.96 36.203h433.201c10.007 0 19.403 4.132 26.189 10.614l264.149 264.281c7.052 7.699 10.878 16.791 10.878 26.404v551.443c0 26.756-10.878 51.117-29.063 68.997l-1.043 0.83c-17.572 17.354-41.764 28.015-67.95 28.015H192.959c-26.45 0-50.812-10.878-68.995-28.845-17.662-17.881-28.799-42.241-28.799-68.997V134.04c0-26.972 11.137-51.376 28.799-69.084 17.574-17.837 42.022-28.754 68.995-28.754z m105.452 727.41h366.905c12.441 0 22.012-9.875 22.012-21.793 0-11.921-9.571-22.099-22.012-22.099H298.412c-12.006 0-21.925 10.178-21.925 22.099 0 11.918 9.919 21.793 21.925 21.793z m0-154.391h250.143c11.92 0 21.49-9.614 21.49-21.579 0-12.398-9.57-22.272-21.49-22.272H298.412c-12.006 0-21.925 9.874-21.925 22.272 0 11.965 9.919 21.579 21.925 21.579z m0-154.436h425.284c12.181 0 22.015-9.83 22.015-21.709 0-12.267-9.834-22.401-22.015-22.401H298.412c-12.006 0-21.925 10.134-21.925 22.401 0 11.877 9.919 21.709 21.925 21.709z m306.087-345.631H192.961c-6.787 0-12.877 2.567-17.403 7.483-4.35 4.393-6.96 10.658-6.96 17.402v754.905c0 6.746 2.611 12.965 6.96 17.402 4.526 4.657 10.615 7.223 17.403 7.223h636.363c6.698 0 12.962-2.567 17.053-6.961l0.695-0.263c4.003-4.436 7.134-10.657 7.134-17.402V359.037H687.329c-22.535 0-43.59-9.05-58.815-24.319l-1.132-1.347c-14.27-15.053-22.883-35.326-22.883-57.641V109.155z m212.292 206.29L648.176 146.481V275.73c0 10.395 4.175 19.965 10.441 27.015l0.956 0.997c7.221 7.05 17.053 11.702 27.756 11.702h129.463z" fill="" p-id="7303"></path></svg>