<svg xmlns="http://www.w3.org/2000/svg" viewBox="0 0 1024 1024" version="1.1"><path d="M512.02048 476.09856c-84.3776 0-153.00608-68.62848-153.00608-152.9856s68.62848-152.9856 153.00608-152.9856c84.35712 0 152.9856 68.62848 152.9856 152.9856s-68.62848 152.9856-152.9856 152.9856z m0-260.93568c-59.53536 0-107.97056 48.4352-107.97056 107.95008s48.4352 107.95008 107.97056 107.95008c59.51488 0 107.95008-48.4352 107.95008-107.95008s-48.4352-107.95008-107.95008-107.95008zM623.63648 853.85216H400.384c-105.49248 0-191.32416-76.20608-191.32416-169.86112 0-93.63456 85.83168-169.84064 191.32416-169.84064h223.25248c105.472 0 191.32416 76.20608 191.32416 169.84064 0 93.67552-85.83168 169.86112-191.32416 169.86112zM400.384 559.18592c-80.67072 0-146.30912 55.99232-146.30912 124.8256 0 68.83328 65.6384 124.84608 146.30912 124.84608h223.25248c80.65024 0 146.30912-55.99232 146.30912-124.84608 0-68.8128-65.6384-124.8256-146.30912-124.8256H400.384z" fill="#151515" p-id="6743"></path></svg>