<svg xmlns="http://www.w3.org/2000/svg" viewBox="0 0 1028 1024" version="1.1"><path d="M986.074 352.771c-17.458 0-31.304 15.05-31.304 34.314v493.037c0 39.13-29.498 71.036-65.618 71.036H131.236c-36.12 0-65.618-31.906-65.618-71.036V143.878c0-39.13 29.498-71.036 65.618-71.036h512.3c17.459 0 31.305-15.05 31.305-34.314 0-18.662-13.846-34.314-31.304-34.314H131.236C60.2 4.816 3.01 66.822 3.01 143.878v736.244c0 77.056 57.792 139.062 128.226 139.062h757.916c71.036 0 128.226-62.608 128.226-139.062V387.085c0-19.264-13.846-34.314-31.304-34.314z" fill="" p-id="7240"></path><path d="M288.96 561.063c-1.205 2.408-3.01 5.418-3.613 7.826l-66.821 222.74c-2.408 9.03 0 18.661 6.622 25.283 4.816 4.816 11.438 7.224 18.06 7.224 2.408 0 4.816-0.602 7.224-1.204l222.74-66.821c3.01-0.602 5.417-1.806 7.825-3.612l533.973-533.973c7.826-7.826 12.04-18.06 12.04-28.896 0-10.836-4.214-21.07-12.04-28.896L879.52 27.09c-15.652-15.652-41.538-15.652-57.19 0L290.765 558.655l-1.806 2.408z m520.126-448.49l42.14-42.14 119.798 119.799-42.14 42.14-119.798-119.798z m-445.479 445.48l409.36-409.36 119.797 119.798-409.359 409.36-119.798-119.798z m-82.474 202.874l47.558-159.53 111.972 111.972-159.53 47.558z" fill="" p-id="7241"></path></svg>