<svg xmlns="http://www.w3.org/2000/svg" viewBox="0 0 1024 1024" version="1.1"><path d="M820.61312 352.68608l-47.63648 47.67744a308.51072 308.51072 0 0 1 56.75008 178.42176c0 171.23328-138.81344 310.02624-310.04672 310.02624s-310.04672-138.77248-310.04672-310.02624c0-138.79296 91.2384-256.26624 217.02656-295.75168V175.73888a31.04768 31.04768 0 0 1 31.00672-30.98624h124.02688c17.12128 0 31.00672 13.88544 31.00672 31.00672v107.27424c44.6464 14.1312 85.504 38.21568 119.48032 70.43072l44.62592-44.6464a31.04768 31.04768 0 0 1 52.92032 21.93408c0 16.97792-9.1136 21.95456-9.1136 21.93408z m-269.9264-145.94048h-62.01344v63.56992c20.62336-2.048 41.39008-2.048 62.01344 0v-63.56992z m-31.00672 124.0064c-136.99072 0-248.03328 111.04256-248.03328 248.0128 0 136.99072 111.04256 248.03328 248.03328 248.03328 136.97024 0 248.0128-111.04256 248.0128-248.03328 0-136.94976-111.04256-248.0128-248.0128-248.0128z m119.56224 108.97408l-65.51552 109.24032c4.9152 8.9088 7.9872 18.944 7.9872 29.81888a62.01344 62.01344 0 1 1-62.01344-61.99296c0.3072 0 0.63488 0.08192 0.98304 0.08192l65.41312-109.03552s5.26336-15.07328 26.624-15.07328c17.12128 0 30.98624 13.88544 30.98624 31.00672-0.02048 11.65312-4.46464 15.95392-4.46464 15.95392z m0 0" fill="#475665" p-id="11840"></path></svg>