<svg xmlns="http://www.w3.org/2000/svg" viewBox="0 0 1024 1024" version="1.1"><path d="M885.160229 907.117714H703.107657a21.942857 21.942857 0 0 1-21.942857-21.942857v-34.2016H341.942857v34.2016a21.942857 21.942857 0 0 1-21.942857 21.942857H138.8544a21.942857 21.942857 0 0 1-21.957486-21.942857V421.302857a21.942857 21.942857 0 0 1 21.957486-21.957486h34.186971V182.754743a65.8432 65.8432 0 0 1 65.8432-65.857829h546.230858a65.857829 65.857829 0 0 1 65.857828 65.857829v216.590628h34.172343c12.127086 0 21.972114 9.8304 21.972114 21.957486v463.872c0 12.112457-9.845029 21.942857-21.957485 21.942857z m-90.448458-712.001828a21.942857 21.942857 0 0 0-21.972114-21.942857H250.382629a21.942857 21.942857 0 0 0-21.957486 21.942857v204.229485h36.834743c12.127086 0 20.1728 9.8304 20.1728 21.957486v147.470629h452.256914V421.302857c0-12.127086 9.8304-21.957486 21.957486-21.957486h35.064685V195.115886z m56.129829 260.490971h-56.905143v147.485257a21.942857 21.942857 0 0 1-21.942857 21.942857H251.128686a21.942857 21.942857 0 0 1-21.942857-21.942857V455.606857h-56.905143v396.141714h113.415314v-34.2016a21.942857 21.942857 0 0 1 21.942857-21.942857h406.966857a21.942857 21.942857 0 0 1 21.942857 21.942857v34.2016h114.293029v-396.141714z m0 0" p-id="14480"></path></svg>