<svg xmlns="http://www.w3.org/2000/svg" viewBox="0 0 1024 1024" version="1.1"><path d="M309.540571 348.233143h52.662858v58.660571h-52.662858zM309.540571 438.608457h52.662858v58.660572h-52.662858zM309.540571 528.969143h52.662858v58.660571h-52.662858zM309.540571 619.344457h52.662858v58.660572h-52.662858z" p-id="14417"></path><path d="M904.060343 199.709257H430.138514v1.214172h-26.331428c0 37.463771-30.485943 67.935086-67.949715 67.935085s-67.935086-30.471314-67.935085-67.935085h-19.412115v-1.214172H119.954286a81.773714 81.773714 0 0 0-81.671315 81.671314v461.2096A81.773714 81.773714 0 0 0 119.954286 824.276114h127.722057v-2.004114h20.260571c0-37.463771 30.471314-67.949714 67.935086-67.949714s67.949714 30.485943 67.949714 67.949714h28.0576v2.004114h472.181029a81.773714 81.773714 0 0 0 81.671314-81.685943V281.380571a81.773714 81.773714 0 0 0-81.671314-81.671314z m29.008457 542.895543c0 16.003657-13.019429 29.023086-29.008457 29.023086H445.176686c-19.192686-41.223314-60.898743-69.9392-109.304686-69.9392-48.391314 0-90.097371 28.715886-109.290057 69.9392H119.954286a29.052343 29.052343 0 0 1-29.008457-29.023086V281.380571c0-16.003657 13.019429-29.023086 29.008457-29.023085h107.008c19.338971 40.813714 60.8256 69.163886 108.895085 69.163885 48.084114 0 89.570743-28.350171 108.909715-69.163885H904.045714c16.003657 0 29.008457 13.019429 29.008457 29.023085v461.224229z" p-id="14418"></path></svg>