<svg xmlns="http://www.w3.org/2000/svg" viewBox="0 0 1024 1024" version="1.1"><path d="M903.723886 346.5216a424.023771 424.023771 0 0 0-91.136-135.168 424.184686 424.184686 0 0 0-135.168-91.136 422.912 422.912 0 0 0-165.4784-33.426286c-57.402514 0-113.093486 11.278629-165.4784 33.426286a424.608914 424.608914 0 0 0-135.153372 91.136 423.584914 423.584914 0 0 0-91.150628 135.168c-22.162286 52.487314-33.440914 108.075886-33.440915 165.493029s11.381029 113.078857 33.543315 165.4784a423.497143 423.497143 0 0 0 91.136 135.138742 423.818971 423.818971 0 0 0 300.6464 124.591543 423.965257 423.965257 0 0 0 300.631771-124.591543 423.263086 423.263086 0 0 0 91.136-135.138742c22.176914-52.487314 33.440914-108.061257 33.440914-165.4784s-11.351771-113.005714-33.528685-165.493029zM532.085029 886.257371V728.254171c0-11.088457-9.069714-20.158171-20.143543-20.158171s-20.143543 9.069714-20.143543 20.158171v158.0032a373.189486 373.189486 0 0 1-230.122057-95.466057l111.586743-111.586743a20.216686 20.216686 0 0 0 0-28.525714 20.231314 20.231314 0 0 0-28.496458 0l-111.498971 111.616a373.5552 373.5552 0 0 1-95.583086-230.136686h158.032457a20.187429 20.187429 0 0 0 20.143543-20.128914 20.187429 20.187429 0 0 0-20.143543-20.143543H137.669486a373.482057 373.482057 0 0 1 95.480685-230.151314l111.689143 111.601371a20.041143 20.041143 0 0 0 28.408686 0 20.187429 20.187429 0 0 0 0-28.496457l-111.586743-111.586743c61.732571-55.515429 141.911771-90.858057 230.122057-95.480685V295.789714c0 11.103086 9.084343 20.158171 20.143543 20.158172 11.073829 0 20.143543-9.055086 20.143543-20.158172V137.742629a373.248 373.248 0 0 1 230.122057 95.480685l-111.586743 111.689143a20.187429 20.187429 0 0 0 14.204343 34.435657c5.149257 0 10.269257-2.018743 14.218972-5.9392l111.572114-111.601371c55.515429 61.761829 90.858057 141.911771 95.495314 230.122057H728.181029c-11.088457 0-20.143543 9.098971-20.143543 20.1728s9.055086 20.128914 20.143543 20.128914h158.032457a373.379657 373.379657 0 0 1-95.480686 230.136686l-111.601371-111.7184a20.231314 20.231314 0 0 0-28.496458 0 20.231314 20.231314 0 0 0 0 28.525714l111.586743 111.586743a373.087086 373.087086 0 0 1-230.136685 95.495314z m0 0" p-id="14353"></path><path d="M512.043886 941.611886a428.251429 428.251429 0 0 1-303.747657-125.893486 427.973486 427.973486 0 0 1-92.072229-136.528457A426.686171 426.686171 0 0 1 82.3296 512a428.353829 428.353829 0 0 1 125.878857-303.762286 429.114514 429.114514 0 0 1 136.543086-92.086857 427.154286 427.154286 0 0 1 167.189943-33.777371 428.397714 428.397714 0 0 1 303.733028 125.864228A428.544 428.544 0 0 1 941.655771 512a428.090514 428.090514 0 0 1-125.878857 303.7184 428.309943 428.309943 0 0 1-303.733028 125.893486z m-0.1024-850.446629c-56.744229 0-111.850057 11.132343-163.766857 33.089829a420.4544 420.4544 0 0 0-133.763658 90.199771 419.722971 419.722971 0 0 0-123.318857 297.559772c0 56.583314 11.176229 111.689143 33.206857 163.752228a419.254857 419.254857 0 0 0 90.199772 133.763657 419.883886 419.883886 0 0 0 133.778286 90.229029 418.698971 418.698971 0 0 0 163.781485 33.089828 417.938286 417.938286 0 0 0 163.766857-33.089828 419.401143 419.401143 0 0 0 133.778286-90.229029 419.488914 419.488914 0 0 0 90.199772-133.763657 418.377143 418.377143 0 0 0 33.104457-163.752228c0-56.495543-11.176229-111.616-33.192229-163.781486a419.6352 419.6352 0 0 0-90.229028-133.778286 420.191086 420.191086 0 0 0-133.778286-90.199771 418.845257 418.845257 0 0 0-163.766857-33.089829zM527.696457 890.88V728.254171a15.7696 15.7696 0 0 0-31.524571 0V890.88l-4.622629-0.248686a379.713829 379.713829 0 0 1-232.828343-96.607085l-3.437714-3.086629 114.878171-114.863543c6.144-6.158629 6.144-16.164571 0-22.3232-5.924571-5.909943-16.354743-5.924571-22.293942 0.014629l-114.775772 114.878171-3.086628-3.437714a380.021029 380.021029 0 0 1-96.709486-232.842972l-0.248686-4.608h162.655086a15.754971 15.754971 0 0 0 0-31.495314H133.046857l0.248686-4.608a380.094171 380.094171 0 0 1 96.607086-232.8576l3.086628-3.437714 114.965943 114.878171a16.032914 16.032914 0 0 0 22.206171 0c2.9696-2.9696 4.608-6.933943 4.608-11.1616 0-4.213029-1.6384-8.177371-4.608-11.146971l-114.878171-114.863543 3.437714-3.086629a379.157943 379.157943 0 0 1 232.842972-96.607085l4.608-0.248686v162.640457a15.7696 15.7696 0 0 0 31.524571 0V133.12l4.608 0.248686a379.874743 379.874743 0 0 1 232.842972 96.607085l3.423085 3.086629-114.863543 114.951314a15.652571 15.652571 0 0 0-4.593371 11.1616c0 4.213029 1.623771 8.177371 4.593371 11.146972a15.945143 15.945143 0 0 0 22.206172 0l114.863543-114.878172 3.101257 3.437715c57.782857 64.292571 92.101486 146.987886 96.607086 232.828342l0.248685 4.608H728.181029a15.7696 15.7696 0 0 0 0 31.524572h162.655085l-0.263314 4.608a379.757714 379.757714 0 0 1-96.607086 232.842971l-3.086628 3.437715-114.8928-114.980572c-5.909943-5.909943-16.340114-5.924571-22.279315 0.014629a15.798857 15.798857 0 0 0 0 22.308571l114.863543 114.863543-3.423085 3.086629a379.845486 379.845486 0 0 1-232.842972 96.607085l-4.608 0.248686z m-15.754971-187.172571a24.576 24.576 0 0 1 24.532114 24.546742v153.336686a370.9952 370.9952 0 0 0 219.3408-91.004343l-108.280686-108.295314a24.605257 24.605257 0 0 1 0-34.728229c9.274514-9.230629 25.453714-9.201371 34.698972-0.014628l108.309943 108.426971a371.390171 371.390171 0 0 0 91.018971-219.355428H728.181029a24.576 24.576 0 0 1-24.546743-24.517486 24.576 24.576 0 0 1 24.546743-24.561371h153.278171a370.600229 370.600229 0 0 0-91.0336-219.3408l-108.295314 108.295314c-9.3184 9.347657-25.2928 9.347657-34.596572 0a24.341943 24.341943 0 0 1-7.168-17.349486c0-6.568229 2.545371-12.726857 7.168-17.364114l108.280686-108.397714a371.214629 371.214629 0 0 0-219.3408-91.018972v153.351314c0 13.531429-11.000686 24.546743-24.532114 24.546743s-24.532114-11.015314-24.532115-24.546743V142.394514a370.512457 370.512457 0 0 0-219.355428 91.018972l108.295314 108.295314c4.622629 4.608 7.182629 10.766629 7.182629 17.349486s-2.545371 12.726857-7.182629 17.364114c-9.3184 9.3184-25.307429 9.303771-34.6112 0l-108.397714-108.295314a371.375543 371.375543 0 0 0-91.018972 219.370057h153.365943c13.531429 0 24.532114 11.000686 24.532115 24.532114 0 13.5168-11.000686 24.517486-24.532115 24.517486H142.321371a371.273143 371.273143 0 0 0 91.121372 219.355428l108.207543-108.309942c9.274514-9.230629 25.453714-9.216 34.7136-0.014629a24.619886 24.619886 0 0 1 0 34.742857l-108.295315 108.295314a371.141486 371.141486 0 0 0 219.3408 91.004343V728.254171a24.576 24.576 0 0 1 24.532115-24.546742z" p-id="14354"></path><path d="M578.735543 459.234743l-66.384457-106.276572-66.369829 106.276572a94.061714 94.061714 0 0 0-27.911314 66.8672 94.427429 94.427429 0 0 0 94.281143 94.281143c51.975314 0 94.266514-42.335086 94.266514-94.281143 0-26.097371-10.678857-49.751771-27.882057-66.8672z m-66.399086 120.861257a54.052571 54.052571 0 0 1-53.979428-53.994057 54.052571 54.052571 0 0 1 53.979428-53.994057 54.052571 54.052571 0 0 1 53.979429 53.994057 54.052571 54.052571 0 0 1-53.979429 53.994057z m0 0" p-id="14355"></path></svg>