<svg xmlns="http://www.w3.org/2000/svg" viewBox="0 0 1024 1024" version="1.1"><path d="M873.20576 373.67808l-177.47968-177.4592c-43.37664-43.39712-95.29344-47.43168-131.85024-10.89536l-66.6624 66.6624c-21.504-14.47936-43.54048-25.45664-62.32064-34.69312l-4.11648-2.00704a178.97472 178.97472 0 0 0-14.0288-7.00416l-3.7888-1.67936c-15.17568-7.70048-38.13376-19.37408-62.44352-19.37408-19.53792 0-36.92544 7.4752-51.67104 22.2208l-153.8048 153.8048c-37.21216 37.21216-33.792 71.41376-32.29696 86.36416l0.45056 2.4576c1.14688 19.12832 14.21312 35.92192 35.88096 62.23872 3.05152 3.4816 6.12352 6.98368 8.86784 10.62912 9.40032 11.9808 16.40448 23.552 23.83872 35.81952l3.35872 5.50912c13.63968 22.15936 29.0816 47.3088 60.70272 78.90944l192.6144 193.10592a109.89568 109.89568 0 0 0 62.17728 31.29344c3.76832 0.512 8.04864 0.55296 11.81696 0.55296 21.31968 0 40.40704-7.68 53.63712-21.46304 8.86784-8.84736 74.30144-66.37568 122.10176-108.42112l32.8704-28.95872c32.52224-28.61056 50.44224-44.40064 54.70208-48.61952 9.97376-9.99424 22.15936-30.53568 26.89024-53.92384 0.79872-3.91168 1.35168-7.7824 1.69984-11.63264l81.18272-81.16224c39.46496-39.44448 34.63168-95.31392-12.32896-142.27456z m-148.29568 242.64704l-74.11712-74.11712c-13.04576-13.04576-35.57376-13.04576-48.57856 0a34.4064 34.4064 0 0 0 0 48.55808l71.33184 71.33184-13.04576 11.44832-70.3488-70.3488a34.2016 34.2016 0 0 0-48.55808 0.04096 34.4064 34.4064 0 0 0 0.02048 48.5376l67.15392 67.21536c-6.38976 5.59104-12.51328 11.01824-18.30912 16.11776l-66.08896-66.06848c-13.0048-13.08672-35.57376-13.06624-48.55808-0.02048-6.53312 6.49216-10.11712 15.11424-10.11712 24.2688s3.584 17.75616 10.11712 24.2688l63.1808 63.24224c-10.67008 9.58464-18.06336 16.32256-21.03296 19.29216a15.48288 15.48288 0 0 1-8.3968 0.90112 41.32864 41.32864 0 0 1-22.58944-11.73504l-192.63488-192.63488c-26.74688-26.76736-38.8096-46.98112-51.95776-69.03808-8.47872-14.15168-17.24416-28.79488-30.43328-45.40416-1.55648-2.06848-3.39968-4.28032-5.28384-6.5536-1.57696-1.90464-3.21536-3.87072-4.73088-5.8368l-1.31072-1.57696c-4.25984-5.07904-16.73216-19.98848-19.82464-25.9072a2.048 2.048 0 0 0 0-0.53248c-0.83968-9.13408-1.4336-15.74912 12.73856-29.94176l152.8832-153.8048c2.19136-2.21184 3.09248-2.21184 4.13696-2.21184 5.7344 0 18.2272 5.85728 30.47424 11.93984l5.44768 2.9696c4.46464 1.78176 8.94976 4.01408 14.25408 6.67648 14.336 6.88128 30.69952 14.97088 46.55104 24.51456l-73.50272 73.50272a33.09568 33.09568 0 0 0-10.3424 23.36768c-0.24576 9.09312 3.21536 18.10432 9.48224 24.71936 28.4672 29.88032 65.51552 47.02208 101.64224 47.02208 26.2144 0 50.15552-8.84736 69.20192-25.6 8.41728-7.45472 18.35008-16.896 29.26592-27.648l156.44672 156.42624c16.19968 16.22016-2.74432 40.79616-2.78528 40.83712-0.22528 0.28672-1.14688 1.14688-1.78176 1.78176zM612.90496 233.8816c5.18144-5.18144 8.21248-5.16096 10.01472-5.18144 3.6864 0.6144 11.69408 3.50208 24.2688 16.0768l177.47968 177.50016c8.78592 8.76544 14.72512 17.3056 17.14176 24.69888 2.68288 8.11008 1.18784 14.41792-4.83328 20.45952l-58.368 58.34752-0.53248-0.6144-157.16352-157.14304 0.28672-0.28672 2.4576-2.60096a34.32448 34.32448 0 0 0-2.10944-48.55808c-13.66016-12.32896-36.94592-10.73152-47.80032 1.39264a47.65696 47.65696 0 0 0-2.23232 2.33472c-29.57312 31.66208-55.45984 57.5488-72.86784 72.8064-11.264 9.78944-29.71648 10.752-47.80032 2.8672l162.05824-162.0992z" p-id="15178"></path></svg>