<svg xmlns="http://www.w3.org/2000/svg" viewBox="0 0 1024 1024" version="1.1"><path d="M495.104 303.104C291.34848 303.104 126.1568 524.4928 126.1568 524.4928s165.19168 221.36832 368.9472 221.36832c203.776 0 368.96768-221.36832 368.96768-221.36832S698.88 303.104 495.104 303.104z m0 405.85216c-146.20672 0-275.00544-131.23584-321.2288-184.50432 46.12096-53.30944 174.55104-184.44288 321.2288-184.44288 146.2272 0 275.00544 131.25632 321.24928 184.5248-46.12096 53.28896-174.55104 184.4224-321.24928 184.4224z" fill="" p-id="3802"></path><path d="M495.104 410.48064a119.9104 119.9104 0 1 0 0 239.8208 119.9104 119.9104 0 0 0 0-239.8208z m0 202.93632a83.10784 83.10784 0 0 1-83.00544-83.02592 83.10784 83.10784 0 0 1 83.00544-83.02592 83.08736 83.08736 0 0 1 83.00544 83.02592 83.08736 83.08736 0 0 1-83.00544 83.02592z" fill="" p-id="3803"></path></svg>