<svg xmlns="http://www.w3.org/2000/svg" viewBox="0 0 1024 1024" version="1.1"><path d="M511.965867 1011.165867C236.7488 1011.165867 12.834133 787.217067 12.834133 512S236.7488 12.834133 511.965867 12.834133C787.217067 12.834133 1011.165867 236.782933 1011.165867 512s-223.9488 499.165867-499.2 499.165867z m0-930.0992C274.397867 81.066667 81.1008 274.397867 81.1008 512s193.297067 430.933333 430.865067 430.933333c237.636267 0 430.933333-193.297067 430.933333-430.933333 0-237.602133-193.297067-430.933333-430.933333-430.933333z" fill="" p-id="10135"></path><path d="M564.0192 758.4768c-135.918933 0-246.545067-110.523733-246.545067-246.4768 0-135.918933 110.592-246.510933 246.545067-246.510933 33.314133 0 65.604267 6.519467 96.017067 19.387733l-26.658134 62.8736A178.4832 178.4832 0 0 0 385.774933 512a178.449067 178.449067 0 0 0 178.2784 178.210133c32.085333 0 63.488-8.6016 90.794667-24.8832l34.9184 58.6752a245.9648 245.9648 0 0 1-125.7472 34.474667z" fill="" p-id="10136"></path></svg>