<svg xmlns="http://www.w3.org/2000/svg" viewBox="0 0 1024 1024" version="1.1"><path d="M861.303 62.925H162.928a100.055 100.055 0 0 0-99.77 99.772v698.375a100.055 100.055 0 0 0 99.77 99.77h224.487c14.966 0 24.943-9.976 24.943-24.942s-9.977-24.943-24.943-24.943H162.928a50.04 50.04 0 0 1-49.886-49.885v-698.4c0-27.412 22.45-49.887 49.887-49.887h698.4c27.41 0 49.886 22.475 49.886 49.887v124.714c0 14.991 9.951 24.943 24.917 24.943s24.943-9.952 24.943-24.943V162.672a100.055 100.055 0 0 0-99.772-99.747" fill="" p-id="7365"></path><path d="M212.814 312.355h349.2c14.966 0 24.944-9.978 24.944-24.944s-9.978-24.943-24.944-24.943h-349.2c-14.966 0-24.943 9.977-24.943 24.943s9.977 24.944 24.943 24.944z m199.544 174.6H212.814c-14.966 0-24.943 9.95-24.943 24.942 0 14.94 9.977 24.944 24.943 24.944h199.544c14.966 0 24.943-10.004 24.943-24.944 0-14.991-9.977-24.943-24.943-24.943z m546.223 421.508c-9.977-102.266-82.286-184.577-177.094-212.015 62.356-27.437 104.76-87.3 104.76-159.634a173.52 173.52 0 0 0-174.6-174.6 173.52 173.52 0 0 0-174.6 174.6c0 72.334 42.428 132.197 104.785 159.634-94.783 27.438-164.623 109.75-177.094 209.52v4.99c0 14.965 12.471 24.942 24.943 24.942 14.965 0 24.943-12.472 24.943-24.943v-2.494c12.471-97.277 97.277-174.6 197.022-174.6 102.266 0 184.578 77.323 197.05 174.6 0 14.965 12.47 24.944 24.943 24.944 14.965 2.493 24.942-7.484 24.942-24.944 0 2.495 0 2.495 0 0 0 2.495 0 2.495 0 0zM586.958 536.814c0-69.84 54.873-124.714 124.714-124.714 69.814 0 124.714 54.875 124.714 124.714 0 69.84-54.9 124.714-124.714 124.714-69.84 0-124.714-54.873-124.714-124.714z" fill="" p-id="7366"></path></svg>