<svg xmlns="http://www.w3.org/2000/svg" viewBox="0 0 1024 1024" version="1.1"><path d="M617.02144 701.35808c-60.57984 0-145.67424-43.9296-198.41024-87.28576-72.17152-59.20768-135.0656-155.93472-115.54816-226.28352 3.23584-10.32192 7.74144-19.80416 13.2096-28.09856l2.048-3.29728c-0.45056 0.59392-1.024 1.3312-1.47456 2.19136l3.11296-4.8128 15.74912-19.37408c10.752-13.14816 31.76448-15.29856 44.87168-4.62848l85.8112 69.3248c6.67648 5.4272 10.79296 13.06624 11.65312 21.56544 0.86016 8.47872-1.6384 16.77312-7.04512 23.38816l-23.12192 28.4672c1.7408 10.97728 9.216 36.53632 41.472 62.83264 32.0512 26.03008 58.28608 28.3648 69.50912 27.79136l23.12192-28.40576c10.752-13.16864 31.72352-15.27808 44.83072-4.608l85.34016 69.40672c14.19264 11.55072 16.4864 31.47776 5.2224 45.3632l-15.38048 18.88256c-7.22944 8.92928-17.14176 16.9984-29.42976 24.04352a119.76704 119.76704 0 0 1-55.54176 13.53728zM352.03072 379.45344l-1.57696 2.80576a68.75136 68.75136 0 0 0-8.11008 17.16224c-12.47232 44.99456 32.33792 125.68576 102.23616 182.9888 57.22112 47.08352 136.6016 82.47296 179.9168 77.63968a77.6192 77.6192 0 0 0 28.40576-8.15104c7.10656-4.07552 13.312-9.03168 17.32608-13.96736l9.66656-11.8784-71.8848-58.44992-26.7264 32.84992-6.41024 1.72032a76.5952 76.5952 0 0 1-18.5344 1.96608c-21.56544 0-55.13216-6.41024-92.79488-37.04832-59.20768-48.18944-57.15968-100.1472-57.05728-102.35904l0.36864-6.656 26.70592-32.84992-71.76192-57.93792-9.19552 11.32544a5.5296 5.5296 0 0 0-0.57344 0.83968z" fill="" p-id="9055"></path><path d="M511.97952 867.84c-196.1984 0-355.81952-159.6416-355.81952-355.84S315.78112 156.16 511.97952 156.16c196.21888 0 355.86048 159.6416 355.86048 355.84S708.1984 867.84 511.97952 867.84z m0-670.72C338.35008 197.12 197.12 338.35008 197.12 512s141.23008 314.88 314.85952 314.88c173.64992 0 314.90048-141.23008 314.90048-314.88S685.62944 197.12 511.97952 197.12z" fill="" p-id="9056"></path></svg>