<svg xmlns="http://www.w3.org/2000/svg" viewBox="0 0 1024 1024" version="1.1"><path d="M789.1968 767.61088h-163.92192v93.67552h46.83776a23.42912 23.42912 0 1 1 0 46.85824H391.08608a23.42912 23.42912 0 1 1 0-46.85824h46.83776v-93.67552h-187.35104a93.65504 93.65504 0 0 1-93.67552-93.65504V252.39552a93.67552 93.67552 0 0 1 93.67552-93.67552h538.64448a93.696 93.696 0 0 1 93.696 93.67552v421.56032a93.696 93.696 0 0 1-93.71648 93.65504z m-210.75968 93.696v-93.67552H484.7616v93.67552h93.67552z m257.59744-608.91136a46.81728 46.81728 0 0 0-46.83776-46.83776H250.55232a46.81728 46.81728 0 0 0-46.83776 46.83776v327.8848h632.32v-327.8848z m0 374.72256H203.71456v46.83776a46.81728 46.81728 0 0 0 46.83776 46.81728h538.64448a46.81728 46.81728 0 0 0 46.83776-46.81728v-46.83776z m0 0" p-id="13913"></path></svg>