<svg xmlns="http://www.w3.org/2000/svg" viewBox="0 0 1024 1024" version="1.1"><path d="M511.97952 867.84c-196.1984 0-355.81952-159.62112-355.81952-355.84S315.78112 156.16 511.97952 156.16c196.21888 0 355.86048 159.62112 355.86048 355.84S708.1984 867.84 511.97952 867.84z m0-670.72C338.35008 197.12 197.12 338.37056 197.12 512s141.23008 314.88 314.85952 314.88c173.64992 0 314.90048-141.23008 314.90048-314.88S685.62944 197.12 511.97952 197.12z" fill="" p-id="9118"></path><path d="M512 479.15008a100.78208 100.78208 0 0 1-100.67968-100.6592c0-55.52128 45.1584-100.6592 100.67968-100.6592s100.67968 45.13792 100.67968 100.6592A100.78208 100.78208 0 0 1 512 479.15008z m0-171.7248a71.168 71.168 0 0 0-71.0656 71.0656c0 39.15776 31.90784 71.02464 71.0656 71.02464s71.0656-31.88736 71.0656-71.02464a71.168 71.168 0 0 0-71.0656-71.0656z" fill="#151515" p-id="9119"></path><path d="M512 489.39008a111.04256 111.04256 0 0 1-110.91968-110.8992c0-61.15328 49.7664-110.8992 110.91968-110.8992s110.91968 49.74592 110.91968 110.8992A111.04256 111.04256 0 0 1 512 489.39008z m0-201.3184a90.5216 90.5216 0 0 0-90.43968 90.4192c0 49.84832 40.57088 90.4192 90.43968 90.4192s90.43968-40.5504 90.43968-90.4192A90.5216 90.5216 0 0 0 512 288.07168z m0 171.68384a81.38752 81.38752 0 0 1-81.3056-81.26464c0-44.83072 36.47488-81.3056 81.3056-81.3056s81.3056 36.47488 81.3056 81.3056A81.38752 81.38752 0 0 1 512 459.75552z m0-142.09024a60.88704 60.88704 0 0 0-60.8256 60.8256c0 33.52576 27.27936 60.78464 60.8256 60.78464s60.8256-27.27936 60.8256-60.78464a60.88704 60.88704 0 0 0-60.8256-60.8256z" fill="" p-id="9120"></path><path d="M585.44128 727.67488h-146.88256c-69.4272 0-125.89056-50.11456-125.89056-111.73888s56.48384-111.75936 125.89056-111.75936h146.88256c69.4272 0 125.89056 50.13504 125.89056 111.75936s-56.46336 111.73888-125.89056 111.73888z m-146.88256-193.88416c-53.06368 0-96.27648 36.84352-96.27648 82.14528s43.2128 82.14528 96.27648 82.14528h146.88256c53.06368 0 96.27648-36.84352 96.27648-82.14528s-43.2128-82.14528-96.27648-82.14528h-146.88256z" fill="#151515" p-id="9121"></path><path d="M585.44128 737.91488h-146.88256c-75.0592 0-136.13056-54.72256-136.13056-121.97888s61.07136-121.99936 136.13056-121.99936h146.88256c75.0592 0 136.13056 54.74304 136.13056 121.99936s-61.07136 121.97888-136.13056 121.97888z m-146.88256-223.49824c-63.77472 0-115.65056 45.54752-115.65056 101.51936s51.87584 101.49888 115.65056 101.49888h146.88256c63.77472 0 115.65056-45.52704 115.65056-101.49888s-51.87584-101.51936-115.65056-101.51936h-146.88256z m146.88256 193.90464h-146.88256c-58.73664 0-106.51648-41.43104-106.51648-92.38528s47.77984-92.3648 106.51648-92.3648h146.88256c58.73664 0 106.51648 41.43104 106.51648 92.3648s-47.77984 92.38528-106.51648 92.38528z m-146.88256-164.29056c-47.43168 0-86.03648 32.256-86.03648 71.90528 0 39.66976 38.6048 71.90528 86.03648 71.90528h146.88256c47.43168 0 86.03648-32.23552 86.03648-71.90528 0-39.64928-38.6048-71.90528-86.03648-71.90528h-146.88256z" fill="" p-id="9122"></path></svg>