<svg xmlns="http://www.w3.org/2000/svg" viewBox="0 0 1024 1024" version="1.1"><path d="M318.85312 401.08032h102.0928v40.96h-102.0928zM603.05408 401.08032h102.11328v40.96h-102.11328z" fill="" p-id="6110"></path><path d="M511.97952 867.84c-196.1984 0-355.81952-159.62112-355.81952-355.84S315.78112 156.16 511.97952 156.16c196.21888 0 355.86048 159.62112 355.86048 355.84S708.1984 867.84 511.97952 867.84z m0-670.72C338.35008 197.12 197.12 338.37056 197.12 512s141.23008 314.88 314.85952 314.88c173.64992 0 314.90048-141.23008 314.90048-314.88S685.62944 197.12 511.97952 197.12z" fill="" p-id="6111"></path><path d="M511.97952 732.63104c-97.11616 0-176.128-78.99136-176.128-176.14848h40.96a135.33184 135.33184 0 0 0 135.168 135.18848 135.3728 135.3728 0 0 0 135.20896-135.18848h40.96c0 97.15712-79.03232 176.14848-176.16896 176.14848z" fill="" p-id="6112"></path></svg>