<svg xmlns="http://www.w3.org/2000/svg" viewBox="0 0 1024 1024" version="1.1"><path d="M325.28384 290.54976l28.11904-19.23072 325.2224 475.79136-28.13952 19.21024zM379.904 863.29344c-17.46944 0-35.1232-1.90464-52.75648-5.69344-65.18784-14.11072-122.30656-52.96128-160.84992-109.40416-79.83104-116.81792-54.41536-273.63328 56.66816-349.57312l47.49312-32.44032 23.12192 33.81248-47.49312 32.44032c-92.44672 63.1808-113.07008 194.47808-45.9776 292.6592 32.62464 47.73888 80.81408 80.5888 135.70048 92.4672 54.45632 11.79648 109.01504 1.49504 153.64096-28.99968l45.11744-30.84288 23.12192 33.83296-45.11744 30.8224a233.6768 233.6768 0 0 1-132.66944 40.91904zM754.5856 656.9984l-23.12192-33.792 46.30528-31.6416c44.62592-30.49472 74.01472-77.59872 82.82112-132.64896 8.86784-55.45984-4.21888-112.27136-36.84352-160.01024-32.62464-47.73888-80.81408-80.56832-135.70048-92.4672-54.45632-11.79648-109.01504-1.51552-153.64096 28.99968l-55.66464 38.03136-23.12192-33.81248 55.66464-38.03136c53.98528-36.90496 119.88992-49.39776 185.42592-35.20512 65.18784 14.11072 122.30656 52.9408 160.84992 109.38368 38.58432 56.40192 54.02624 123.74016 43.49952 189.58336-10.60864 66.2528-46.16192 123.0848-100.16768 159.96928l-46.30528 31.6416z" fill="" p-id="10073"></path></svg>