<svg xmlns="http://www.w3.org/2000/svg" viewBox="0 0 1024 1024" version="1.1"><path d="M762.71616 837.8368h-130.99008c-18.35008 0-36.70016-7.86432-52.44928-20.95104L207.21664 476.24192c-28.83584-26.19392-34.07872-73.35936-7.86432-104.81664l120.54528-154.58304c2.62144 0 2.62144-2.62144 5.24288-5.24288 28.81536-31.4368 78.60224-31.4368 107.43808-2.62144l47.16544 44.544c5.24288 7.86432 13.1072 10.48576 20.97152 10.48576h60.27264c36.67968 0 70.7584 26.2144 76.00128 65.51552l39.30112 241.07008c2.60096 7.86432 7.84384 15.70816 15.70816 20.93056l110.08 60.27264c26.19392 13.1072 39.28064 39.30112 39.28064 68.11648V761.856c-0.04096 41.92256-34.0992 75.9808-78.6432 75.9808zM238.65344 439.56224l374.70208 343.26528c5.24288 5.24288 13.1072 7.86432 18.35008 7.86432h130.99008a29.0816 29.0816 0 0 0 28.81536-28.81536v-44.56448c0-10.46528-5.24288-20.95104-15.74912-23.57248l-110.03904-60.25216c-20.95104-10.48576-36.6592-31.4368-39.30112-55.02976L587.1616 337.36704c-2.62144-13.1072-13.12768-23.57248-28.81536-23.57248H498.0736c-20.95104 0-39.30112-7.86432-52.40832-20.95104l-47.16544-44.56448c-10.48576-10.46528-28.81536-10.46528-39.30112 0 0 0 0 2.62144-2.62144 2.62144l-120.5248 151.98208a28.0576 28.0576 0 0 0 2.60096 36.67968z m0 0" fill="#202020" p-id="11964"></path><path d="M595.02592 423.8336h-115.3024c-15.72864 0-26.19392-10.48576-26.19392-26.2144 0-15.70816 10.48576-26.19392 26.19392-26.19392h115.3024c15.72864 0 26.19392 10.48576 26.19392 26.19392 0 15.74912-10.48576 26.2144-26.19392 26.2144z m15.70816 99.59424h-128.38912c-15.72864 0-26.2144-10.48576-26.2144-26.2144 0-15.70816 10.48576-26.19392 26.2144-26.19392h128.38912c15.72864 0 26.2144 10.48576 26.2144 26.19392 0.02048 15.70816-13.1072 26.2144-26.2144 26.2144z m0 0" fill="#202020" p-id="11965"></path></svg>