<svg xmlns="http://www.w3.org/2000/svg" viewBox="0 0 1024 1024" version="1.1"><path d="M514.233191 1002.572255C243.733787 1002.572255 23.660936 782.488511 23.660936 512c0-270.510298 220.072851-490.583149 490.572255-490.583149 270.510298 0 490.583149 220.072851 490.583149 490.583149 0 270.488511-220.072851 490.572255-490.583149 490.572255z m0-937.570042C267.754213 65.002213 67.235404 265.521021 67.235404 512c0 246.468085 200.518809 446.997787 446.997787 446.997787S961.241872 758.468085 961.241872 512c0-246.478979-200.529702-446.997787-447.008681-446.997787z" fill="#231815" p-id="9694"></path><path d="M514.233191 913.614979c-221.45634 0-401.614979-180.169532-401.614978-401.614979 0-221.467234 180.158638-401.625872 401.614978-401.625872S915.859064 290.54366 915.859064 512c0 221.445447-180.169532 401.614979-401.625873 401.614979z m0-792.336341c-215.443064 0-390.721362 175.278298-390.721361 390.732256 0 215.443064 175.278298 390.721362 390.721361 390.721361S904.965447 727.443064 904.965447 512 729.676255 121.278638 514.233191 121.278638z" fill="#231815" p-id="9695"></path><path d="M173.143149 481.236426l4.357447-29.957447h34.293106c8.235574 0 14.869787 6.634213 14.869787 14.869787v68.139574c0 22.636936 17.614979 29.510809 38.868426 29.510809h133.130894v29.957447h-126.257022c-34.086128 0-50.317617-6.852085-60.383319-22.876596L191.422638 596.970213l-19.891744-30.894298 18.769702-14.848c2.505532-2.298553 3.19183-5.719149 3.19183-9.379404v-57.19149a3.496851 3.496851 0 0 0-3.420596-3.420595h-16.928681z m34.075234-105.657192l26.765617 47.114894-30.425872 17.146553-26.765617-47.104 30.425872-17.157447z m96.985872-4.117787v29.957447h31.340936v-29.957447h34.086128v29.957447h21.046468v29.739574h-21.046468v33.846468h26.74383v29.728681h-26.74383v63.357277h-34.086128v-63.357277H302.842553c-2.745191 23.79166-9.379404 45.056-23.573787 64.740766l-31.101277-14.641021c10.762894-15.338213 17.614979-30.414979 20.360171-50.099745h-32.931405l6.634213-29.728681h27.680681v-33.846468h-28.595745l6.634213-29.739574h21.961532v-29.957447h34.293106z m0 93.543489h31.340936v-33.846468h-31.340936v33.846468zM478.306043 387.006638c-14.194383 24.467064-43.465532 56.276426-70.677788 73.422979l-7.080851-35.229957c13.725957-8.682213 38.193021-34.532766 48.258724-54.195745l29.499915 16.002723z m-48.040852 210.649873v-84.403745a210.70434 210.70434 0 0 1-21.046468 15.316425l-8.682212-35.676595c15.556085-9.357617 48.934128-39.336851 61.745021-63.33549l28.149106 17.832851c-6.405447 10.741106-15.556085 22.429957-25.850553 33.617703v116.648851h-34.314894z m197.403235-145.01583v29.739574h-35.469617v93.075064c0 13.954723-7.320511 22.636936-23.552 21.514894l-51.918979-3.660256v-25.621787l32.931404 2.745192c6.634213 0.686298 8.235574-0.468426 8.235575-6.405447V482.369362h-69.08732l6.634213-29.739575h132.226724z m-7.788937-67.006638v29.499914H496.607319l6.634213-29.499914h116.637957zM761.049872 370.775149v43.91217h75.470979c6.405447 0 11.449191 5.250723 11.449192 11.427404v109.339234h-34.314894v-11.449191h-52.594383v73.891404h-34.086128v-73.891404h-52.594383v11.449191h-34.314893V426.114723c0-6.165787 5.043745-11.427404 11.449191-11.427404h75.470979v-43.91217h34.06434z m-80.972255 73.629957a5.664681 5.664681 0 0 0-5.697362 5.719149v44.380596h52.594383v-50.110638h-46.897021z m133.566638 5.730043a5.664681 5.664681 0 0 0-5.697361-5.719149h-46.897022v50.110638h52.594383v-44.391489z" fill="#231815" p-id="9696"></path></svg>