<svg xmlns="http://www.w3.org/2000/svg" viewBox="0 0 1024 1024" version="1.1"><path d="M586.40384 605.81888h199.51616v59.24864h-199.51616zM586.40384 469.64736h149.64736v59.2896h-149.64736zM586.40384 333.49632h149.64736v59.2896h-149.64736z" p-id="15052"></path><path d="M905.728 820.46976H118.272V203.53024h787.43552v616.93952z m-726.016-61.44h664.55552V264.97024H179.712v494.05952z" p-id="15053"></path><path d="M472.08448 514.33472a114.8928 114.8928 0 0 0 31.19104-78.21312 115.13856 115.13856 0 0 0-114.9952-115.01568 115.13856 115.13856 0 0 0-115.03616 115.01568c0 29.0816 11.20256 56.95488 31.232 78.21312a156.13952 156.13952 0 0 0-73.37984 132.25984 30.9248 30.9248 0 0 0 30.86336 30.86336 30.9248 30.9248 0 0 0 30.84288-30.86336 95.31392 95.31392 0 0 1 190.62784 0c0 16.91648 13.7216 30.86336 30.84288 30.86336 17.03936 0 31.00672-13.94688 31.15008-30.86336 0.02048-53.98528-27.87328-103.50592-73.33888-132.25984z m-84.00896-24.73984a53.3504 53.3504 0 0 1-53.32992-53.30944 53.4528 53.4528 0 0 1 53.32992-53.32992 53.30944 53.30944 0 1 1 0 106.63936z" p-id="15054"></path></svg>