<svg xmlns="http://www.w3.org/2000/svg" viewBox="0 0 1024 1024" version="1.1"><path d="M499.2 660.23424l-26.76736-31.00672L739.1232 399.21664a94.55616 94.55616 0 0 0 9.80992-133.18144 93.77792 93.77792 0 0 0-64.53248-32.48128 94.08512 94.08512 0 0 0-68.62848 22.67136L349.10208 486.23616l-26.76736-31.0272L589.0048 225.19808a134.79936 134.79936 0 0 1 98.38592-32.50176 134.53312 134.53312 0 0 1 92.5696 46.592 135.5776 135.5776 0 0 1-14.09024 190.95552l-266.67008 229.9904z" fill="" p-id="4114"></path><path d="M392.41728 850.6368a196.096 196.096 0 0 1-148.8896-68.03456c-34.26304-39.71072-51.01568-90.43968-47.16544-142.76608s27.87328-100.00384 67.60448-134.26688L562.3808 248.17664l26.76736 31.0272-298.41408 257.39264a154.3168 154.3168 0 0 0-53.51424 106.25024 154.46016 154.46016 0 0 0 37.33504 112.98816c55.99232 64.9216 154.35776 72.192 219.27936 16.19968l298.37312-257.39264 26.76736 31.04768-298.3936 257.37216a195.72736 195.72736 0 0 1-128.16384 47.57504z" fill="" p-id="4115"></path></svg>